<svg width="32" height="32" viewBox="0 0 32 32" fill="none" xmlns="http://www.w3.org/2000/svg">
<rect width="32" height="32" rx="8" fill="#3700FF"/>
<path d="M20.3636 13.3571H19.8182V11.75C19.8182 10.7554 19.4159 9.80161 18.6999 9.09835C17.9838 8.39509 17.0126 8 16 8C14.9874 8 14.0162 8.39509 13.3001 9.09835C12.5841 9.80161 12.1818 10.7554 12.1818 11.75V13.3571H11.6364C11.2025 13.3576 10.7866 13.5271 10.4798 13.8284C10.173 14.1297 10.0005 14.5382 10 14.9643V21.3929C10.0005 21.819 10.173 22.2275 10.4798 22.5288C10.7866 22.8301 11.2025 22.9995 11.6364 23H20.3636C20.7975 22.9995 21.2134 22.8301 21.5202 22.5288C21.827 22.2275 21.9995 21.819 22 21.3929V14.9643C21.9995 14.5382 21.827 14.1297 21.5202 13.8284C21.2134 13.5271 20.7975 13.3576 20.3636 13.3571ZM13.2727 11.75C13.2727 11.0396 13.5601 10.3583 14.0715 9.85596C14.583 9.35363 15.2767 9.07143 16 9.07143C16.7233 9.07143 17.417 9.35363 17.9285 9.85596C18.4399 10.3583 18.7273 11.0396 18.7273 11.75V13.3571H13.2727V11.75ZM16.5455 18.2974V19.5179C16.5455 19.6599 16.488 19.7962 16.3857 19.8967C16.2834 19.9971 16.1447 20.0536 16 20.0536C15.8553 20.0536 15.7166 19.9971 15.6143 19.8967C15.512 19.7962 15.4545 19.6599 15.4545 19.5179V18.2974C15.2466 18.1795 15.084 17.9975 14.9921 17.7796C14.9002 17.5617 14.8841 17.3201 14.9463 17.0922C15.0084 16.8644 15.1454 16.6631 15.3359 16.5195C15.5264 16.3759 15.7599 16.2981 16 16.2981C16.2401 16.2981 16.4736 16.3759 16.6641 16.5195C16.8546 16.6631 16.9916 16.8644 17.0537 17.0922C17.1159 17.3201 17.0998 17.5617 17.0079 17.7796C16.916 17.9975 16.7534 18.1795 16.5455 18.2974Z" fill="white"/>
<rect x="14" y="15" width="4" height="7" fill="white"/>
</svg>
