<svg width="32" height="32" viewBox="0 0 32 32" fill="none" xmlns="http://www.w3.org/2000/svg">
<rect width="32" height="32" rx="8" fill="#AAB3FF"/>
<rect x="8" y="8" width="7" height="7" rx="1" fill="white"/>
<rect x="8" y="17" width="7" height="7" rx="3.5" fill="white"/>
<path d="M17.7232 15H22.2768C23.0446 15 23.526 14.1705 23.145 13.5039L20.4341 8.75974C20.2422 8.42384 19.7578 8.42384 19.5659 8.75974L16.8549 13.5039C16.474 14.1705 16.9553 15 17.7232 15Z" fill="white"/>
<path fill-rule="evenodd" clip-rule="evenodd" d="M21.5284 17.3284C21.9614 16.8905 22.6633 16.8905 23.0963 17.3284C23.5292 17.7663 23.5292 18.4763 23.0963 18.9142L21.568 20.46L23.1754 22.0858C23.6084 22.5237 23.6084 23.2337 23.1754 23.6716C22.7425 24.1095 22.0405 24.1095 21.6076 23.6716L20.0001 22.0458L18.3926 23.6716C17.9597 24.1095 17.2577 24.1095 16.8247 23.6716C16.3918 23.2337 16.3918 22.5237 16.8247 22.0858L18.4322 20.46L16.9039 18.9142C16.4709 18.4763 16.4709 17.7663 16.9039 17.3284C17.3368 16.8905 18.0388 16.8905 18.4718 17.3284L20.0001 18.8742L21.5284 17.3284Z" fill="white"/>
</svg>
