<svg xmlns="http://www.w3.org/2000/svg"><defs><font horiz-adv-x="599"><font-face alphabetic="0" ascent="984" descent="-273" panose-1="2 11 6 9 3 4 3 2 2 4"/><glyph glyph-name="space" horiz-adv-x="600" unicode="&#x20;"/><glyph d="M246 556 243 670H357L354 556 338 244H262L246 556ZM213 78Q213 118 238 142T300 166Q337 166 362 142T387 78Q387 37 362 13T300-12Q263-12 238 12T213 78Z" glyph-name="exclam" horiz-adv-x="600" unicode="&#x21;"/><glyph d="M366 558 363 686H503L500 558 470 327H396L366 558ZM357 558 354 686H494L491 558 461 327H387L357 558Z" glyph-name="quotedbl" horiz-adv-x="600" unicode="&#x26;&#x71;&#x75;&#x6f;&#x74;&#x3b;"/><glyph d="M155 195H78V271H164L180 400H98V476H189L212 650H280L259 476H377L399 650H468L447 476H526V400H438L422 271H506V195H413L389 0H319L343 195H225L202 0H132L155 195ZM352 271 368 400H250L234 271H352Z" glyph-name="numbersign" horiz-adv-x="600" unicode="&#x23;"/><glyph d="M446 470Q411 496 380 510T302 524Q260 524 237 507T213 460Q213 437 235 422T292 394 365 366 439 330 495 279 518 202Q518 138 473 94T345 37V-110H265V35Q213 40 162 61T74 114L126 193Q169 164 213 146T309 128Q357 128 381 146T406 194Q406 220 384 237T327 268 254 297 181 333 125 383 102 458Q102 523 146 564T265 615V746H345V616Q398 610 435 589T504 537L446 470Z" glyph-name="dollar" horiz-adv-x="600" unicode="&#x24;"/><glyph d="M170 316Q139 316 113 327T67 361 37 414 26 484Q26 523 37 553T67 605 112 637 170 648Q201 648 227 637T273 605 303 554 314 484Q314 445 303 414T273 361 228 328 170 316ZM170 380Q196 380 214 404T232 484Q232 540 214 562T170 584Q144 584 126 562T108 484Q108 429 126 405T170 380ZM23 89 208 270 250 231 85 30 23 89ZM579 565 394 384 352 423 517 624 579 565ZM431-12Q400-12 374-1T328 33 298 86 287 156Q287 195 298 225T328 277 373 309 431 320Q462 320 488 309T534 277 564 226 575 156Q575 117 564 86T534 33 489 0 431-12ZM431 52Q457 52 475 76T493 156Q493 212 475 234T431 256Q405 256 387 234T369 156Q369 101 387 77T431 52Z" glyph-name="percent" horiz-adv-x="600" unicode="&#x25;"/><glyph d="M142 179Q142 133 172 105T249 77Q273 77 296 87T340 115Q298 151 261 192T192 279Q170 257 156 233T142 179ZM199 504Q199 461 224 409 259 434 283 461T308 526Q308 552 297 570T257 588Q231 588 215 565T199 504ZM553-12Q487 6 415 56 379 25 335 7T235-12Q188-12 150 2T86 41 46 99 32 172Q32 205 41 231T66 280 102 320 146 355Q126 395 115 432T103 503Q103 537 114 566T145 618 193 653 256 666Q323 666 360 628T398 527Q398 495 387 469T356 421 314 378 265 339Q294 299 329 261T404 191Q450 262 472 361H578Q561 299 537 242T480 134Q508 115 533 102T582 82L553-12Z" glyph-name="ampersand" horiz-adv-x="600" unicode="&#x26;&#x61;&#x6d;&#x70;&#x3b;"/><glyph d="M233 558 230 686H370L367 558 337 327H263L233 558Z" glyph-name="quotesingle" horiz-adv-x="600" unicode="&#x26;&#x61;&#x70;&#x6f;&#x73;&#x3b;"/><glyph d="M412-177Q311-93 253 21T194 278Q194 421 252 535T412 733L476 680Q381 594 337 497T293 278Q293 156 337 59T476-124L412-177V-177Z" glyph-name="parenleft" horiz-adv-x="600" unicode="&#x28;"/><glyph d="M124-124Q219-38 263 59T307 278Q307 400 263 497T124 680L188 733Q289 649 347 535T406 278Q406 135 348 21T188-177L124-124Z" glyph-name="parenright" horiz-adv-x="600" unicode="&#x29;"/><glyph d="M129 138 232 299 74 368 93 427 258 378 268 561H332L342 378 507 427 526 368 368 299 471 138 418 101 300 251 182 101 129 138Z" glyph-name="asterisk" horiz-adv-x="600" unicode="&#x2a;"/><glyph d="M256 288H78V372H256V561H344V372H522V288H344V99H256V288Z" glyph-name="plus" horiz-adv-x="600" unicode="&#x2b;"/><glyph d="M189-146Q316-95 317 8 312 7 303 7 265 7 237 29T209 96Q209 138 237 161T305 185Q359 185 386 145T413 35Q413-57 363-120T219-215L189-146Z" glyph-name="comma" horiz-adv-x="600" unicode="&#x2c;"/><glyph d="M78 372H522V288H78V372Z" glyph-name="hyphen" horiz-adv-x="600" unicode="&#x2d;"/><glyph d="M201 89Q201 133 229 161T300 190Q343 190 371 162T399 89Q399 45 371 17T300-12Q257-12 229 16T201 89Z" glyph-name="period" horiz-adv-x="600" unicode="&#x2e;"/><glyph d="M185-160H86L415 710H514L185-160Z" glyph-name="slash" horiz-adv-x="600" unicode="&#x2f;"/><glyph d="M300-12Q191-12 128 74T64 321Q64 483 127 565T300 648Q409 648 472 566T536 321Q536 160 473 74T300-12ZM300 558Q271 558 247 546T206 505 178 432 168 321Q168 256 178 210T205 134 247 92 300 78Q328 78 352 91T394 134 422 209 432 321Q432 386 422 431T395 505 353 545 300 558ZM300 254Q271 254 251 273T231 325Q231 358 251 377T300 396Q329 396 349 377T369 325Q369 292 349 273T300 254Z" glyph-name="zero" horiz-adv-x="600" unicode="&#x30;"/><glyph d="M533 94V0H90V94H262V512H129V584Q183 593 221 605T293 636H377V94H533Z" glyph-name="one" horiz-adv-x="600" unicode="&#x31;"/><glyph d="M65 67Q140 131 199 184T299 284 363 370 385 447Q385 498 354 527T263 557Q221 557 187 536T123 486L60 550Q106 597 157 622T278 648Q327 648 367 634T435 595 479 533 495 453Q495 411 475 368T419 280 336 188 232 91Q260 93 291 95T348 98H528V0H65V67Z" glyph-name="two" horiz-adv-x="600" unicode="&#x32;"/><glyph d="M104 152Q136 123 178 103T273 82Q332 82 370 107T409 178Q409 203 398 223T363 257 298 278 198 286V370Q249 370 285 377T343 398 376 431 387 472Q387 512 357 534T275 557Q233 557 198 541T130 497L70 568Q114 604 166 626T280 648Q329 648 370 637T440 605 486 552 503 480Q503 426 468 390T374 334V330Q405 322 432 309T480 275 513 229 525 172Q525 128 506 94T453 37 376 1 283-12Q201-12 143 14T50 78L104 152Z" glyph-name="three" horiz-adv-x="600" unicode="&#x33;"/><glyph d="M354 253V405Q355 434 356 468T360 531H355Q339 506 322 481T288 430L154 253H354ZM552 164H462V0H354V164H37V242L329 637H462V253H552V164Z" glyph-name="four" horiz-adv-x="600" unicode="&#x34;"/><glyph d="M104 150Q136 123 175 103T270 82Q330 82 370 114T411 204Q411 261 374 292T275 323Q240 323 215 315T157 287L102 322 122 636H497V539H222L208 385Q233 395 256 400T308 406Q353 406 393 394T462 358 509 296 527 207Q527 155 507 114T453 45 376 3 284-12Q200-12 145 14T51 76L104 150Z" glyph-name="five" horiz-adv-x="600" unicode="&#x35;"/><glyph d="M318 76Q342 76 362 84T399 107 424 145 433 197Q433 254 403 282T318 310Q286 310 250 294T179 236Q190 151 227 114T318 76ZM467 506Q445 527 414 540T348 554Q314 554 284 542T230 502 192 429 175 317Q212 353 256 373T342 394Q385 394 421 382T483 346 525 284 540 197Q540 149 522 111T474 45 403 3 319-12Q269-12 224 6T144 63 89 160 68 299Q68 392 90 458T151 566 237 628 339 648Q402 648 449 627T529 576L467 506Z" glyph-name="six" horiz-adv-x="600" unicode="&#x36;"/><glyph d="M209 0Q213 85 225 155T261 289 321 413 409 539H66V636H536V566Q474 497 435 435T373 307 340 168 326 0H209V0Z" glyph-name="seven" horiz-adv-x="600" unicode="&#x37;"/><glyph d="M166 175Q166 127 204 99T303 70Q361 70 394 95T427 165Q427 192 414 211T377 244 321 269 251 294Q214 272 190 244T166 175ZM348 359Q411 410 411 469 411 511 383 538T302 566Q257 566 229 544T200 479Q200 455 211 437T242 406 289 381 348 359ZM64 163Q64 194 74 219T103 263 144 298 193 326V330Q153 356 126 392T98 479Q98 518 113 549T156 602 221 636 304 648Q399 648 453 601T508 476Q508 431 480 394T413 331V327Q439 314 461 299T500 265 526 220 536 161Q536 124 521 93T475 38 401 1 301-12Q246-12 202 1T128 37 81 92 64 163Z" glyph-name="eight" horiz-adv-x="600" unicode="&#x38;"/><glyph d="M281 326Q314 326 350 343T421 401Q410 485 373 522T282 560Q258 560 237 552T201 529 176 492 166 440Q166 383 196 355T281 326ZM132 130Q155 109 186 96T252 82Q285 82 315 94T369 134 408 207 425 319Q387 284 344 264T258 243Q215 243 179 255T116 291 75 353 60 440Q60 488 78 526T126 592 196 633 280 648Q331 648 376 630T456 573 511 477 531 338Q531 245 509 179T449 71 362 8 261-12Q198-12 150 9T70 60L132 130Z" glyph-name="nine" horiz-adv-x="600" unicode="&#x39;"/><glyph d="M201 429Q201 473 229 501T300 530Q343 530 371 502T399 429Q399 385 371 357T300 328Q257 328 229 356T201 429ZM201 89Q201 133 229 161T300 190Q343 190 371 162T399 89Q399 45 371 17T300-12Q257-12 229 16T201 89Z" glyph-name="colon" horiz-adv-x="600" unicode="&#x3a;"/><glyph d="M201 429Q201 473 229 501T300 530Q343 530 371 502T399 429Q399 385 371 357T300 328Q257 328 229 356T201 429ZM189-146Q316-95 317 8 312 7 303 7 265 7 237 29T209 96Q209 138 237 161T305 185Q359 185 386 145T413 35Q413-57 363-120T219-215L189-146Z" glyph-name="semicolon" horiz-adv-x="600" unicode="&#x3b;"/><glyph d="M118 373 498 625V518L215 334V330L498 146V39L118 291V373Z" glyph-name="less" horiz-adv-x="600" unicode="&#x26;&#x6c;&#x74;&#x3b;"/><glyph d="M78 484H522V400H78V484ZM78 517H522V433H78V517Z" glyph-name="equal" horiz-adv-x="600" unicode="&#x3d;"/><glyph d="M482 291 102 39V146L385 330V334L102 518V625L482 373V291Z" glyph-name="greater" horiz-adv-x="600" unicode="&#x26;&#x67;&#x74;&#x3b;"/><glyph d="M230 244Q224 278 233 305T258 354 295 394 334 431 364 467 377 508Q377 544 353 566T285 588Q250 588 222 574T169 536L104 596Q139 634 186 658T293 682Q335 682 371 672T433 641 473 591 488 522Q488 490 476 465T444 420 404 380 365 341 338 298 331 244H230ZM199 78Q199 118 224 142T286 166Q323 166 348 142T373 78Q373 37 348 13T286-12Q249-12 224 12T199 78Z" glyph-name="question" horiz-adv-x="600" unicode="&#x3f;"/><glyph d="M548 100H484L475 154H471Q451 127 418 108T345 88Q318 88 295 98T254 126 227 169 217 224Q217 302 284 341T474 395V410Q474 442 466 470T440 521 396 555 333 568Q293 568 255 549T188 491 140 392 122 248Q122 169 140 109T188 9 258-52 344-73Q389-73 420-63T480-32L516-91Q475-117 434-131T340-146Q280-146 226-121T131-47 65 78 40 252Q40 351 63 424T127 545 221 616 337 640Q391 640 431 622T497 571 535 494 548 398V100ZM304 226Q304 197 321 181T370 165Q394 165 417 178T463 215V324Q376 311 340 289T304 226Z" glyph-name="at" horiz-adv-x="600" unicode="&#x40;"/><glyph d="M381 268 358 348Q344 400 329 455T300 564H296Q282 509 268 455T238 348L215 268H381ZM407 177H189L138 0H20L232 654H368L580 0H457L407 177Z" glyph-name="A" horiz-adv-x="600" unicode="&#x41;"/><glyph d="M93 654H286Q336 654 378 646T452 619 500 569 518 493Q518 446 490 406T404 351V347Q476 335 513 297T551 192Q551 143 533 107T481 47 402 12 302 0H93V654ZM275 383Q344 383 374 408T404 479Q404 524 373 544T278 564H209V383H275ZM290 90Q362 90 400 117T438 200Q438 300 290 300H209V90H290Z" glyph-name="B" horiz-adv-x="600" unicode="&#x42;"/><glyph d="M60 325Q60 405 83 468T146 576 242 643 363 666Q423 666 470 641T549 584L484 512Q460 536 431 550T363 565Q322 565 288 549T230 502 193 427 179 328Q179 272 192 228T230 153 289 106 366 89Q406 89 437 106T497 154L561 83Q521 37 471 13T359-12Q296-12 242 10T147 75 83 181 60 325Z" glyph-name="C" horiz-adv-x="600" unicode="&#x43;"/><glyph d="M75 654H244Q389 654 470 573T552 330Q552 249 531 187T471 84 376 21 250 0H75V654ZM237 94Q331 94 382 151T433 330Q433 450 382 505T237 560H191V94H237Z" glyph-name="D" horiz-adv-x="600" unicode="&#x44;"/><glyph d="M104 654H522V556H220V389H476V291H220V98H532V0H104V654Z" glyph-name="E" horiz-adv-x="600" unicode="&#x45;"/><glyph d="M121 654H537V556H237V371H492V273H237V0H121V654Z" glyph-name="F" horiz-adv-x="600" unicode="&#x46;"/><glyph d="M48 325Q48 406 70 469T132 576 226 643 345 666Q410 666 455 641T530 584L466 512Q443 535 416 550T345 565Q306 565 274 549T218 502 181 427 168 328Q168 216 213 153T347 89Q373 89 397 96T435 118V259H322V354H540V66Q508 34 456 11T340-12Q278-12 225 10T132 75 71 181 48 325Z" glyph-name="G" horiz-adv-x="600" unicode="&#x47;"/><glyph d="M72 654H188V391H412V654H528V0H412V290H188V0H72V654Z" glyph-name="H" horiz-adv-x="600" unicode="&#x48;"/><glyph d="M84 98H242V556H84V654H516V556H358V98H516V0H84V98Z" glyph-name="I" horiz-adv-x="600" unicode="&#x49;"/><glyph d="M140 167Q168 128 202 108T271 88Q331 88 360 119T389 226V557H124V654H505V216Q505 169 493 128T454 55 383 6 274-12Q247-12 219-6T164 13 113 46 70 96L140 167Z" glyph-name="J" horiz-adv-x="600" unicode="&#x4a;"/><glyph d="M83 654H200V357H203L436 654H565L364 399 587 0H458L295 308 200 191V0H83V654Z" glyph-name="K" horiz-adv-x="600" unicode="&#x4b;"/><glyph d="M120 654H235V98H542V0H120V654Z" glyph-name="L" horiz-adv-x="600" unicode="&#x4c;"/><glyph d="M73 654H193L272 400 300 301H303L330 400 407 654H527V0H432V290Q432 313 433 346T437 414 441 483 446 539H443L396 379 327 176H271L201 379 155 539H152Q154 516 156 483T161 415 165 346 167 290V0H73V654Z" glyph-name="M" horiz-adv-x="600" unicode="&#x4d;"/><glyph d="M74 654H192L367 286 428 147H431Q427 198 421 256T415 370V654H526V0H408L233 369 172 507H169Q173 455 179 398T185 286V0H74V654Z" glyph-name="N" horiz-adv-x="600" unicode="&#x4e;"/><glyph d="M300-12Q243-12 196 11T115 79 62 187 43 330Q43 409 62 471T114 577 195 643 300 666Q357 666 404 643T485 577 538 472 557 330Q557 250 538 187T486 80 405 12 300-12ZM300 89Q331 89 356 106T400 154 428 230 438 330Q438 440 401 502T300 565Q237 565 200 503T162 330Q162 275 171 231T199 155 242 106 300 89Z" glyph-name="O" horiz-adv-x="600" unicode="&#x4f;"/><glyph d="M87 654H307Q361 654 406 644T485 610 537 548 556 452Q556 398 537 358T485 292 406 253 307 240H203V0H87V654ZM298 333Q442 333 442 452 442 514 406 537T298 561H203V333H298Z" glyph-name="P" horiz-adv-x="600" unicode="&#x50;"/><glyph d="M161 330Q161 275 170 230T197 154 240 105 298 88Q329 88 354 105T397 153 424 230 434 330Q434 440 398 503T298 566Q234 566 198 503T161 330ZM567-153Q550-161 529-165T482-170Q390-170 331-124T243-6Q198 4 161 32T98 103 57 203 43 330Q43 409 61 471T113 577 194 643 298 666Q355 666 402 643T482 577 534 472 553 330Q553 195 502 109T365-3Q382-41 417-58T495-76Q510-76 523-73T546-64L567-153Z" glyph-name="Q" horiz-adv-x="600" unicode="&#x51;"/><glyph d="M200 348H290Q358 348 393 376T429 460Q429 517 394 539T290 561H200V348ZM438 0 298 256H200V0H84V654H302Q353 654 397 644T473 612 524 552 543 460Q543 385 508 339T413 273L569 0H438Z" glyph-name="R" horiz-adv-x="600" unicode="&#x52;"/><glyph d="M126 163Q163 130 209 110T304 89Q364 89 395 112T426 173Q426 193 418 207T396 231 361 251 316 269L227 308Q201 318 176 333T131 369 99 418 87 482Q87 521 104 554T151 613 222 652 314 666Q374 666 428 644T524 583L464 509Q431 535 395 550T314 565Q263 565 234 545T204 488Q204 469 213 456T237 432 273 413 316 396L402 359Q433 347 459 331T504 294 533 246 544 182Q544 142 528 107T480 46 404 4 302-12Q233-12 170 13T58 84L126 163Z" glyph-name="S" horiz-adv-x="600" unicode="&#x53;"/><glyph d="M242 556H36V654H564V556H358V0H242V556Z" glyph-name="T" horiz-adv-x="600" unicode="&#x54;"/><glyph d="M72 654H188V241Q188 160 218 125T301 89Q355 89 386 124T417 241V654H528V250Q528 115 469 52T301-12Q194-12 133 52T72 250V654Z" glyph-name="U" horiz-adv-x="600" unicode="&#x55;"/><glyph d="M28 654H151L243 325Q259 269 271 219T301 112H305Q322 169 334 219T362 325L453 654H572L369 0H232L28 654Z" glyph-name="V" horiz-adv-x="600" unicode="&#x56;"/><glyph d="M7 654H124L160 275Q162 233 165 193T170 111H173Q181 153 191 193T211 275L268 487H342L398 275Q406 235 416 194T435 111H439Q441 153 444 194T449 275L483 654H593L504 0H381L323 239Q316 270 311 301T302 361H299Q294 332 289 301T277 239L222 0H101L7 654Z" glyph-name="W" horiz-adv-x="600" unicode="&#x57;"/><glyph d="M228 337 48 654H177L254 509Q266 486 278 462T305 409H309Q322 438 333 462T355 509L429 654H552L372 332 564 0H436L351 154Q337 180 324 205T296 261H292Q278 231 266 206T241 154L159 0H36L228 337Z" glyph-name="X" horiz-adv-x="600" unicode="&#x58;"/><glyph d="M242 227 27 654H150L232 478Q249 440 265 404T299 327H303Q321 367 338 404T372 479L453 654H573L358 227V0H242V227Z" glyph-name="Y" horiz-adv-x="600" unicode="&#x59;"/><glyph d="M61 70 396 557H91V654H539V584L203 98H543V0H61V70Z" glyph-name="Z" horiz-adv-x="600" unicode="&#x5a;"/><glyph d="M213 708H499V645H302V-89H499V-152H213V708Z" glyph-name="bracketleft" horiz-adv-x="600" unicode="&#x5b;"/><glyph d="M86 710H185L514-160H415L86 710Z" glyph-name="backslash" horiz-adv-x="600" unicode="&#x5c;"/><glyph d="M298-89V645H102V708H388V-152H102V-89H298Z" glyph-name="bracketright" horiz-adv-x="600" unicode="&#x5d;"/><glyph d="M252 670H348L502 279H405L349 430 302 565H298L251 430 195 279H98L252 670Z" glyph-name="asciicircum" horiz-adv-x="600" unicode="&#x5e;"/><glyph d="M540-62V-152H60V-62H540Z" glyph-name="underscore" horiz-adv-x="600" unicode="&#x5f;"/><glyph d="M164 731H284L374 573H288L164 731Z" glyph-name="grave" horiz-adv-x="600" unicode="&#x60;"/><glyph d="M71 132Q71 173 90 204T150 258 255 294 410 314Q407 356 380 383T293 410Q251 410 211 395T132 358L90 435Q135 461 193 482T314 503Q417 503 471 449T525 291V0H431L422 61H419Q380 31 333 10T235-12Q199-12 169-2T117 28 83 73 71 132ZM182 141Q182 108 207 93T270 78Q307 78 341 94T410 138V242Q344 237 300 229T230 207 193 178 182 141Z" glyph-name="a" horiz-adv-x="600" unicode="&#x61;"/><glyph d="M82 706H198V524L194 438Q226 468 266 485T346 503Q394 503 431 486T494 436 533 357 547 254Q547 191 529 142T481 58 411 6 329-12Q294-12 256 5T186 54H183L173 0H82V706ZM198 128Q225 103 254 93T306 83Q358 83 393 125T428 252Q428 326 401 367T314 408Q286 408 257 394T198 349V128Z" glyph-name="b" horiz-adv-x="600" unicode="&#x62;"/><glyph d="M73 245Q73 306 95 354T156 435 245 485 352 503Q412 503 457 483T534 434L479 362Q450 385 421 397T358 409Q284 409 238 365T192 245Q192 208 204 178T237 127 289 94 355 82Q397 82 431 98T495 136L543 62Q501 25 449 7T344-12Q286-12 237 5T151 55 94 136 73 245Z" glyph-name="c" horiz-adv-x="600" unicode="&#x63;"/><glyph d="M53 245Q53 305 71 353T119 434 189 485 270 503Q314 503 345 488T407 445L402 528V706H518V0H423L414 57H411Q382 28 344 8T263-12Q216-12 177 5T111 56 68 136 53 245ZM172 246Q172 166 203 125T291 83Q352 83 402 142V363Q376 388 350 398T297 408Q271 408 249 397T209 366 182 315 172 246Z" glyph-name="d" horiz-adv-x="600" unicode="&#x64;"/><glyph d="M62 245Q62 305 83 353T140 434 220 485 314 503Q369 503 411 486T483 438 527 364 542 270Q542 253 541 238T537 214H180Q186 148 232 113T345 77Q383 77 416 87T483 117L522 45Q482 20 433 4T330-12Q274-12 225 5T140 56 83 136 62 245ZM436 292Q436 349 406 381T317 414Q267 414 228 383T179 292H436Z" glyph-name="e" horiz-adv-x="600" unicode="&#x65;"/><glyph d="M558 606Q531 617 506 622T450 627Q393 627 368 600T342 520V491H529V400H342V0H228V400H92V486L228 491V518Q228 561 240 598T277 661 342 703 436 718Q476 718 512 711T582 691L558 606Z" glyph-name="f" horiz-adv-x="600" unicode="&#x66;"/><glyph d="M158-71Q158-104 194-123T300-142Q336-142 365-136T415-118 447-93 458-62Q458-33 433-24T359-14H281Q257-14 239-13T206-6Q180-22 169-38T158-71ZM62-86Q62-57 82-30T140 17V21Q120 32 105 52T90 103Q90 128 106 152T149 196V200Q123 218 105 250T86 326Q86 368 102 401T146 456 210 491 288 503Q332 503 365 491H566V406H451Q464 391 474 370T484 322Q484 281 469 250T428 198 365 167 288 156Q251 156 213 169 183 150 183 124 183 77 276 77H376Q472 77 520 49T569-43Q569-79 549-111T493-166 404-203 286-217Q235-217 194-209T124-185 78-144 62-86ZM288 228Q326 228 354 253T382 326Q382 371 354 397T288 424Q250 424 223 398T195 326Q195 279 222 254T288 228Z" glyph-name="g" horiz-adv-x="600" unicode="&#x67;"/><glyph d="M82 706H198V524L191 419Q225 453 267 478T367 503Q452 503 492 452T532 304V0H416V289Q416 349 396 376T324 404Q288 404 260 387T198 335V0H82V706Z" glyph-name="h" horiz-adv-x="600" unicode="&#x68;"/><glyph d="M84 491H412V0H297V400H84V491ZM346 577Q311 577 288 598T264 654Q264 689 287 710T346 732Q382 732 405 711T428 654Q428 619 405 598T346 577Z" glyph-name="i" horiz-adv-x="600" unicode="&#x69;"/><glyph d="M84 491H412V9Q412-36 402-75T367-143 300-189 195-206Q152-206 116-197T49-173L84-90Q112-103 138-109T189-115Q252-115 274-85T297 3V400H84V491ZM346 577Q311 577 288 598T264 654Q264 689 287 710T346 732Q382 732 405 711T428 654Q428 619 405 598T346 577Z" glyph-name="j" horiz-adv-x="600" unicode="&#x6a;"/><glyph d="M90 706H206V264H210L431 491H559L369 293 580 0H454L300 222 206 128V0H90V706Z" glyph-name="k" horiz-adv-x="600" unicode="&#x6b;"/><glyph d="M71 706H341V173Q341 123 366 103T429 82Q465 82 513 101L540 16Q505 4 475-4T401-12Q314-12 270 38T226 179V615H71V706Z" glyph-name="l" horiz-adv-x="600" unicode="&#x6c;"/><glyph d="M48 491H135L144 428H147Q164 460 188 481T255 503Q327 503 345 421 362 456 388 479T456 503Q508 503 536 463T565 348V0H456V339Q456 404 415 404 395 404 380 389T351 343V0H261V339Q261 404 219 404 199 404 185 389T157 343V0H48V491Z" glyph-name="m" horiz-adv-x="600" unicode="&#x6d;"/><glyph d="M82 491H177L186 417H190Q225 452 267 477T367 503Q452 503 492 452T532 304V0H416V289Q416 349 396 376T324 404Q288 404 260 387T198 335V0H82V491Z" glyph-name="n" horiz-adv-x="600" unicode="&#x6e;"/><glyph d="M53 245Q53 306 73 354T128 435 207 485 300 503Q348 503 393 486T472 435 526 354 547 245Q547 184 527 136T472 55 393 5 300-12Q252-12 207 5T128 55 74 136 53 245ZM172 245Q172 171 206 127T300 82Q360 82 394 126T428 245Q428 320 394 364T300 409Q240 409 206 365T172 245Z" glyph-name="o" horiz-adv-x="600" unicode="&#x6f;"/><glyph d="M198-40V-194H82V491H177L186 435H189Q221 464 262 483T346 503Q394 503 431 486T494 435 533 356 547 253Q547 190 529 141T481 58 411 6 329-12Q295-12 260 3T194 46L198-40ZM198 128Q225 103 253 93T305 83Q358 83 393 125T428 252Q428 326 401 367T314 408Q286 408 257 394T198 349V128Z" glyph-name="p" horiz-adv-x="600" unicode="&#x70;"/><glyph d="M53 245Q53 305 71 353T119 434 189 485 270 503Q313 503 347 487T414 439H417L427 491H518V-194H402V-29L407 53Q378 25 341 7T263-12Q216-12 177 5T111 56 68 136 53 245ZM172 246Q172 166 203 125T291 83Q352 83 402 142V363Q376 388 350 398T297 408Q271 408 249 397T209 366 182 315 172 246Z" glyph-name="q" horiz-adv-x="600" unicode="&#x71;"/><glyph d="M130 491H225L235 380H238Q276 440 329 471T447 503Q477 503 498 499T542 483L518 386Q494 394 476 397T429 401Q378 401 331 372T246 271V0H130V491Z" glyph-name="r" horiz-adv-x="600" unicode="&#x72;"/><glyph d="M116 137Q158 108 203 92T306 75Q364 75 391 91T418 134Q418 160 383 177T273 215Q238 224 205 237T147 267 107 306 92 356Q92 421 148 462T309 503Q369 503 422 483T513 438L460 367Q427 389 390 402T310 416Q253 416 230 401T207 362Q207 349 217 339T246 320 290 303 345 288Q388 277 422 264T481 233 519 193 533 140Q533 108 518 81T474 33 402 0 303-12Q234-12 171 10T62 64L116 137Z" glyph-name="s" horiz-adv-x="600" unicode="&#x73;"/><glyph d="M190 400H59V486L195 491 210 625H305V491H529V400H305V198Q305 137 330 109T418 80Q450 80 476 85T526 100L548 16Q515 5 475-3T390-12Q334-12 296 3T235 45 201 112 190 198V400Z" glyph-name="t" horiz-adv-x="600" unicode="&#x74;"/><glyph d="M515 0H421L412 78H408Q373 37 331 13T234-12Q148-12 109 39T70 187V491H185V202Q185 142 205 115T277 87Q312 87 339 103T400 160V491H515V0Z" glyph-name="u" horiz-adv-x="600" unicode="&#x75;"/><glyph d="M41 491H157L252 236Q266 199 277 163T301 88H305Q317 126 328 162T354 236L449 491H559L368 0H237L41 491Z" glyph-name="v" horiz-adv-x="600" unicode="&#x76;"/><glyph d="M6 491H120L165 236Q171 201 175 166T185 95H189Q194 131 200 166T214 236L260 443H346L392 236Q400 201 406 166T419 95H423Q429 131 433 166T443 236L488 491H594L503 0H368L325 205Q319 240 314 275T302 348H298Q293 319 289 286T276 204L234 0H101L6 491Z" glyph-name="w" horiz-adv-x="600" unicode="&#x77;"/><glyph d="M229 255 63 491H188L252 398Q264 378 278 357T306 314H310Q321 335 334 357T358 399L416 491H537L370 243 549 0H424L353 97Q339 117 324 140T293 184H289Q275 162 263 141T236 96L172 0H51L229 255Z" glyph-name="x" horiz-adv-x="600" unicode="&#x78;"/><glyph d="M89-102Q99-105 109-107T130-109Q177-109 205-86T248-25L260 6 40 491H155L256 250Q270 217 283 180T310 106H314Q325 141 338 178T363 250L452 491H561L356-22Q340-64 321-97T275-153 215-189 137-202Q117-202 99-200T67-192L89-102V-102Z" glyph-name="y" horiz-adv-x="600" unicode="&#x79;"/><glyph d="M71 62 366 400H105V491H528V430L232 92H537V0H71V62Z" glyph-name="z" horiz-adv-x="600" unicode="&#x7a;"/><glyph d="M244-14Q244 13 245 35T249 79 252 121 254 168Q254 181 248 194T226 218 183 236 113 243V313Q155 313 182 320T226 337 248 361 254 388Q254 435 249 476T244 570Q244 610 255 636T289 679 347 701 430 708H499V645H453Q418 645 396 641T362 628 345 603 340 565Q340 523 342 481T345 393Q345 340 324 315T250 280V276Q303 267 324 242T345 163Q345 115 343 75T340-9Q340-32 344-47T361-71 396-85 453-89H499V-152H430Q382-152 347-146T289-123 255-81 244-14Z" glyph-name="braceleft" horiz-adv-x="600" unicode="&#x7b;"/><glyph d="M249 750H351V-250H249V750Z" glyph-name="bar" horiz-adv-x="600" unicode="&#x7c;"/><glyph d="M148-89Q182-89 204-85T239-72 256-47 261-9Q261 35 259 75T256 163Q256 216 276 241T351 276V280Q297 289 277 314T256 393Q256 439 258 481T261 565Q261 587 257 602T239 627 204 641 148 645H102V708H171Q219 708 253 702T311 679 345 637 356 570Q356 518 351 477T346 388Q346 374 352 361T374 338 417 320 487 313V243Q445 243 418 236T374 219 352 195 346 168Q346 143 347 122T351 79 354 36 356-14Q356-54 345-80T311-123 254-145 171-152H102V-89H148Z" glyph-name="braceright" horiz-adv-x="600" unicode="&#x7d;"/><glyph d="M64 276Q93 351 132 381T214 412Q244 412 267 400T310 372 348 345 388 332Q411 332 430 350T466 416L536 383Q507 309 468 279T386 248Q356 248 333 260T290 288 252 315 212 328Q189 328 170 310T134 244L64 276Z" glyph-name="asciitilde" horiz-adv-x="600" unicode="&#x7e;"/><glyph glyph-name="uni00A0" horiz-adv-x="600" unicode="&#xa0;"/><glyph d="M354-65 357-179H243L246-65 262 247H338L354-65ZM387 413Q387 373 362 349T300 325Q263 325 238 349T213 413Q213 454 238 478T300 503Q337 503 362 479T387 413Z" glyph-name="exclamdown" horiz-adv-x="600" unicode="&#xa1;"/><glyph d="M312 455Q266 440 242 402T217 308Q217 252 241 214T312 162V455ZM515 123Q486 97 451 82T379 62V-37H312V62Q218 74 161 137T104 308Q104 360 120 402T163 476 229 526 312 553V654H379V556Q420 554 451 538T506 499L452 428Q417 459 379 463V155Q405 158 427 170T467 196L515 123Z" glyph-name="cent" horiz-adv-x="600" unicode="&#xa2;"/><glyph d="M541 98V0H73V71Q130 95 161 138T193 237Q193 248 192 257T188 278H74V347L164 352Q154 378 147 403T139 454Q139 499 155 535T200 596 269 634 359 648Q420 648 464 627T540 570L476 507Q454 529 429 541T368 554Q311 554 280 527T249 448Q249 423 255 400T270 352H449V278H290Q294 259 294 236 294 191 278 161T230 102V98H541Z" glyph-name="sterling" horiz-adv-x="600" unicode="&#xa3;"/><glyph d="M47 133 129 216Q112 239 103 267T94 329Q94 363 103 391T128 443L47 526 106 586 194 496Q242 527 300 527 358 527 406 496L494 586 553 526 471 443Q488 420 497 392T506 329Q506 296 497 268T470 216L553 133 494 73 405 163Q382 147 355 140T300 132Q241 132 194 163L106 73 47 133ZM198 329Q198 277 228 246T300 214Q342 214 372 245T402 329Q402 382 372 413T300 445Q258 445 228 414T198 329Z" glyph-name="currency" horiz-adv-x="600" unicode="&#xa4;"/><glyph d="M160 636 236 485Q253 452 267 419T299 352H303Q320 386 335 419T367 485L443 636H558L384 330H533V271H357V212H533V152H357V0H242V152H67V212H242V271H67V330H215L42 636H160Z" glyph-name="yen" horiz-adv-x="600" unicode="&#xa5;"/><glyph d="M249 750H351V302H249V750ZM351 209V-250H249V209H351Z" glyph-name="brokenbar" horiz-adv-x="600" unicode="&#xa6;"/><glyph d="M179 342Q179 314 197 295T244 261 306 233 370 202Q396 215 408 232T421 275Q421 303 403 322T357 357 296 385 231 415Q206 402 193 385T179 342ZM420 553Q395 573 367 586T308 600Q273 600 258 586T242 550Q242 527 262 512T314 482 380 452 447 414 498 361 519 284Q519 238 496 207T432 152Q444 136 451 117T458 73Q458 41 446 15T412-32 356-63 282-74Q226-74 177-54T94 4L162 64Q188 39 217 26T282 12Q317 12 335 28T354 68Q354 92 334 108T284 138 218 167 152 203 101 256 81 334Q81 375 105 408T167 463Q137 496 137 545 137 575 148 601T180 646 231 676 302 687Q356 687 399 668T474 626L420 553Z" glyph-name="section" horiz-adv-x="600" unicode="&#xa7;"/><glyph d="M197 579Q168 579 150 598T131 646Q131 675 149 694T197 714Q226 714 245 695T264 646Q264 617 245 598T197 579ZM403 579Q374 579 355 598T336 646Q336 675 355 694T403 714Q432 714 450 695T469 646Q469 617 451 598T403 579Z" glyph-name="dieresis" horiz-adv-x="600" unicode="&#xa8;"/><glyph d="M24 324Q24 401 45 462T104 566 192 631 300 654Q357 654 407 632T495 567 554 463 576 324Q576 247 555 186T496 81 408 14 300-10Q243-10 193 13T105 80 46 185 24 324ZM80 324Q80 261 96 209T140 120 209 63 300 42Q349 42 390 62T459 120 504 209 520 324Q520 388 504 439T460 527 390 583 300 603Q250 603 210 584T141 528 96 440 80 324ZM142 323Q142 367 156 402T193 462 247 500 311 514Q349 514 374 500T420 466L375 416Q361 429 348 436T318 443Q276 443 253 409T229 323Q229 265 252 231T313 197Q336 197 351 205T384 226L422 170Q399 151 372 139T310 126Q274 126 244 139T191 178 155 240 142 323Z" glyph-name="copyright" horiz-adv-x="600" unicode="&#xa9;"/><glyph d="M161 348Q161 401 209 429T364 469Q362 494 348 510T300 527Q276 527 252 518T204 495L173 551Q202 568 239 580T316 593Q380 593 414 557T448 451V260H379L373 295H371Q348 277 321 265T264 252Q219 252 190 279T161 348ZM242 355Q242 335 256 326T290 317Q310 317 328 325T364 349V417Q296 409 269 394T242 355Z" glyph-name="ordfeminine" horiz-adv-x="600" unicode="&#xaa;"/><glyph d="M319 195V309L481 466 532 420 405 252 532 83 481 38 319 195ZM310 195V309L472 466 523 420 396 252 523 83 472 38 310 195Z" glyph-name="guillemotleft" horiz-adv-x="600" unicode="&#xab;"/><glyph d="M78 372H522V99H435V288H78V372Z" glyph-name="logicalnot" horiz-adv-x="600" unicode="&#xac;"/><glyph d="M78 372H522V288H78V372Z" glyph-name="uni00AD" horiz-adv-x="600" unicode="&#xad;"/><glyph d="M299 315Q259 315 224 329T163 370 121 433 106 514Q106 558 121 595T162 658 224 699 299 714Q339 714 374 700T436 659 477 595 493 514Q493 470 478 434T436 371 375 330 299 315ZM299 358Q330 358 357 369T403 401 434 450 445 514Q445 549 434 578T404 628 357 660 299 672Q267 672 241 661T195 628 164 578 153 514Q153 479 164 451T194 402 240 370 299 358ZM223 616H305Q338 616 361 601T385 551Q385 534 376 519T349 496L393 417H339L307 482H272V417H223V616ZM295 518Q313 518 322 526T332 548Q332 561 324 569T297 578H272V518H295Z" glyph-name="registered" horiz-adv-x="600" unicode="&#xae;"/><glyph d="M170 672H430V596H170V672Z" glyph-name="overscore" horiz-adv-x="600" unicode="&#xaf;"/><glyph d="M301 413Q273 413 249 423T206 451 176 494 165 549Q165 579 176 604T205 647 248 675 301 685Q329 685 353 675T396 647 425 604 436 549Q436 519 426 494T397 451 354 423 301 413ZM301 472Q333 472 352 493T372 549Q372 584 353 605T301 627Q269 627 249 606T229 549Q229 515 249 494T301 472Z" glyph-name="degree" horiz-adv-x="600" unicode="&#xb0;"/><glyph d="M256 299H78V382H256V561H344V382H522V299H344V143H256V299ZM78 83H522V0H78V83Z" glyph-name="plusminus" horiz-adv-x="600" unicode="&#xb1;"/><glyph d="M178 486Q248 536 290 574T332 641Q332 664 319 677T279 691Q244 691 216 653L165 698Q191 725 222 742T291 760Q348 760 381 733T414 655Q414 636 406 618T385 582 353 546 314 510H428V440H178V486Z" glyph-name="two.sups" horiz-adv-x="600" unicode="&#xb2;"/><glyph d="M205 529Q221 514 244 503T292 492Q314 492 328 501T343 530Q343 552 323 562T259 573V620Q330 620 330 662 330 677 318 686T283 696Q266 696 247 688T213 667L177 717Q198 737 230 748T301 760Q349 760 381 737T414 674Q414 646 401 629T359 601Q427 584 427 524 427 502 417 485T390 455 349 435 300 428Q267 428 233 439T168 476L205 529Z" glyph-name="three.sups" horiz-adv-x="600" unicode="&#xb3;"/><glyph d="M312 573H226L316 731H436L312 573Z" glyph-name="acute" horiz-adv-x="600" unicode="&#xb4;"/><glyph d="M70 491H185V202Q185 142 206 115T274 87Q308 87 338 105T400 180V491H516Q514 445 513 396T511 297 509 203 508 120Q508 99 517 91T540 82Q544 82 547 82T558 84L572-2Q549-12 512-12 468-12 445 13T412 90H409Q383 41 348 17T270-8Q242-8 218-1T177 30Q177-4 178-32T180-85 182-137 186-192H70V491Z" glyph-name="uni00B5" horiz-adv-x="600" unicode="&#xb5;"/><glyph d="M392 654H506V-80H392V654ZM339 212H303Q252 212 208 225T131 267 79 337 60 436Q60 497 78 538T128 605 203 642 296 654H339V212Z" glyph-name="paragraph" horiz-adv-x="600" unicode="&#xb6;"/><glyph d="M201 350Q201 394 229 422T300 451Q343 451 371 423T399 350Q399 306 371 278T300 249Q257 249 229 277T201 350Z" glyph-name="middot" horiz-adv-x="600" unicode="&#xb7;"/><glyph d="M275 3H345L322-46Q347-55 364-71T381-119Q381-143 368-160T333-189 281-208 220-217L210-167Q248-162 272-152T296-121Q296-105 282-94T235-75L275 3Z" glyph-name="cedilla" horiz-adv-x="600" unicode="&#xb8;"/><glyph d="M283 661H202V714Q220 717 233 720T258 727 280 736 302 748H369V440H283V661Z" glyph-name="one.sups" horiz-adv-x="600" unicode="&#xb9;"/><glyph d="M137 422Q137 463 150 495T186 548 238 581 300 593Q332 593 361 582T413 549 449 495 463 422Q463 382 450 351T414 297 362 264 300 252Q268 252 239 263T187 297 151 350 137 422ZM224 422Q224 376 243 348T300 320Q338 320 357 348T376 422Q376 469 357 497T300 526Q263 526 244 498T224 422Z" glyph-name="ordmasculine" horiz-adv-x="600" unicode="&#xba;"/><glyph d="M461 252 334 420 385 466 547 309V195L385 38 334 83 461 252ZM452 252 325 420 376 466 538 309V195L376 38 325 83 452 252Z" glyph-name="guillemotright" horiz-adv-x="600" unicode="&#xbb;"/><glyph d="M154 549H73V602Q91 605 104 608T129 615 151 624 173 636H240V328H154V549ZM22 89 207 270 249 231 84 30 22 89ZM578 565 393 384 351 423 516 624 578 565ZM457 121V160L462 251H459L420 188 376 121H457ZM584 67H533V0H457V67H296V108L430 308H533V121H584V67Z" glyph-name="onequarter" horiz-adv-x="600" unicode="&#xbc;"/><glyph d="M154 549H73V602Q91 605 104 608T129 615 151 624 173 636H240V328H154V549ZM22 89 207 270 249 231 84 30 22 89ZM578 565 393 384 351 423 516 624 578 565ZM309 46Q379 96 421 134T463 201Q463 224 450 237T410 251Q375 251 347 213L296 258Q322 285 353 302T422 320Q479 320 512 293T545 215Q545 196 537 178T516 142 484 106 445 70H559V0H309V46Z" glyph-name="onehalf" horiz-adv-x="600" unicode="&#xbd;"/><glyph d="M75 417Q91 402 114 391T162 380Q184 380 198 389T213 418Q213 440 193 450T129 461V508Q200 508 200 550 200 565 188 574T153 584Q136 584 117 576T83 555L47 605Q68 625 100 636T171 648Q219 648 251 625T284 562Q284 534 271 517T229 489Q297 472 297 412 297 390 287 373T260 343 219 323 170 316Q137 316 103 327T38 364L75 417ZM38 89 223 270 265 231 100 30 38 89ZM594 565 409 384 367 423 532 624 594 565ZM458 121V160L463 251H460L421 188 377 121H458ZM585 67H534V0H458V67H297V108L431 308H534V121H585V67Z" glyph-name="threequarters" horiz-adv-x="600" unicode="&#xbe;"/><glyph d="M371 247Q377 213 368 186T343 137 306 97 267 60 237 24 224-17Q224-53 248-75T316-97Q351-97 379-83T432-45L497-105Q462-143 415-167T308-191Q266-191 230-181T168-150 128-100 113-31Q113 2 125 26T157 72 197 111 236 150 263 193 270 247H371ZM402 413Q402 373 377 349T315 325Q278 325 253 349T228 413Q228 454 253 478T315 503Q352 503 377 479T402 413Z" glyph-name="questiondown" horiz-adv-x="600" unicode="&#xbf;"/><glyph d="M381 268 358 348Q344 400 329 455T300 564H296Q282 509 268 455T238 348L215 268H381ZM407 177H189L138 0H20L232 654H368L580 0H457L407 177ZM153 820H279L363 704H270L153 820Z" glyph-name="Agrave" horiz-adv-x="600" unicode="&#xc0;"/><glyph d="M381 268 358 348Q344 400 329 455T300 564H296Q282 509 268 455T238 348L215 268H381ZM407 177H189L138 0H20L232 654H368L580 0H457L407 177ZM330 704H237L321 820H447L330 704Z" glyph-name="Aacute" horiz-adv-x="600" unicode="&#xc1;"/><glyph d="M381 268 358 348Q344 400 329 455T300 564H296Q282 509 268 455T238 348L215 268H381ZM407 177H189L138 0H20L232 654H368L580 0H457L407 177ZM148 704 244 820H356L452 704H362L302 768H298L238 704H148Z" glyph-name="Acircumflex" horiz-adv-x="600" unicode="&#xc2;"/><glyph d="M381 268 358 348Q344 400 329 455T300 564H296Q282 509 268 455T238 348L215 268H381ZM407 177H189L138 0H20L232 654H368L580 0H457L407 177ZM362 707Q342 707 326 714T295 731 268 748 242 756Q228 756 218 744T203 707H142Q148 765 174 797T238 829Q258 829 274 822T305 805 332 789 358 781Q372 781 382 792T397 829H458Q452 772 426 740T362 707Z" glyph-name="Atilde" horiz-adv-x="600" unicode="&#xc3;"/><glyph d="M381 268 358 348Q344 400 329 455T300 564H296Q282 509 268 455T238 348L215 268H381ZM407 177H189L138 0H20L232 654H368L580 0H457L407 177ZM207 708Q181 708 165 724T148 767Q148 793 164 810T207 827Q233 827 250 810T267 767Q267 741 250 725T207 708ZM393 708Q367 708 350 724T333 767Q333 793 350 810T393 827Q419 827 435 810T452 767Q452 741 436 725T393 708Z" glyph-name="Adieresis" horiz-adv-x="600" unicode="&#xc4;"/><glyph d="M381 268 358 348Q344 400 329 455T300 564H296Q282 509 268 455T238 348L215 268H381ZM407 177H189L138 0H20L232 654H368L580 0H457L407 177ZM300 698Q254 698 226 723T197 791Q197 833 225 858T300 884Q345 884 374 859T403 791Q403 748 374 723T300 698ZM300 744Q318 744 331 756T344 791Q344 813 331 825T300 838Q281 838 269 826T256 791Q256 768 268 756T300 744Z" glyph-name="Aring" horiz-adv-x="600" unicode="&#xc5;"/><glyph d="M314 261V565H311Q294 514 277 464T243 366L207 261H314ZM593 98V0H314V170H176L118 0H-2L232 654H584V556H418V390H550V292H418V98H593Z" glyph-name="AE" horiz-adv-x="600" unicode="&#xc6;"/><glyph d="M60 325Q60 405 83 468T146 576 242 643 363 666Q423 666 470 641T549 584L484 512Q460 536 431 550T363 565Q322 565 288 549T230 502 193 427 179 328Q179 272 192 228T230 153 289 106 366 89Q406 89 437 106T497 154L561 83Q521 37 471 13T359-12Q296-12 242 10T147 75 83 181 60 325ZM315 3H385L362-46Q387-55 404-71T421-119Q421-143 408-160T373-189 321-208 259-217L250-167Q288-162 311-152T335-121Q335-105 321-94T275-75L315 3Z" glyph-name="Ccedilla" horiz-adv-x="600" unicode="&#xc7;"/><glyph d="M104 654H522V556H220V389H476V291H220V98H532V0H104V654ZM179 820H305L389 704H296L179 820Z" glyph-name="Egrave" horiz-adv-x="600" unicode="&#xc8;"/><glyph d="M104 654H522V556H220V389H476V291H220V98H532V0H104V654ZM356 704H263L347 820H473L356 704Z" glyph-name="Eacute" horiz-adv-x="600" unicode="&#xc9;"/><glyph d="M104 654H522V556H220V389H476V291H220V98H532V0H104V654ZM174 704 270 820H382L478 704H388L328 768H324L264 704H174Z" glyph-name="Ecircumflex" horiz-adv-x="600" unicode="&#xca;"/><glyph d="M104 654H522V556H220V389H476V291H220V98H532V0H104V654ZM233 708Q207 708 191 724T174 767Q174 793 190 810T233 827Q259 827 276 810T293 767Q293 741 276 725T233 708ZM419 708Q393 708 376 724T359 767Q359 793 376 810T419 827Q445 827 461 810T478 767Q478 741 462 725T419 708Z" glyph-name="Edieresis" horiz-adv-x="600" unicode="&#xcb;"/><glyph d="M84 98H242V556H84V654H516V556H358V98H516V0H84V98ZM153 820H279L363 704H270L153 820Z" glyph-name="Igrave" horiz-adv-x="600" unicode="&#xcc;"/><glyph d="M84 98H242V556H84V654H516V556H358V98H516V0H84V98ZM330 704H237L321 820H447L330 704Z" glyph-name="Iacute" horiz-adv-x="600" unicode="&#xcd;"/><glyph d="M84 98H242V556H84V654H516V556H358V98H516V0H84V98ZM148 704 244 820H356L452 704H362L302 768H298L238 704H148Z" glyph-name="Icircumflex" horiz-adv-x="600" unicode="&#xce;"/><glyph d="M84 98H242V556H84V654H516V556H358V98H516V0H84V98ZM207 708Q181 708 165 724T148 767Q148 793 164 810T207 827Q233 827 250 810T267 767Q267 741 250 725T207 708ZM393 708Q367 708 350 724T333 767Q333 793 350 810T393 827Q419 827 435 810T452 767Q452 741 436 725T393 708Z" glyph-name="Idieresis" horiz-adv-x="600" unicode="&#xcf;"/><glyph d="M81 311H9V365L81 370V654H250Q394 654 476 573T558 330Q558 249 537 187T477 84 382 21 256 0H81V311ZM243 94Q337 94 388 151T439 330Q439 450 388 505T243 560H197V370H322V311H197V94H243Z" glyph-name="Eth" horiz-adv-x="600" unicode="&#xd0;"/><glyph d="M74 654H192L367 286 428 147H431Q427 198 421 256T415 370V654H526V0H408L233 369 172 507H169Q173 455 179 398T185 286V0H74V654ZM368 707Q348 707 332 714T301 731 274 748 248 756Q234 756 224 744T209 707H148Q154 765 180 797T244 829Q264 829 280 822T311 805 338 789 364 781Q378 781 388 792T403 829H464Q458 772 432 740T368 707Z" glyph-name="Ntilde" horiz-adv-x="600" unicode="&#xd1;"/><glyph d="M300-12Q243-12 196 11T115 79 62 187 43 330Q43 409 62 471T114 577 195 643 300 666Q357 666 404 643T485 577 538 472 557 330Q557 250 538 187T486 80 405 12 300-12ZM300 89Q331 89 356 106T400 154 428 230 438 330Q438 440 401 502T300 565Q237 565 200 503T162 330Q162 275 171 231T199 155 242 106 300 89ZM153 820H279L363 704H270L153 820Z" glyph-name="Ograve" horiz-adv-x="600" unicode="&#xd2;"/><glyph d="M300-12Q243-12 196 11T115 79 62 187 43 330Q43 409 62 471T114 577 195 643 300 666Q357 666 404 643T485 577 538 472 557 330Q557 250 538 187T486 80 405 12 300-12ZM300 89Q331 89 356 106T400 154 428 230 438 330Q438 440 401 502T300 565Q237 565 200 503T162 330Q162 275 171 231T199 155 242 106 300 89ZM330 704H237L321 820H447L330 704Z" glyph-name="Oacute" horiz-adv-x="600" unicode="&#xd3;"/><glyph d="M300-12Q243-12 196 11T115 79 62 187 43 330Q43 409 62 471T114 577 195 643 300 666Q357 666 404 643T485 577 538 472 557 330Q557 250 538 187T486 80 405 12 300-12ZM300 89Q331 89 356 106T400 154 428 230 438 330Q438 440 401 502T300 565Q237 565 200 503T162 330Q162 275 171 231T199 155 242 106 300 89ZM148 704 244 820H356L452 704H362L302 768H298L238 704H148Z" glyph-name="Ocircumflex" horiz-adv-x="600" unicode="&#xd4;"/><glyph d="M300-12Q243-12 196 11T115 79 62 187 43 330Q43 409 62 471T114 577 195 643 300 666Q357 666 404 643T485 577 538 472 557 330Q557 250 538 187T486 80 405 12 300-12ZM300 89Q331 89 356 106T400 154 428 230 438 330Q438 440 401 502T300 565Q237 565 200 503T162 330Q162 275 171 231T199 155 242 106 300 89ZM362 707Q342 707 326 714T295 731 268 748 242 756Q228 756 218 744T203 707H142Q148 765 174 797T238 829Q258 829 274 822T305 805 332 789 358 781Q372 781 382 792T397 829H458Q452 772 426 740T362 707Z" glyph-name="Otilde" horiz-adv-x="600" unicode="&#xd5;"/><glyph d="M300-12Q243-12 196 11T115 79 62 187 43 330Q43 409 62 471T114 577 195 643 300 666Q357 666 404 643T485 577 538 472 557 330Q557 250 538 187T486 80 405 12 300-12ZM300 89Q331 89 356 106T400 154 428 230 438 330Q438 440 401 502T300 565Q237 565 200 503T162 330Q162 275 171 231T199 155 242 106 300 89ZM207 708Q181 708 165 724T148 767Q148 793 164 810T207 827Q233 827 250 810T267 767Q267 741 250 725T207 708ZM393 708Q367 708 350 724T333 767Q333 793 350 810T393 827Q419 827 435 810T452 767Q452 741 436 725T393 708Z" glyph-name="Odieresis" horiz-adv-x="600" unicode="&#xd6;"/><glyph d="M93 179 241 329 93 480 152 540 300 388 448 540 507 480 359 329 507 179 448 119 300 270 152 119 93 179Z" glyph-name="multiply" horiz-adv-x="600" unicode="&#xd7;"/><glyph d="M215 132Q249 89 300 89 331 89 356 106T400 154 428 230 438 330Q438 392 426 440L215 132ZM389 520Q353 565 300 565 237 565 200 503T162 330Q162 261 177 209L389 520ZM503 553Q529 511 543 455T557 330Q557 250 538 187T486 80 405 12 300-12Q215-12 152 40L100-36 38 6 101 99Q73 142 58 200T43 330Q43 409 62 471T114 577 195 643 300 666Q389 666 452 612L505 690 568 648 503 553Z" glyph-name="Oslash" horiz-adv-x="600" unicode="&#xd8;"/><glyph d="M72 654H188V241Q188 160 218 125T301 89Q355 89 386 124T417 241V654H528V250Q528 115 469 52T301-12Q194-12 133 52T72 250V654ZM153 820H279L363 704H270L153 820Z" glyph-name="Ugrave" horiz-adv-x="600" unicode="&#xd9;"/><glyph d="M72 654H188V241Q188 160 218 125T301 89Q355 89 386 124T417 241V654H528V250Q528 115 469 52T301-12Q194-12 133 52T72 250V654ZM330 704H237L321 820H447L330 704Z" glyph-name="Uacute" horiz-adv-x="600" unicode="&#xda;"/><glyph d="M72 654H188V241Q188 160 218 125T301 89Q355 89 386 124T417 241V654H528V250Q528 115 469 52T301-12Q194-12 133 52T72 250V654ZM148 704 244 820H356L452 704H362L302 768H298L238 704H148Z" glyph-name="Ucircumflex" horiz-adv-x="600" unicode="&#xdb;"/><glyph d="M72 654H188V241Q188 160 218 125T301 89Q355 89 386 124T417 241V654H528V250Q528 115 469 52T301-12Q194-12 133 52T72 250V654ZM207 708Q181 708 165 724T148 767Q148 793 164 810T207 827Q233 827 250 810T267 767Q267 741 250 725T207 708ZM393 708Q367 708 350 724T333 767Q333 793 350 810T393 827Q419 827 435 810T452 767Q452 741 436 725T393 708Z" glyph-name="Udieresis" horiz-adv-x="600" unicode="&#xdc;"/><glyph d="M242 227 27 654H150L232 478Q249 440 265 404T299 327H303Q321 367 338 404T372 479L453 654H573L358 227V0H242V227ZM330 704H237L321 820H447L330 704Z" glyph-name="Yacute" horiz-adv-x="600" unicode="&#xdd;"/><glyph d="M87 654H203V550H307Q361 550 406 540T485 506 537 444 556 348Q556 293 537 253T485 187 406 149 307 136H203V0H87V654ZM297 229Q371 229 406 258T441 348Q441 409 405 433T297 457H203V229H297Z" glyph-name="Thorn" horiz-adv-x="600" unicode="&#xde;"/><glyph d="M74 507Q74 553 88 592T129 659 196 702 288 718Q332 718 365 705T421 670 454 620 465 560Q465 523 454 498T428 452 402 412 390 371Q390 351 403 337T436 310 479 284 522 253 555 208 568 144Q568 111 557 83T523 33 470 0 399-12Q357-12 324-2T258 29L299 108Q324 91 347 83T395 75Q426 75 443 92T460 135Q460 159 447 175T414 204 371 231 328 260 295 300 282 357Q282 389 293 412T319 456 345 500 357 553Q357 585 339 606T287 627Q239 627 214 593T189 496V0H74V507Z" glyph-name="germandbls" horiz-adv-x="600" unicode="&#xdf;"/><glyph d="M71 132Q71 173 90 204T150 258 255 294 410 314Q407 356 380 383T293 410Q251 410 211 395T132 358L90 435Q135 461 193 482T314 503Q417 503 471 449T525 291V0H431L422 61H419Q380 31 333 10T235-12Q199-12 169-2T117 28 83 73 71 132ZM182 141Q182 108 207 93T270 78Q307 78 341 94T410 138V242Q344 237 300 229T230 207 193 178 182 141ZM175 731H295L385 573H299L175 731Z" glyph-name="agrave" horiz-adv-x="600" unicode="&#xe0;"/><glyph d="M71 132Q71 173 90 204T150 258 255 294 410 314Q407 356 380 383T293 410Q251 410 211 395T132 358L90 435Q135 461 193 482T314 503Q417 503 471 449T525 291V0H431L422 61H419Q380 31 333 10T235-12Q199-12 169-2T117 28 83 73 71 132ZM182 141Q182 108 207 93T270 78Q307 78 341 94T410 138V242Q344 237 300 229T230 207 193 178 182 141ZM323 573H237L327 731H447L323 573Z" glyph-name="aacute" horiz-adv-x="600" unicode="&#xe1;"/><glyph d="M71 132Q71 173 90 204T150 258 255 294 410 314Q407 356 380 383T293 410Q251 410 211 395T132 358L90 435Q135 461 193 482T314 503Q417 503 471 449T525 291V0H431L422 61H419Q380 31 333 10T235-12Q199-12 169-2T117 28 83 73 71 132ZM182 141Q182 108 207 93T270 78Q307 78 341 94T410 138V242Q344 237 300 229T230 207 193 178 182 141ZM262 731H360L459 573H373L313 670H309L249 573H163L262 731Z" glyph-name="acircumflex" horiz-adv-x="600" unicode="&#xe2;"/><glyph d="M71 132Q71 173 90 204T150 258 255 294 410 314Q407 356 380 383T293 410Q251 410 211 395T132 358L90 435Q135 461 193 482T314 503Q417 503 471 449T525 291V0H431L422 61H419Q380 31 333 10T235-12Q199-12 169-2T117 28 83 73 71 132ZM182 141Q182 108 207 93T270 78Q307 78 341 94T410 138V242Q344 237 300 229T230 207 193 178 182 141ZM155 577Q162 637 188 670T257 704Q275 704 290 696T318 677 342 659 365 650Q381 650 391 662T406 704H467Q460 644 434 611T365 577Q347 577 332 585T304 604 280 622 257 631Q241 631 231 619T216 577H155V577Z" glyph-name="atilde" horiz-adv-x="600" unicode="&#xe3;"/><glyph d="M71 132Q71 173 90 204T150 258 255 294 410 314Q407 356 380 383T293 410Q251 410 211 395T132 358L90 435Q135 461 193 482T314 503Q417 503 471 449T525 291V0H431L422 61H419Q380 31 333 10T235-12Q199-12 169-2T117 28 83 73 71 132ZM182 141Q182 108 207 93T270 78Q307 78 341 94T410 138V242Q344 237 300 229T230 207 193 178 182 141ZM208 579Q179 579 161 598T142 646Q142 675 160 694T208 714Q237 714 256 695T275 646Q275 617 256 598T208 579ZM414 579Q385 579 366 598T347 646Q347 675 366 694T414 714Q443 714 461 695T480 646Q480 617 462 598T414 579Z" glyph-name="adieresis" horiz-adv-x="600" unicode="&#xe4;"/><glyph d="M71 132Q71 173 90 204T150 258 255 294 410 314Q407 356 380 383T293 410Q251 410 211 395T132 358L90 435Q135 461 193 482T314 503Q417 503 471 449T525 291V0H431L422 61H419Q380 31 333 10T235-12Q199-12 169-2T117 28 83 73 71 132ZM182 141Q182 108 207 93T270 78Q307 78 341 94T410 138V242Q344 237 300 229T230 207 193 178 182 141ZM311 545Q265 545 237 571T208 642Q208 687 236 713T311 740Q357 740 385 714T414 642Q414 598 386 572T311 545ZM311 591Q330 591 342 605T355 642Q355 665 343 679T311 694Q292 694 280 680T267 642Q267 619 279 605T311 591Z" glyph-name="aring" horiz-adv-x="600" unicode="&#xe5;"/><glyph d="M16 134Q16 209 75 251T253 314Q251 359 235 385T181 411Q158 411 128 400T73 373L31 450Q67 472 107 487T191 503Q237 503 265 480T309 418Q334 460 366 481T444 503Q481 503 509 485T557 435 585 361 595 272Q595 255 594 240T590 214H347Q353 151 379 115T454 79Q478 79 499 86T540 108L580 33Q553 13 519 1T450-12Q396-12 360 10T300 72Q259 30 223 9T150-12Q87-12 52 28T16 134ZM502 287Q502 313 499 336T487 376 466 404 433 414Q398 414 375 382T346 287H502ZM121 142Q121 110 137 94T180 78Q200 78 224 91T268 130Q261 150 258 173T253 219L252 242Q182 229 152 204T121 142Z" glyph-name="ae" horiz-adv-x="600" unicode="&#xe6;"/><glyph d="M73 245Q73 306 95 354T156 435 245 485 352 503Q412 503 457 483T534 434L479 362Q450 385 421 397T358 409Q284 409 238 365T192 245Q192 208 204 178T237 127 289 94 355 82Q397 82 431 98T495 136L543 62Q501 25 449 7T344-12Q286-12 237 5T151 55 94 136 73 245ZM312 3H382L359-46Q384-55 401-71T418-119Q418-143 405-160T370-189 318-208 257-217L247-167Q285-162 309-152T333-121Q333-105 319-94T272-75L312 3Z" glyph-name="ccedilla" horiz-adv-x="600" unicode="&#xe7;"/><glyph d="M62 245Q62 305 83 353T140 434 220 485 314 503Q369 503 411 486T483 438 527 364 542 270Q542 253 541 238T537 214H180Q186 148 232 113T345 77Q383 77 416 87T483 117L522 45Q482 20 433 4T330-12Q274-12 225 5T140 56 83 136 62 245ZM436 292Q436 349 406 381T317 414Q267 414 228 383T179 292H436ZM178 731H298L388 573H302L178 731Z" glyph-name="egrave" horiz-adv-x="600" unicode="&#xe8;"/><glyph d="M62 245Q62 305 83 353T140 434 220 485 314 503Q369 503 411 486T483 438 527 364 542 270Q542 253 541 238T537 214H180Q186 148 232 113T345 77Q383 77 416 87T483 117L522 45Q482 20 433 4T330-12Q274-12 225 5T140 56 83 136 62 245ZM436 292Q436 349 406 381T317 414Q267 414 228 383T179 292H436ZM326 573H240L330 731H450L326 573Z" glyph-name="eacute" horiz-adv-x="600" unicode="&#xe9;"/><glyph d="M62 245Q62 305 83 353T140 434 220 485 314 503Q369 503 411 486T483 438 527 364 542 270Q542 253 541 238T537 214H180Q186 148 232 113T345 77Q383 77 416 87T483 117L522 45Q482 20 433 4T330-12Q274-12 225 5T140 56 83 136 62 245ZM436 292Q436 349 406 381T317 414Q267 414 228 383T179 292H436ZM265 731H363L462 573H376L316 670H312L252 573H166L265 731Z" glyph-name="ecircumflex" horiz-adv-x="600" unicode="&#xea;"/><glyph d="M62 245Q62 305 83 353T140 434 220 485 314 503Q369 503 411 486T483 438 527 364 542 270Q542 253 541 238T537 214H180Q186 148 232 113T345 77Q383 77 416 87T483 117L522 45Q482 20 433 4T330-12Q274-12 225 5T140 56 83 136 62 245ZM436 292Q436 349 406 381T317 414Q267 414 228 383T179 292H436ZM210 579Q181 579 163 598T144 646Q144 675 162 694T210 714Q239 714 258 695T277 646Q277 617 258 598T210 579ZM416 579Q387 579 368 598T349 646Q349 675 368 694T416 714Q445 714 463 695T482 646Q482 617 464 598T416 579Z" glyph-name="edieresis" horiz-adv-x="600" unicode="&#xeb;"/><glyph d="M84 491H412V0H297V400H84V491ZM210 731H330L420 573H334L210 731Z" glyph-name="igrave" horiz-adv-x="600" unicode="&#xec;"/><glyph d="M84 491H412V0H297V400H84V491ZM358 573H272L362 731H482L358 573Z" glyph-name="iacute" horiz-adv-x="600" unicode="&#xed;"/><glyph d="M84 491H412V0H297V400H84V491ZM297 731H395L494 573H408L348 670H344L284 573H198L297 731Z" glyph-name="icircumflex" horiz-adv-x="600" unicode="&#xee;"/><glyph d="M84 491H412V0H297V400H84V491ZM243 579Q214 579 196 598T177 646Q177 675 195 694T243 714Q272 714 291 695T310 646Q310 617 291 598T243 579ZM449 579Q420 579 401 598T382 646Q382 675 401 694T449 714Q478 714 496 695T515 646Q515 617 497 598T449 579Z" glyph-name="idieresis" horiz-adv-x="600" unicode="&#xef;"/><glyph d="M300 82Q366 82 400 128T434 256Q434 267 434 276T433 296Q402 334 368 349T299 364Q232 364 196 327T160 225Q160 192 171 166T201 121 245 92 300 82ZM400 608Q432 578 458 542T503 463 532 370 543 262Q543 202 526 152T477 65 400 8 296-12Q247-12 203 4T126 51 73 126 53 225Q53 277 70 319T119 390 190 435 278 451Q319 451 356 435T420 384Q406 441 379 484T312 563L162 487 130 540 257 605Q233 621 207 635T150 664L201 735Q240 717 277 697T347 651L483 720 514 666 400 608Z" glyph-name="eth" horiz-adv-x="600" unicode="&#xf0;"/><glyph d="M82 491H177L186 417H190Q225 452 267 477T367 503Q452 503 492 452T532 304V0H416V289Q416 349 396 376T324 404Q288 404 260 387T198 335V0H82V491ZM160 577Q167 637 193 670T262 704Q280 704 295 696T323 677 347 659 370 650Q386 650 396 662T411 704H472Q465 644 439 611T370 577Q352 577 337 585T309 604 285 622 262 631Q246 631 236 619T221 577H160V577Z" glyph-name="ntilde" horiz-adv-x="600" unicode="&#xf1;"/><glyph d="M53 245Q53 306 73 354T128 435 207 485 300 503Q348 503 393 486T472 435 526 354 547 245Q547 184 527 136T472 55 393 5 300-12Q252-12 207 5T128 55 74 136 53 245ZM172 245Q172 171 206 127T300 82Q360 82 394 126T428 245Q428 320 394 364T300 409Q240 409 206 365T172 245ZM164 731H284L374 573H288L164 731Z" glyph-name="ograve" horiz-adv-x="600" unicode="&#xf2;"/><glyph d="M53 245Q53 306 73 354T128 435 207 485 300 503Q348 503 393 486T472 435 526 354 547 245Q547 184 527 136T472 55 393 5 300-12Q252-12 207 5T128 55 74 136 53 245ZM172 245Q172 171 206 127T300 82Q360 82 394 126T428 245Q428 320 394 364T300 409Q240 409 206 365T172 245ZM312 573H226L316 731H436L312 573Z" glyph-name="oacute" horiz-adv-x="600" unicode="&#xf3;"/><glyph d="M53 245Q53 306 73 354T128 435 207 485 300 503Q348 503 393 486T472 435 526 354 547 245Q547 184 527 136T472 55 393 5 300-12Q252-12 207 5T128 55 74 136 53 245ZM172 245Q172 171 206 127T300 82Q360 82 394 126T428 245Q428 320 394 364T300 409Q240 409 206 365T172 245ZM251 731H349L448 573H362L302 670H298L238 573H152L251 731Z" glyph-name="ocircumflex" horiz-adv-x="600" unicode="&#xf4;"/><glyph d="M53 245Q53 306 73 354T128 435 207 485 300 503Q348 503 393 486T472 435 526 354 547 245Q547 184 527 136T472 55 393 5 300-12Q252-12 207 5T128 55 74 136 53 245ZM172 245Q172 171 206 127T300 82Q360 82 394 126T428 245Q428 320 394 364T300 409Q240 409 206 365T172 245ZM144 577Q151 637 177 670T246 704Q264 704 279 696T307 677 331 659 354 650Q370 650 380 662T395 704H456Q449 644 423 611T354 577Q336 577 321 585T293 604 269 622 246 631Q230 631 220 619T205 577H144V577Z" glyph-name="otilde" horiz-adv-x="600" unicode="&#xf5;"/><glyph d="M53 245Q53 306 73 354T128 435 207 485 300 503Q348 503 393 486T472 435 526 354 547 245Q547 184 527 136T472 55 393 5 300-12Q252-12 207 5T128 55 74 136 53 245ZM172 245Q172 171 206 127T300 82Q360 82 394 126T428 245Q428 320 394 364T300 409Q240 409 206 365T172 245ZM197 579Q168 579 150 598T131 646Q131 675 149 694T197 714Q226 714 245 695T264 646Q264 617 245 598T197 579ZM403 579Q374 579 355 598T336 646Q336 675 355 694T403 714Q432 714 450 695T469 646Q469 617 451 598T403 579Z" glyph-name="odieresis" horiz-adv-x="600" unicode="&#xf6;"/><glyph d="M300 444Q271 444 252 462T232 510Q232 539 251 557T300 575Q329 575 348 557T368 510Q368 481 349 463T300 444ZM232 150Q232 179 251 197T300 215Q329 215 348 197T368 150Q368 121 349 103T300 84Q271 84 252 102T232 150ZM78 372H522V288H78V372Z" glyph-name="divide" horiz-adv-x="600" unicode="&#xf7;"/><glyph d="M221 108Q254 78 300 78 330 78 353 90T393 125 419 177 428 245Q428 296 412 334L221 108ZM378 384Q363 398 343 405T300 413Q270 413 246 401T206 366 181 313 172 245Q172 195 187 158L378 384ZM486 421Q514 389 530 345T547 245Q547 184 527 136T472 55 393 5 300-12Q261-12 225-1T157 32L110-24 64 12 114 71Q85 103 69 147T53 245Q53 306 73 354T128 435 207 485 300 503Q379 503 442 460L490 516 536 480 486 421Z" glyph-name="oslash" horiz-adv-x="600" unicode="&#xf8;"/><glyph d="M515 0H421L412 78H408Q373 37 331 13T234-12Q148-12 109 39T70 187V491H185V202Q185 142 205 115T277 87Q312 87 339 103T400 160V491H515V0ZM416 731H536L626 573H540L416 731Z" glyph-name="ugrave" horiz-adv-x="600" unicode="&#xf9;"/><glyph d="M515 0H421L412 78H408Q373 37 331 13T234-12Q148-12 109 39T70 187V491H185V202Q185 142 205 115T277 87Q312 87 339 103T400 160V491H515V0ZM564 573H478L568 731H688L564 573Z" glyph-name="uacute" horiz-adv-x="600" unicode="&#xfa;"/><glyph d="M515 0H421L412 78H408Q373 37 331 13T234-12Q148-12 109 39T70 187V491H185V202Q185 142 205 115T277 87Q312 87 339 103T400 160V491H515V0ZM503 731H601L700 573H614L554 670H550L490 573H404L503 731Z" glyph-name="ucircumflex" horiz-adv-x="600" unicode="&#xfb;"/><glyph d="M515 0H421L412 78H408Q373 37 331 13T234-12Q148-12 109 39T70 187V491H185V202Q185 142 205 115T277 87Q312 87 339 103T400 160V491H515V0ZM449 579Q420 579 402 598T383 646Q383 675 401 694T449 714Q478 714 497 695T516 646Q516 617 497 598T449 579ZM655 579Q626 579 607 598T588 646Q588 675 607 694T655 714Q684 714 702 695T721 646Q721 617 703 598T655 579Z" glyph-name="udieresis" horiz-adv-x="600" unicode="&#xfc;"/><glyph d="M89-102Q99-105 109-107T130-109Q177-109 205-86T248-25L260 6 40 491H155L256 250Q270 217 283 180T310 106H314Q325 141 338 178T363 250L452 491H561L356-22Q340-64 321-97T275-153 215-189 137-202Q117-202 99-200T67-192L89-102V-102ZM318 573H232L322 731H442L318 573Z" glyph-name="yacute" horiz-adv-x="600" unicode="&#xfd;"/><glyph d="M198-194H82V706H198V519L194 438Q227 468 266 485T346 503Q393 503 430 486T494 435 533 356 547 253Q547 190 529 141T480 58 410 6 329-12Q293-12 259 4T195 46L198-40V-194ZM198 128Q225 103 253 93T305 83Q356 83 392 125T428 252Q428 326 401 367T314 408Q286 408 257 394T198 349V128Z" glyph-name="thorn" horiz-adv-x="600" unicode="&#xfe;"/><glyph d="M89-102Q99-105 109-107T130-109Q177-109 205-86T248-25L260 6 40 491H155L256 250Q270 217 283 180T310 106H314Q325 141 338 178T363 250L452 491H561L356-22Q340-64 321-97T275-153 215-189 137-202Q117-202 99-200T67-192L89-102V-102ZM203 579Q174 579 156 598T137 646Q137 675 155 694T203 714Q232 714 251 695T270 646Q270 617 251 598T203 579ZM409 579Q380 579 361 598T342 646Q342 675 361 694T409 714Q438 714 456 695T475 646Q475 617 457 598T409 579Z" glyph-name="ydieresis" horiz-adv-x="600" unicode="&#xff;"/><glyph d="M80 299H520V207H80V299Z" glyph-name="endash" horiz-adv-x="600" unicode="&#x2013;"/><glyph d="M20 299H580V207H20V299Z" glyph-name="emdash" horiz-adv-x="600" unicode="&#x2014;"/><glyph d="M389 635Q340 609 313 573T282 486Q291 490 304 490 340 490 362 468T385 409Q385 368 362 344T300 319Q252 319 224 356T196 460Q196 538 237 599T356 698L389 635Z" glyph-name="quoteleft" horiz-adv-x="600" unicode="&#x2018;"/><glyph d="M210 382Q259 408 286 444T318 531Q307 527 294 527 259 527 236 549T213 608Q213 649 237 673T298 698Q346 698 374 661T402 557Q402 479 362 418T243 319L210 382Z" glyph-name="quoteright" horiz-adv-x="600" unicode="&#x2019;"/><glyph d="M210-165Q259-139 286-103T318-16Q307-20 294-20 259-20 236 2T213 61Q213 102 237 126T298 151Q346 151 374 114T402 10Q402-68 362-129T243-228L210-165Z" glyph-name="quotesinglbase" horiz-adv-x="600" unicode="&#x201a;"/><glyph d="M522 635Q473 609 446 573T415 486Q424 490 437 490 473 490 495 468T518 409Q518 368 495 344T433 319Q385 319 357 356T329 460Q329 538 370 599T489 698L522 635ZM513 635Q464 609 437 573T406 486Q415 490 428 490 464 490 486 468T509 409Q509 368 486 344T424 319Q376 319 348 356T320 460Q320 538 361 599T480 698L513 635Z" glyph-name="quotedblleft" horiz-adv-x="600" unicode="&#x201c;"/><glyph d="M343 382Q392 408 419 444T451 531Q440 527 427 527 392 527 369 549T346 608Q346 649 370 673T431 698Q479 698 507 661T535 557Q535 479 495 418T376 319L343 382ZM334 382Q383 408 410 444T442 531Q431 527 418 527 383 527 360 549T337 608Q337 649 361 673T422 698Q470 698 498 661T526 557Q526 479 486 418T367 319L334 382Z" glyph-name="quotedblright" horiz-adv-x="600" unicode="&#x201d;"/><glyph d="M87-165Q136-139 163-103T195-16Q184-20 171-20 136-20 113 2T90 61Q90 102 114 126T175 151Q223 151 251 114T279 10Q279-68 239-129T120-228L87-165ZM334-165Q383-139 410-103T442-16Q431-20 418-20 383-20 360 2T337 61Q337 102 361 126T422 151Q470 151 498 114T526 10Q526-68 486-129T367-228L334-165Z" glyph-name="quotedblbase" horiz-adv-x="600" unicode="&#x201e;"/><glyph d="M300 108Q268 108 240 119T190 151 157 200 144 262Q144 296 156 324T190 372 239 404 300 416Q332 416 360 405T410 373 443 324 456 262Q456 228 444 200T410 152 361 120 300 108Z" glyph-name="bullet" horiz-adv-x="600" unicode="&#x2022;"/><glyph d="M186 195V309L348 466 399 420 272 252 399 83 348 38 186 195Z" glyph-name="guilsinglleft" horiz-adv-x="600" unicode="&#x2039;"/><glyph d="M328 252 201 420 252 466 414 309V195L252 38 201 83 328 252Z" glyph-name="guilsinglright" horiz-adv-x="600" unicode="&#x203a;"/></font>
</defs>
</svg>
