<?xml version="1.0" encoding="UTF-8"?>
<svg width="16px" height="16px" viewBox="0 0 16 16" version="1.1" xmlns="http://www.w3.org/2000/svg" xmlns:xlink="http://www.w3.org/1999/xlink">
    <!-- Generator: Sketch 55.1 (78136) - https://sketchapp.com -->
    <title>logo-16@1x</title>
    <desc>Created with Sketch.</desc>
    <g id="Page-1" stroke="none" stroke-width="1" fill="none" fill-rule="evenodd">
        <path d="M10.6093169,6.70967846 C9.88086285,6.70967846 9.29032154,6.13198534 9.29032154,5.41934146 C9.29032154,4.70672852 9.88086285,4.12903539 10.6093169,4.12903539 C11.3377709,4.12903539 11.9283122,4.70672852 11.9283122,5.41934146 C11.9283122,6.13198534 11.3377709,6.70967846 10.6093169,6.70967846 M10.6093169,11.8709646 C9.88086285,11.8709646 9.29032154,11.2932715 9.29032154,10.5806276 C9.29032154,9.86801467 9.88086285,9.29032154 10.6093169,9.29032154 C11.3377709,9.29032154 11.9283122,9.86801467 11.9283122,10.5806276 C11.9283122,11.2932715 11.3377709,11.8709646 10.6093169,11.8709646 M5.39069887,6.70967846 C4.66220461,6.70967846 4.07168776,6.13198534 4.07168776,5.41934146 C4.07168776,4.70672852 4.66220461,4.12903539 5.39069887,4.12903539 C6.11916161,4.12903539 6.70967846,4.70672852 6.70967846,5.41934146 C6.70967846,6.13198534 6.11916161,6.70967846 5.39069887,6.70967846 M5.39069887,11.8709646 C4.66220461,11.8709646 4.07168776,11.2932715 4.07168776,10.5806276 C4.07168776,9.86801467 4.66220461,9.29032154 5.39069887,9.29032154 C6.11916161,9.29032154 6.70967846,9.86801467 6.70967846,10.5806276 C6.70967846,11.2932715 6.11916161,11.8709646 5.39069887,11.8709646 M15.9999935,10.9541515 L15.9999935,5.04844228 C15.9999935,5.04844228 16.0030495,3.42285117 15.8272998,2.67363363 C15.6514876,1.92447859 15.3140819,1.43297939 14.9429888,1.06194874 C14.5735519,0.692543089 14.0695527,0.359199879 13.3466476,0.177668923 C12.6237738,-0.00386203306 10.9558702,6.46446816e-06 10.9558702,6.46446816e-06 L5.04922353,0.00257545651 C5.04922353,0.00257545651 3.42338241,-0.000518288474 2.67407113,0.175262677 C1.92475984,0.351012392 1.43319814,0.688386846 1.06210499,1.05938624 C0.692636835,1.4287919 0.359262375,1.93269733 0.177700169,2.65547741 C-0.00386203733,3.37828874 6.46234445e-06,5.04587979 6.46234445e-06,5.04587979 L6.46234445e-06,10.951589 C6.46234445e-06,10.951589 -0.00308078859,12.5771801 0.172700177,13.3263664 C0.348512392,14.0755214 0.685918096,14.5670519 1.05697999,14.9380825 C1.4264169,15.3074569 1.93044733,15.6408001 2.65335241,15.8223623 C3.37622624,16.003862 5.04412979,15.9999935 5.04412979,15.9999935 L10.9507765,15.9974245 C10.9507765,15.9974245 12.5766176,16.0005495 13.3259289,15.8247686 C14.0752089,15.6490189 14.5668331,15.3116444 14.937895,14.940645 C15.3073319,14.5712706 15.6407376,14.0673339 15.8222686,13.3445538 C16.003862,12.6217425 15.9999935,10.9541515 15.9999935,10.9541515" id="logo-16" fill="#270F34"></path>
    </g>
</svg>