<svg width="401" height="401" viewBox="0 0 401 401" fill="none" xmlns="http://www.w3.org/2000/svg">
<path fill-rule="evenodd" clip-rule="evenodd" d="M4.02219 16.1806C0.535156 22.7665 0.535156 31.4505 0.535156 48.8185V351.618C0.535156 368.987 0.535156 377.671 4.02219 384.256C6.83619 389.571 11.1825 393.917 16.4973 396.731C23.0831 400.219 31.7671 400.219 49.1352 400.219H351.935C369.303 400.219 377.987 400.219 384.573 396.731C389.888 393.917 394.234 389.571 397.048 384.256C400.535 377.671 400.535 368.987 400.535 351.618V48.8185C400.535 31.4505 400.535 22.7665 397.048 16.1806C394.234 10.8659 389.888 6.51954 384.573 3.70554C377.987 0.218506 369.303 0.218506 351.935 0.218506H49.1352C31.7671 0.218506 23.0831 0.218506 16.4973 3.70554C11.1825 6.51954 6.83619 10.8659 4.02219 16.1806ZM300.535 163.695H240.753L282.735 100.219H250.997L200.451 176.793L150.073 100.219H118.335L160.317 163.695H100.535V188.212H300.535V163.695ZM239.578 235.903L282.063 300.219H250.325L200.451 224.652L150.577 300.219H119.007L161.492 236.071H100.535V211.721H300.535V235.903H239.578Z" fill="#7F80FF"/>
</svg>
