<?xml version="1.0" encoding="UTF-8" standalone="no"?>
<svg width="21px" height="21px" viewBox="0 0 21 21" version="1.1" xmlns="http://www.w3.org/2000/svg" xmlns:xlink="http://www.w3.org/1999/xlink" xmlns:sketch="http://www.bohemiancoding.com/sketch/ns">
    <!-- Generator: Sketch 3.4.4 (17249) - http://www.bohemiancoding.com/sketch -->
    <title>icon-identity</title>
    <desc>Created with Sketch.</desc>
    <defs></defs>
    <g id="Page-1" stroke="none" stroke-width="1" fill="none" fill-rule="evenodd" sketch:type="MSPage">
        <g id="browser-light-cards" sketch:type="MSArtboardGroup" transform="translate(-1355.000000, -135.000000)" stroke="#616161">
            <g id="header" sketch:type="MSLayerGroup" transform="translate(335.000000, 105.000000)">
                <g id="icons-grey" transform="translate(1008.000000, 30.000000)" sketch:type="MSShapeGroup">
                    <g id="Identities-+-icon-identity" transform="translate(0.000000, 1.000000)">
                        <g id="icon-identity" transform="translate(13.000000, 0.000000)">
                            <circle id="Oval" cx="9.5" cy="9.5" r="9.5"></circle>
                            <path d="M7.51363636,12.35 C6.09489911,13.0993382 4.75,13.9045455 4.75,13.9045455 C3.97272727,14.4227273 3.45454545,15.2863636 3.45454545,16.15 L3.45454545,16.7545455 L5.60351562,17.8623047 L8.81738281,18.6035156 L12.2900391,18.1679688 L15.8173828,16.6123047 L13.2714844,13.4453125 L10.6689453,10.7783203 C10.6689453,10.7783203 10.1915772,8.84802385 9.17871094,9.35253906" id="Shape" fill="#7B7B7B"></path>
                            <path d="M6.04545455,9.5 L6.04545455,7.77272727 C6.04545455,5.87272727 7.6,4.31818182 9.5,4.31818182 C11.4,4.31818182 12.9545455,5.87272727 12.9545455,7.77272727 L12.9545455,9.5 C12.9545455,11.4 11.4,12.9545455 9.5,12.9545455 C7.6,12.9545455 6.04545455,11.4 6.04545455,9.5 Z" id="Shape" fill="#7B7B7B"></path>
                        </g>
                    </g>
                </g>
            </g>
        </g>
    </g>
</svg>