<?xml version="1.0" encoding="UTF-8" standalone="no"?>
<svg width="18px" height="18px" viewBox="0 0 18 18" version="1.1" xmlns="http://www.w3.org/2000/svg" xmlns:xlink="http://www.w3.org/1999/xlink" xmlns:sketch="http://www.bohemiancoding.com/sketch/ns">
    <!-- Generator: Sketch 3.5.1 (25234) - http://www.bohemiancoding.com/sketch -->
    <title>icon-wallet</title>
    <desc>Created with Sketch.</desc>
    <defs></defs>
    <g id="Page-1" stroke="none" stroke-width="1" fill="none" fill-rule="evenodd" sketch:type="MSPage">
        <g id="browser-light-cards" sketch:type="MSArtboardGroup" transform="translate(-1476.000000, -143.000000)" stroke="#484848" stroke-width="0.5" fill="#616161">
            <g id="browser-bar" sketch:type="MSLayerGroup" transform="translate(335.000000, 105.000000)">
                <g id="icons-grey-minified" transform="translate(1063.000000, 38.000000)" sketch:type="MSShapeGroup">
                    <g id="Wallet-+-icon-wallet" transform="translate(71.000000, 1.000000)">
                        <g id="icon-wallet" transform="translate(8.000000, 0.000000)">
                            <path d="M10.3333333,0 L1,0 C0.466666667,0 0,0.466666667 0,1 L0,1 C0,1.53333333 0.466666667,2 1,2 L10.3333333,2 C10.8666667,2 11.3333333,1.53333333 11.3333333,1 L11.3333333,1 C11.3333333,0.466666667 10.8666667,0 10.3333333,0 L10.3333333,0 Z" id="Shape"></path>
                            <path d="M15.3333333,8 L12,8 C11,8 10.2,8.73333333 10.0666667,9.66666667 C10.0666667,9.53333333 10,9.46666667 10,9.33333333 C10,8.2 10.8666667,7.33333333 12,7.33333333 L14.6666667,7.33333333 L14.6666667,4 C14.6666667,3.6 14.4,3.33333333 14,3.33333333 L1.33333333,3.33333333 C0.8,3.33333333 0.333333333,3.13333333 0,2.8 L0,13.3333333 C0,14.8 1.2,16 2.66666667,16 L14,16 C14.4,16 14.6666667,15.7333333 14.6666667,15.3333333 L14.6666667,12 L15.3333333,12 C15.7333333,12 16,11.7333333 16,11.3333333 L16,8.66666667 C16,8.26666667 15.7333333,8 15.3333333,8 L15.3333333,8 Z M12.6666667,9.33333333 L13.3333333,9.33333333 C13.7333333,9.33333333 14,9.6 14,10 C14,10.4 13.7333333,10.6666667 13.3333333,10.6666667 L12.6666667,10.6666667 C12.2666667,10.6666667 12,10.4 12,10 C12,9.6 12.2666667,9.33333333 12.6666667,9.33333333 L12.6666667,9.33333333 Z" id="Shape"></path>
                        </g>
                    </g>
                </g>
            </g>
        </g>
    </g>
</svg>