<?xml version="1.0" encoding="UTF-8" standalone="no"?>
<svg width="20px" height="20px" viewBox="0 0 20 20" version="1.1" xmlns="http://www.w3.org/2000/svg" xmlns:xlink="http://www.w3.org/1999/xlink" xmlns:sketch="http://www.bohemiancoding.com/sketch/ns">
    <!-- Generator: Sketch 3.5.1 (25234) - http://www.bohemiancoding.com/sketch -->
    <title>icon-settings</title>
    <desc>Created with Sketch.</desc>
    <defs></defs>
    <g id="Page-1" stroke="none" stroke-width="1" fill="none" fill-rule="evenodd" sketch:type="MSPage">
        <g id="browser-light-cards" sketch:type="MSArtboardGroup" transform="translate(-1535.000000, -142.000000)">
            <g id="browser-bar" sketch:type="MSLayerGroup" transform="translate(335.000000, 105.000000)">
                <g id="icons-grey-minified" transform="translate(1063.000000, 38.000000)" sketch:type="MSShapeGroup">
                    <g id="Settings-+-icon-settings" transform="translate(127.000000, 0.000000)">
                        <g id="icon-settings" transform="translate(11.000000, 0.000000)">
                            <path d="M18,9 L18,9 C18,8.1 17.2636364,7.36363636 16.3636364,7.36363636 L15.3,7.36363636 C15.1363636,6.79090909 14.8909091,6.21818182 14.5636364,5.64545455 L15.3,4.90909091 C15.9545455,4.25454545 15.9545455,3.27272727 15.3,2.61818182 L15.3,2.61818182 C14.6454545,1.96363636 13.6636364,1.96363636 13.0090909,2.61818182 L12.2727273,3.35454545 C11.7818182,3.02727273 11.2090909,2.78181818 10.5545455,2.61818182 L10.5545455,1.63636364 C10.5545455,0.736363636 9.81818182,0 8.91818182,0 L8.91818182,0 C8.01818182,0 7.28181818,0.736363636 7.28181818,1.63636364 L7.28181818,2.7 C6.79090909,2.86363636 6.21818182,3.02727273 5.64545455,3.35454545 L4.99090909,2.61818182 C4.33636364,1.96363636 3.35454545,1.96363636 2.7,2.61818182 L2.7,2.61818182 C2.04545455,3.27272727 2.04545455,4.25454545 2.7,4.90909091 L3.43636364,5.64545455 C3.02727273,6.21818182 2.86363636,6.79090909 2.7,7.36363636 L1.63636364,7.36363636 C0.736363636,7.36363636 0,8.1 0,9 L0,9 C0,9.9 0.736363636,10.6363636 1.63636364,10.6363636 L2.7,10.6363636 C2.86363636,11.2090909 3.10909091,11.7818182 3.43636364,12.3545455 L2.7,13.0909091 C2.04545455,13.7454545 2.04545455,14.7272727 2.7,15.3818182 L2.7,15.3818182 C3.35454545,16.0363636 4.33636364,16.0363636 4.99090909,15.3818182 L5.72727273,14.6454545 C6.21818182,14.9727273 6.79090909,15.2181818 7.44545455,15.3818182 L7.44545455,16.3636364 C7.44545455,17.2636364 8.18181818,18 9.08181818,18 L9.08181818,18 C9.98181818,18 10.7181818,17.2636364 10.7181818,16.3636364 L10.7181818,15.3 C11.2909091,15.1363636 11.8636364,14.8909091 12.4363636,14.5636364 L13.1727273,15.3 C13.8272727,15.9545455 14.8090909,15.9545455 15.4636364,15.3 L15.4636364,15.3 C16.1181818,14.6454545 16.1181818,13.6636364 15.4636364,13.0090909 L14.7272727,12.2727273 C15.0545455,11.7818182 15.3,11.2090909 15.4636364,10.5545455 L16.3636364,10.5545455 C17.2636364,10.6363636 18,9.9 18,9 L18,9 Z" id="Shape" stroke="#484848" stroke-width="0.5" fill="#616161"></path>
                            <circle id="Oval" stroke="#D1D1D1" fill="#EBEBEB" cx="8.9138756" cy="8.9138756" r="2.36842105"></circle>
                        </g>
                    </g>
                </g>
            </g>
        </g>
    </g>
</svg>