<?xml version="1.0" encoding="UTF-8" standalone="no"?>
<svg width="17px" height="17px" viewBox="0 0 17 17" version="1.1" xmlns="http://www.w3.org/2000/svg" xmlns:xlink="http://www.w3.org/1999/xlink">
    <!-- Generator: Sketch 39.1 (31720) - http://www.bohemiancoding.com/sketch -->
    <title>icon-cog</title>
    <desc>Created with Sketch.</desc>
    <defs></defs>
    <g id="views-(profile-&amp;-apps)" stroke="none" stroke-width="1" fill="none" fill-rule="evenodd">
        <g id="dashboard-FINAL-v2-Copy-2" transform="translate(-1422.000000, -212.000000)" stroke="#444444" stroke-width="0.675">
            <g id="Group-2" transform="translate(636.000000, 190.000000)">
                <g id="icons-grey-minified2-copy" transform="translate(703.000000, 23.000000)">
                    <g id="icon-cog" transform="translate(84.000000, 0.000000)">
                        <path d="M15,8.86363636 L15,6.13636364 L12.7759091,6.13636364 C12.6470455,5.63727273 12.4506818,5.16681818 12.195,4.73318182 L13.7672727,3.16090909 L11.8390909,1.23272727 L10.2668182,2.805 C9.83318182,2.54931818 9.36272727,2.35295455 8.86363636,2.22409091 L8.86363636,0 L6.13636364,0 L6.13636364,2.22409091 C5.63727273,2.35295455 5.16681818,2.54931818 4.73318182,2.805 L3.16090909,1.23272727 L1.23272727,3.16090909 L2.805,4.73318182 C2.54931818,5.16681818 2.35295455,5.63727273 2.22409091,6.13636364 L0,6.13636364 L0,8.86363636 L2.22409091,8.86363636 C2.35295455,9.36272727 2.54931818,9.83318182 2.805,10.2668182 L1.23272727,11.8390909 L3.16090909,13.7672727 L4.73318182,12.195 C5.16613636,12.4506818 5.63727273,12.6470455 6.13636364,12.7759091 L6.13636364,15 L8.86363636,15 L8.86363636,12.7759091 C9.36272727,12.6470455 9.83318182,12.4506818 10.2668182,12.195 L11.8390909,13.7672727 L13.7672727,11.8390909 L12.195,10.2668182 C12.4506818,9.83386364 12.6470455,9.36272727 12.7759091,8.86363636 L15,8.86363636 L15,8.86363636 Z" id="Shape"></path>
                        <circle id="Oval" cx="7.5" cy="7.5" r="2.04545455"></circle>
                    </g>
                </g>
            </g>
        </g>
    </g>
</svg>