<?xml version="1.0" encoding="utf-8"?>
<!-- Generator: Adobe Illustrator 19.2.0, SVG Export Plug-In . SVG Version: 6.00 Build 0)  -->
<svg version="1.1" id="Layer_1" xmlns="http://www.w3.org/2000/svg" xmlns:xlink="http://www.w3.org/1999/xlink" x="0px" y="0px"
	 viewBox="0 0 32 32" style="enable-background:new 0 0 32 32;" xml:space="preserve">
<style type="text/css">
	.st0{fill:#9B9B9B;}
</style>
<path class="st0" d="M16,11c-2.8,0-5,2.2-5,5s2.2,5,5,5s5-2.2,5-5S18.8,11,16,11z M16,19c-1.7,0-3-1.3-3-3s1.3-3,3-3s3,1.3,3,3
	S17.7,19,16,19z"/>
<path class="st0" d="M31,12h-3.1c-0.4,0-0.7-0.2-0.9-0.6c-0.1-0.3-0.1-0.7,0.2-1l2.2-2.2c0.2-0.2,0.3-0.4,0.3-0.7S29.6,7,29.4,6.8
	l-4.2-4.2c-0.4-0.4-1-0.4-1.4,0l-2.2,2.2c-0.3,0.3-0.6,0.4-1,0.2C20.2,4.8,20,4.4,20,4.1V1c0-0.6-0.4-1-1-1h-6c-0.6,0-1,0.4-1,1v3.1
	c0,0.4-0.2,0.7-0.6,0.9c-0.3,0.1-0.7,0.1-1-0.2L8.2,2.6c-0.4-0.4-1-0.4-1.4,0L2.6,6.8C2.4,7,2.3,7.2,2.3,7.5S2.4,8,2.6,8.2l2.2,2.2
	c0.3,0.3,0.3,0.7,0.2,1C4.8,11.8,4.4,12,4.1,12H1c-0.6,0-1,0.4-1,1v6c0,0.6,0.4,1,1,1h3.1c0.4,0,0.7,0.2,0.9,0.6
	c0.1,0.3,0.1,0.7-0.2,1l-2.2,2.2c-0.2,0.2-0.3,0.4-0.3,0.7s0.1,0.5,0.3,0.7l4.2,4.2c0.4,0.4,1,0.4,1.4,0l2.2-2.2
	c0.3-0.3,0.6-0.4,1-0.2c0.4,0.1,0.6,0.5,0.6,0.9V31c0,0.6,0.4,1,1,1h6c0.6,0,1-0.4,1-1v-3.1c0-0.4,0.2-0.7,0.6-0.9
	c0.3-0.1,0.7-0.1,1,0.2l2.2,2.2c0.4,0.4,1,0.4,1.4,0l4.2-4.2c0.2-0.2,0.3-0.4,0.3-0.7s-0.1-0.5-0.3-0.7l-2.2-2.2
	c-0.3-0.3-0.3-0.7-0.2-1c0.1-0.4,0.5-0.6,0.9-0.6H31c0.6,0,1-0.4,1-1v-6C32,12.4,31.6,12,31,12z M30,18h-2.1c-1.2,0-2.2,0.7-2.7,1.8
	c-0.5,1.1-0.2,2.4,0.6,3.2l1.5,1.5l-2.8,2.8L23,25.9c-0.8-0.8-2.1-1.1-3.2-0.6S18,26.8,18,28v2h-4v-2.1c0-1.2-0.7-2.2-1.8-2.7
	C11.1,24.8,9.8,25,9,25.9l-1.5,1.5l-2.8-2.8L6.1,23c0.8-0.8,1.1-2.1,0.6-3.2C6.3,18.7,5.2,18,4.1,18H2v-4h2.1c1.2,0,2.2-0.7,2.7-1.8
	C7.2,11.1,7,9.8,6.1,9L4.7,7.5l2.8-2.8L9,6.1c0.8,0.9,2,1.1,3.2,0.7C13.3,6.3,14,5.2,14,4.1V2h4v2.1c0,1.2,0.7,2.2,1.8,2.7
	C20.9,7.2,22.2,7,23,6.1l1.5-1.5l2.8,2.8L25.9,9c-0.8,0.8-1.1,2.1-0.6,3.2S26.8,14,28,14h2V18z"/>
</svg>
