<?xml version="1.0" encoding="utf-8"?>
<!-- Generator: Adobe Illustrator 19.2.0, SVG Export Plug-In . SVG Version: 6.00 Build 0)  -->
<svg version="1.1" id="Layer_1" xmlns="http://www.w3.org/2000/svg" xmlns:xlink="http://www.w3.org/1999/xlink" x="0px" y="0px"
	 viewBox="0 0 32 32" style="enable-background:new 0 0 32 32;" xml:space="preserve">
<style type="text/css">
	.st0{fill:#9B9B9B;}
</style>
<path class="st0" d="M22.5,19.3C24,17.6,25,15.4,25,13V9c0-5-4-9-9-9S7,4,7,9v4c0,2.4,1,4.6,2.5,6.3C4.1,20.4,0,25.2,0,31
	c0,0.6,0.4,1,1,1h30c0.6,0,1-0.4,1-1C32,25.2,27.9,20.4,22.5,19.3z M9,9c0-3.9,3.1-7,7-7s7,3.1,7,7v4c0,2.6-1.4,4.9-3.5,6.1l0,0
	c-1,0.6-2.2,0.9-3.4,0.9c-3.9,0-7-3.1-7-7V9H9z M2,30c0.5-5,4.7-8.9,9.9-9c1.2,0.6,2.6,1,4.1,1s2.9-0.4,4.1-1c5.1,0,9.4,4,9.9,9H2z"
	/>
</svg>
