<svg width="120" height="120" viewBox="0 0 120 120" fill="none" xmlns="http://www.w3.org/2000/svg">
<g filter="url(#filter0_dd)">
<rect x="12" y="10" width="96" height="96" rx="24" fill="white"/>
</g>
<path d="M40 42.7383C40 41.0814 41.3431 39.7383 43 39.7383H53.7391C55.396 39.7383 56.7391 41.0814 56.7391 42.7383V53.4774C56.7391 55.1343 55.396 56.4774 53.7391 56.4774H43C41.3431 56.4774 40 55.1343 40 53.4774V42.7383Z" fill="#5548FF"/>
<path opacity="0.8" d="M62.7348 56.4784H77.048C78.3773 56.4784 79.2212 55.0547 78.5832 53.8885L71.4267 40.8066C70.7628 39.5931 69.0199 39.5931 68.3561 40.8066L61.1995 53.8885C60.5615 55.0547 61.4055 56.4784 62.7348 56.4784Z" fill="#5548FF"/>
<path opacity="0.64" d="M40 69.9574C40 65.1549 43.8932 61.2617 48.6957 61.2617C53.4981 61.2617 57.3913 65.1549 57.3913 69.9574C57.3913 74.7598 53.4981 78.653 48.6957 78.653C43.8932 78.653 40 74.7598 40 69.9574Z" fill="#5548FF"/>
<path opacity="0.4" fill-rule="evenodd" clip-rule="evenodd" d="M64.4534 61.7735C64.1305 61.4616 63.698 61.289 63.249 61.2929C62.8001 61.2968 62.3706 61.4769 62.0532 61.7944C61.7357 62.1118 61.5556 62.5413 61.5517 62.9902C61.5478 63.4392 61.7204 63.8717 62.0323 64.1946L67.4824 69.6447L62.0323 75.0947C61.711 75.4158 61.5304 75.8513 61.5303 76.3055C61.5302 76.5304 61.5744 76.7531 61.6604 76.9609C61.7464 77.1687 61.8725 77.3576 62.0314 77.5167C62.1904 77.6758 62.3792 77.802 62.5869 77.8881C62.7947 77.9743 63.0174 78.0186 63.2423 78.0187C63.6965 78.0189 64.1321 77.8386 64.4534 77.5175L69.9035 72.0675L75.3535 77.5175C75.6748 77.8388 76.1105 78.0193 76.5649 78.0193C77.0193 78.0193 77.455 77.8388 77.7763 77.5175C78.0976 77.1962 78.2781 76.7605 78.2781 76.3061C78.2781 75.8518 78.0976 75.416 77.7763 75.0947L72.3263 69.6447L77.7763 64.1946C77.9353 64.0355 78.0614 63.8467 78.1474 63.6389C78.2334 63.4311 78.2776 63.2084 78.2775 62.9835C78.2774 62.7586 78.233 62.5359 78.1469 62.3281C78.0608 62.1204 77.9345 61.9316 77.7755 61.7727C77.6164 61.6137 77.4275 61.4876 77.2197 61.4016C77.0119 61.3156 76.7892 61.2714 76.5643 61.2715C76.3394 61.2716 76.1167 61.3159 75.909 61.4021C75.7012 61.4882 75.5125 61.6144 75.3535 61.7735L69.9035 67.2236L64.4534 61.7735Z" fill="#5548FF"/>
<defs>
<filter id="filter0_dd" x="0" y="0" width="120" height="120" filterUnits="userSpaceOnUse" color-interpolation-filters="sRGB">
<feFlood flood-opacity="0" result="BackgroundImageFix"/>
<feColorMatrix in="SourceAlpha" type="matrix" values="0 0 0 0 0 0 0 0 0 0 0 0 0 0 0 0 0 0 127 0"/>
<feOffset dy="2"/>
<feGaussianBlur stdDeviation="6"/>
<feColorMatrix type="matrix" values="0 0 0 0 0 0 0 0 0 0 0 0 0 0 0 0 0 0 0.04 0"/>
<feBlend mode="normal" in2="BackgroundImageFix" result="effect1_dropShadow"/>
<feColorMatrix in="SourceAlpha" type="matrix" values="0 0 0 0 0 0 0 0 0 0 0 0 0 0 0 0 0 0 127 0"/>
<feOffset dy="1"/>
<feGaussianBlur stdDeviation="1"/>
<feColorMatrix type="matrix" values="0 0 0 0 0 0 0 0 0 0 0 0 0 0 0 0 0 0 0.08 0"/>
<feBlend mode="normal" in2="effect1_dropShadow" result="effect2_dropShadow"/>
<feBlend mode="normal" in="SourceGraphic" in2="effect2_dropShadow" result="shape"/>
</filter>
</defs>
</svg>
