<svg width="32" height="32" viewBox="0 0 32 32" fill="none" xmlns="http://www.w3.org/2000/svg">
<rect width="32" height="32" rx="8" fill="#00A3FF"/>
<path fill-rule="evenodd" clip-rule="evenodd" d="M21.13 9.23432C21.2688 9.09025 21.4578 9.00633 21.657 9.00034C21.8114 8.99572 21.9636 9.03824 22.0937 9.12234C22.2237 9.20644 22.3255 9.32819 22.3857 9.47163C22.446 9.61507 22.4618 9.77351 22.4312 9.92618C22.4005 10.0788 22.3249 10.2186 22.2141 10.3272L10.8699 21.7646C10.7991 21.8383 10.7145 21.8971 10.621 21.9375C10.5275 21.9779 10.427 21.9991 10.3252 22C10.2235 22.0008 10.1226 21.9812 10.0285 21.9423C9.9343 21.9035 9.84877 21.8461 9.77684 21.7736C9.7049 21.701 9.64801 21.6148 9.60947 21.5199C9.57093 21.4249 9.55152 21.3232 9.55236 21.2207C9.5532 21.1181 9.57429 21.0167 9.61438 20.9224C9.65448 20.8282 9.71278 20.7429 9.7859 20.6716L21.13 9.23432ZM8.1291 14.9692C9.6529 12.0082 12.6902 10.1442 15.9988 10.1442C17.0095 10.144 17.9946 10.3182 18.9192 10.6434L17.8389 11.7327C17.2842 11.4569 16.6603 11.3013 16 11.3013C13.7003 11.3013 11.836 13.1808 11.836 15.4994C11.836 16.1651 11.9904 16.7942 12.2639 17.3534L10.6145 19.0164C9.59676 18.2327 8.74172 17.2239 8.12987 16.038C7.95695 15.7032 7.95673 15.3044 8.1291 14.9692ZM19.7361 13.6453L21.3854 11.9825C22.4031 12.7662 23.2583 13.775 23.8701 14.961C24.0431 15.2959 24.0433 15.6947 23.8709 16.0299C22.347 18.9909 19.3098 20.8545 16.0012 20.8545C14.9905 20.8547 14.0054 20.6806 13.0808 20.3553L14.161 19.2662C14.7157 19.542 15.3397 19.6976 16 19.6976C18.2997 19.6976 20.164 17.818 20.164 15.4994C20.164 14.8337 20.0097 14.2046 19.7361 13.6453ZM14.1619 13.6461C14.6694 13.1344 15.3348 12.8788 16 12.8788C16.2103 12.8788 16.4205 12.9046 16.6258 12.9557L13.4769 16.1304C13.2657 15.2686 13.4939 14.3196 14.1619 13.6461ZM15.3742 18.0431L18.5231 14.8683C18.7342 15.7301 18.5059 16.679 17.838 17.3524C17.17 18.0259 16.2289 18.2559 15.3742 18.0431Z" fill="white"/>
</svg>
