<svg width="120" height="120" viewBox="0 0 120 120" fill="none" xmlns="http://www.w3.org/2000/svg">
<g filter="url(#filter0_dd)">
<rect x="12" y="10" width="96" height="96" rx="24" fill="white"/>
</g>
<path fill-rule="evenodd" clip-rule="evenodd" d="M72.825 42.5858C73.1721 42.2256 73.6446 42.0158 74.1425 42.0009C74.5286 41.9893 74.9091 42.0956 75.2342 42.3059C75.5593 42.5161 75.8138 42.8205 75.9644 43.1791C76.1149 43.5377 76.1545 43.9338 76.0779 44.3154C76.0014 44.6971 75.8122 45.0465 75.5353 45.318L47.1747 73.9115C46.9978 74.0957 46.7863 74.2427 46.5525 74.3437C46.3188 74.4447 46.0674 74.4978 45.813 74.4999C45.5587 74.502 45.3065 74.453 45.0711 74.3559C44.8358 74.2587 44.6219 74.1152 44.4421 73.9339C44.2623 73.7526 44.12 73.537 44.0237 73.2997C43.9273 73.0624 43.8788 72.8081 43.8809 72.5517C43.883 72.2952 43.9357 72.0418 44.036 71.8061C44.1362 71.5704 44.282 71.3572 44.4647 71.1789L72.825 42.5858ZM40.3228 56.9229C44.1323 49.5205 51.7254 44.8606 59.997 44.8606C62.5238 44.86 64.9865 45.2954 67.2981 46.1085L64.5972 48.8317C63.2106 48.1423 61.6506 47.7531 60 47.7531C54.2507 47.7531 49.59 52.452 49.5901 58.2486C49.5901 59.9127 49.976 61.4856 50.6598 62.8835L46.5362 67.041C43.9919 65.0818 41.8543 62.5598 40.3247 59.5951C39.8924 58.7579 39.8918 57.7609 40.3228 56.9229ZM69.3402 53.6134L73.4635 49.4562C76.0079 51.4155 78.1457 53.9375 79.6753 56.9026C80.1076 57.7398 80.1082 58.7367 79.6772 59.5747C75.8676 66.9772 68.2745 71.6363 60.003 71.6363C57.4762 71.6369 55.0136 71.2014 52.7019 70.3883L55.4025 67.6656C56.7892 68.3551 58.3493 68.7441 60 68.7441C65.7493 68.7441 70.41 64.0451 70.41 58.2486C70.41 56.5843 70.0241 55.0115 69.3402 53.6134ZM55.4047 53.6152C56.6736 52.3361 58.337 51.6971 60 51.6971C60.5258 51.6971 61.0513 51.7614 61.5646 51.8891L53.6923 59.8261C53.1643 57.6714 53.7347 55.2991 55.4047 53.6152ZM58.4354 64.6078L66.3077 56.6708C66.8355 58.8254 66.2648 61.1974 64.5949 62.8809C62.925 64.5647 60.5723 65.1399 58.4354 64.6078Z" fill="#5548FF"/>
<path d="M74.1201 41.2512L74.12 41.2512C73.4273 41.272 72.771 41.5632 72.289 42.0612L43.9363 70.6468C43.6845 70.8936 43.4839 71.1879 43.3458 71.5126C43.2069 71.8393 43.1339 72.1904 43.131 72.5455C43.128 72.9006 43.1952 73.2528 43.3288 73.5818C43.4624 73.9108 43.6597 74.2101 43.9096 74.462L43.9096 74.462C44.1595 74.714 44.457 74.9137 44.785 75.0491C45.1129 75.1845 45.4645 75.2528 45.8192 75.2499C46.1739 75.247 46.5244 75.1729 46.8501 75.0322C47.1737 74.8923 47.4662 74.6895 47.7111 74.4357L76.0644 45.8495C76.447 45.4729 76.7077 44.9897 76.8133 44.463C76.9194 43.9344 76.8646 43.3857 76.6559 42.8887C76.4472 42.3916 76.094 41.9687 75.6415 41.6761C75.189 41.3834 74.6586 41.2351 74.1201 41.2512Z" fill="#5548FF" stroke="white" stroke-width="1.5"/>
<defs>
<filter id="filter0_dd" x="0" y="0" width="120" height="120" filterUnits="userSpaceOnUse" color-interpolation-filters="sRGB">
<feFlood flood-opacity="0" result="BackgroundImageFix"/>
<feColorMatrix in="SourceAlpha" type="matrix" values="0 0 0 0 0 0 0 0 0 0 0 0 0 0 0 0 0 0 127 0"/>
<feOffset dy="2"/>
<feGaussianBlur stdDeviation="6"/>
<feColorMatrix type="matrix" values="0 0 0 0 0 0 0 0 0 0 0 0 0 0 0 0 0 0 0.04 0"/>
<feBlend mode="normal" in2="BackgroundImageFix" result="effect1_dropShadow"/>
<feColorMatrix in="SourceAlpha" type="matrix" values="0 0 0 0 0 0 0 0 0 0 0 0 0 0 0 0 0 0 127 0"/>
<feOffset dy="1"/>
<feGaussianBlur stdDeviation="1"/>
<feColorMatrix type="matrix" values="0 0 0 0 0 0 0 0 0 0 0 0 0 0 0 0 0 0 0.08 0"/>
<feBlend mode="normal" in2="effect1_dropShadow" result="effect2_dropShadow"/>
<feBlend mode="normal" in="SourceGraphic" in2="effect2_dropShadow" result="shape"/>
</filter>
</defs>
</svg>
