<?xml version="1.0" encoding="utf-8"?>
<!-- Generator: Adobe Illustrator 19.2.0, SVG Export Plug-In . SVG Version: 6.00 Build 0)  -->
<svg version="1.1" id="Layer_1" xmlns="http://www.w3.org/2000/svg" xmlns:xlink="http://www.w3.org/1999/xlink" x="0px" y="0px"
	 viewBox="0 0 32 32" style="enable-background:new 0 0 32 32;" xml:space="preserve">
<style type="text/css">
	.st0{fill:#9B9B9B;}
</style>
<path class="st0" d="M1,5c0,2.2,1.8,4,4,4s4-1.8,4-4S7.2,1,5,1S1,2.8,1,5z M5,3c1.1,0,2,0.9,2,2S6.1,7,5,7S3,6.1,3,5S3.9,3,5,3z"/>
<path class="st0" d="M5,20c2.2,0,4-1.8,4-4s-1.8-4-4-4s-4,1.8-4,4S2.8,20,5,20z M5,14c1.1,0,2,0.9,2,2s-0.9,2-2,2s-2-0.9-2-2
	S3.9,14,5,14z"/>
<path class="st0" d="M5,31c2.2,0,4-1.8,4-4s-1.8-4-4-4s-4,1.8-4,4S2.8,31,5,31z M5,25c1.1,0,2,0.9,2,2s-0.9,2-2,2s-2-0.9-2-2
	S3.9,25,5,25z"/>
<path class="st0" d="M30,4H13c-0.6,0-1,0.4-1,1s0.4,1,1,1h17c0.6,0,1-0.4,1-1S30.6,4,30,4z"/>
<path class="st0" d="M30,15H13c-0.6,0-1,0.4-1,1s0.4,1,1,1h17c0.6,0,1-0.4,1-1S30.6,15,30,15z"/>
<path class="st0" d="M30,26H13c-0.6,0-1,0.4-1,1s0.4,1,1,1h17c0.6,0,1-0.4,1-1S30.6,26,30,26z"/>
</svg>
