<?xml version="1.0" encoding="utf-8"?>
<!-- Generator: Adobe Illustrator 19.2.0, SVG Export Plug-In . SVG Version: 6.00 Build 0)  -->
<svg version="1.1" id="Layer_1" xmlns="http://www.w3.org/2000/svg" xmlns:xlink="http://www.w3.org/1999/xlink" x="0px" y="0px"
	 viewBox="0 0 32 32" style="enable-background:new 0 0 32 32;" xml:space="preserve">
<style type="text/css">
	.st0{fill:#9B9B9B;}
</style>
<path class="st0" d="M2,31L2,31l8.1-1c0.1,0,0.1,0,0.2,0h0.1c0.1,0,0.2-0.1,0.3-0.2l20-20c0.4-0.4,0.4-1,0-1.4l-7-7
	c-0.4-0.4-1-0.4-1.4,0l-20,20c-0.1,0.1-0.2,0.2-0.2,0.3v0.1c0,0.1,0,0.1,0,0.2l-1,8c0,0.3,0.1,0.6,0.3,0.8C1.5,30.9,1.7,31,2,31z
	 M3.7,24.2l4.1,4.1l-4.7,0.6L3.7,24.2z M19,7.4l2.1,2.1L6.5,24.1L4.4,22L19,7.4z M10,27.6l-2.1-2.1l14.6-14.6l2.1,2.1L10,27.6z
	 M23,3.4L28.6,9L26,11.6L20.4,6L23,3.4z"/>
</svg>
