<?xml version="1.0" encoding="utf-8"?>
<!-- Generator: Adobe Illustrator 19.1.0, SVG Export Plug-In . SVG Version: 6.00 Build 0)  -->
<svg version="1.1" id="Layer_1" xmlns="http://www.w3.org/2000/svg" xmlns:xlink="http://www.w3.org/1999/xlink" x="0px" y="0px"
	 viewBox="-334 292.2 92 29.8" style="enable-background:new -334 292.2 92 29.8;" xml:space="preserve">
<style type="text/css">
	.st0{fill:#FFFFFF;}
</style>
<g id="XMLID_2218_">
	<path id="XMLID_2239_" class="st0" d="M-330.4,313.1c0.1-0.7,0.2-1.6,0.2-2.4v-8c0-0.2,0-0.3-0.2-0.3l-0.9-0.3l0.2-1.3h3.4v4.5h0.1
		c0.7-0.6,1.5-0.9,2.5-0.9c1.8,0,3.2,1.1,3.2,4.2c0,3.4-1.4,4.7-3.4,4.7c-1.1,0-1.9-0.5-2.4-1h-0.1l-0.1,0.8
		C-327.9,313.1-330.4,313.1-330.4,313.1z M-327.8,310.8c0.4,0.3,0.9,0.6,1.5,0.6c1.1,0,1.6-1,1.6-2.6c0-1.3-0.4-2.4-1.5-2.4
		c-0.6,0-1.2,0.3-1.6,0.6V310.8z"/>
	<path id="XMLID_2237_" class="st0" d="M-321.2,313.1v-1.3l0.8-0.1c0.2,0,0.3-0.1,0.3-0.3v-8.6c0-0.2,0-0.3-0.2-0.3l-0.9-0.3
		l0.2-1.3h3.4v10.6c0,0.3,0,0.3,0.3,0.3l0.8,0.1v1.3h-4.7L-321.2,313.1L-321.2,313.1z"/>
	<path id="XMLID_2234_" class="st0" d="M-315.8,309c0-2.7,1.4-4.5,4.4-4.5s4.2,1.8,4.2,4.3c0,2.8-1.4,4.6-4.4,4.6
		C-314.7,313.3-315.8,311.5-315.8,309z M-309.8,308.9c0-1.9-0.6-2.6-1.6-2.6c-1.1,0-1.8,0.7-1.8,2.6c0,2,0.6,2.8,1.7,2.8
		C-310.4,311.6-309.8,310.9-309.8,308.9z"/>
	<path id="XMLID_2232_" class="st0" d="M-298.9,312.5c-0.8,0.5-1.9,0.8-3.1,0.8c-3,0-4.3-1.8-4.3-4.3c0-3.1,1.9-4.5,4.5-4.5
		c1.3,0,2.4,0.4,2.9,0.7v2.6l-1.7-0.1l-0.2-1.1c0-0.1,0-0.2-0.2-0.3c-0.3-0.1-0.6-0.1-0.9-0.1c-1,0-1.8,0.7-1.8,2.6
		c0,2.1,0.9,2.7,2.1,2.7c0.8,0,1.6-0.3,2-0.5L-298.9,312.5z"/>
	<path id="XMLID_2230_" class="st0" d="M-291.8,313.1l-2.1-4.2l-0.9,1v1.5c0,0.3,0,0.3,0.3,0.3l1,0.1v1.3h-4.8v-1.3l0.8-0.1
		c0.2,0,0.3-0.1,0.3-0.3v-8.6c0-0.2,0-0.3-0.2-0.3l-0.9-0.3l0.2-1.3h3.4v7l3-3.2h2.3v1.3l-0.8,0.2c-0.2,0-0.3,0.1-0.4,0.2l-1.2,1.2
		l2.1,3.9c0.1,0.2,0.2,0.3,0.5,0.3l0.7,0.1v1.3h-3.3V313.1z"/>
	<path id="XMLID_2228_" class="st0" d="M-283,307.2l-0.2-0.8c0-0.1,0-0.2-0.2-0.2c-0.2-0.1-0.6-0.1-1-0.1c-0.8,0-1.3,0.3-1.3,0.8
		c0,0.7,0.9,0.8,1.9,1c1.3,0.3,2.7,0.8,2.7,2.7c0,2-1.6,2.8-3.7,2.8c-1.5,0-2.9-0.4-3.2-0.6v-2.4l1.7,0.1l0.2,0.9
		c0,0.1,0,0.2,0.2,0.2c0.2,0.1,0.6,0.2,1.3,0.2c0.9,0,1.4-0.2,1.4-0.8c0-0.7-0.7-0.8-1.5-1c-1.4-0.2-3.2-0.5-3.2-2.7
		c0-2,1.7-2.9,3.6-2.9c1.3,0,2.5,0.3,3,0.5v2.4L-283,307.2z"/>
	<path id="XMLID_2226_" class="st0" d="M-273.8,312.7c-0.7,0.3-1.7,0.6-2.7,0.6c-1.9,0-2.7-0.8-2.7-2.6v-4.3c0-0.1,0-0.2-0.1-0.2
		h-1.1v-1.5c1.4-0.2,2-0.9,2.2-2.7h1.6v2.3c0,0.1,0,0.2,0.1,0.2h2.3v1.6h-2.4v4.1c0,1,0.2,1.3,1.1,1.3c0.5,0,0.9-0.1,1.3-0.3
		L-273.8,312.7z"/>
	<path id="XMLID_2223_" class="st0" d="M-267.8,313.1l-0.2-0.9h-0.1c-0.6,0.6-1.4,1.1-2.7,1.1c-2.1,0-2.4-1.4-2.4-2.4
		c0-1.6,1-2.4,3.1-2.5l1.9-0.1v-0.9c0-0.8-0.1-1.3-1.1-1.3c-0.8,0-1.2,0.1-1.2,1.1l-2.3-0.2c0-2.2,2-2.5,3.5-2.5
		c2.5,0,3.5,0.7,3.5,3v4c0,0.3,0,0.3,0.3,0.3l0.8,0.1v1.3h-3.1L-267.8,313.1L-267.8,313.1z M-268.3,309.6l-1.1,0.1
		c-1,0.1-1.3,0.3-1.3,1s0.4,0.9,0.9,0.9c0.6,0,1.1-0.3,1.5-0.6V309.6z"/>
	<path id="XMLID_2221_" class="st0" d="M-256.8,312.5c-0.8,0.5-1.9,0.8-3.1,0.8c-3,0-4.3-1.8-4.3-4.3c0-3.1,1.9-4.5,4.5-4.5
		c1.3,0,2.4,0.4,2.9,0.7v2.6l-1.7-0.1l-0.2-1.1c0-0.1,0-0.2-0.2-0.3s-0.5-0.1-0.8-0.1c-1,0-1.8,0.7-1.8,2.6c0,2.1,0.9,2.7,2.1,2.7
		c0.8,0,1.6-0.3,2-0.5L-256.8,312.5z"/>
	<path id="XMLID_2219_" class="st0" d="M-249.7,313.1l-2.1-4.2l-0.9,1v1.5c0,0.3,0,0.3,0.3,0.3l1,0.1v1.3h-4.8v-1.3l0.8-0.1
		c0.2,0,0.3-0.1,0.3-0.3v-8.6c0-0.2,0-0.3-0.2-0.3l-0.9-0.3l0.2-1.3h3.4v7l3-3.2h2.3v1.3l-0.8,0.2c-0.2,0-0.3,0.1-0.4,0.2l-1.2,1.2
		l2.1,3.9c0.1,0.2,0.2,0.3,0.5,0.3l0.7,0.1v1.3h-3.3L-249.7,313.1L-249.7,313.1z"/>
</g>
</svg>
