<svg height="218" viewBox="0 0 430 218" width="430" xmlns="http://www.w3.org/2000/svg"><g fill="none" fill-rule="evenodd"><path d="m0 0h430v218h-430z"/><g fill="#2a2d31"><g transform="translate(65 150.684211)"><path d="m11.6171928 16.6533621c0 1.0929849-.3393608 1.8705019-1.0352062 2.3755693-.7487732.5464925-1.88360825.8221286-3.36870103.8221286h-2.14669072v-6.0496557h2.14669072c3.94779383 0 4.40390723 1.6267313 4.40390723 2.8519578m-1.94587631-7.62540216c-.56352577.4811683-1.55981443.72334572-2.96240206.72334572h-1.64231958v-5.04908054h1.74194845c1.29673196 0 2.2618866.20075233 2.8721134.59747718.5339485.34574013.7923608.91294514.7923608 1.7382603 0 .87948641-.2630824 1.52954159-.80170101 1.98999734m3.07604121 2.38194236c.6911753-.3871652 1.2515877-.8954191 1.6781237-1.51520212.6942887-1.01810112 1.0476598-2.14135823 1.0476598-3.33949915 0-1.13441002-.2241649-2.1142726-.6647113-2.91090885-.4405464-.80141607-1.0601134-1.4482847-1.8415773-1.92467318-.7518866-.45886247-1.6469897-.79663624-2.6588454-1.00376167-.98850514-.2023456-2.07352576-.30431504-3.22859792-.30431504h-6.49922681c-.32068041 0-.58064948.2660765-.58064948.59429064v22.54002597c0 .3282142.25996907.5942907.58064948.5942907h7.03784537c1.25158762 0 2.42689686-.1386147 3.49323706-.4142509 1.0865774-.2804159 2.0470619-.724939 2.8549897-1.3160431.8250516-.6038502 1.4741959-1.3702143 1.9303093-2.2799729s.6865052-1.9852175.6865052-3.2008845c0-1.6697495-.4794639-3.0208446-1.4290516-4.0182332-.6180103-.6484619-1.4243814-1.1503427-2.4066598-1.5008627"/><path d="m47.1294351 19.5738306h-9.7589588v-18.56799767c0-.32821414-.2599691-.59429064-.5806495-.59429064h-3.8715155c-.3206804 0-.5806494.2660765-.5806494.59429064v22.54002597c0 .3282142.259969.5942907.5806494.5942907h14.2111238c.3206804 0 .5806494-.2660765.5806494-.5942907v-3.3777377c0-.3282141-.259969-.5942906-.5806494-.5942906"/><path d="m74.475068 12.1722832c0 1.2188535-.1074123 2.3293644-.3222371 3.2980741-.2117113.9639298-.5074845 1.789245-.8795361 2.4552329-.3580412.6420888-.7892474 1.1360033-1.2842783 1.4721838-.9760516.6691744-2.2525464.6436821-3.1927938 0-.4950309-.3361805-.9262371-.830095-1.2842784-1.4705905-.3736082-.672361-.6631546-1.4944896-.8608556-2.4504531-.2039279-.9750828-.3082268-2.087187-.3082268-3.3044472 0-2.40584146.3969587-4.303429 1.1799793-5.63859135.7363196-1.25549873 1.6796804-1.86572209 2.8876804-1.86572209 1.2048866 0 2.1498042.61022336 2.8845671 1.86572209.7830206 1.33356908 1.1799793 3.22956335 1.1799793 5.63859135m2.6386083-8.87771433c-.801701-1.0547464-1.7902062-1.87846828-2.9312681-2.44408001-2.2790103-1.13122347-5.2694329-1.12803693-7.5453298 0-1.1441753.56720501-2.1295671 1.38933361-2.9312681 2.44408001-.7939175 1.04200021-1.421268 2.33095766-1.8649278 3.8286338-.4421031 1.4833367-.6662681 3.18176513-.6662681 5.04908053 0 1.8912145.224165 3.6071689.6647114 5.1000653.4436598 1.5072358 1.0694536 2.8169057 1.8602577 3.8923647.801701 1.0897984 1.7886495 1.9374193 2.9343814 2.5189638 1.1395052.5783579 2.4113299.8699268 3.7765567.8699268 1.3652269 0 2.6339382-.2915689 3.775-.8699268 1.1441753-.5815445 2.1326805-1.4291654 2.9343815-2.5189638.7892474-1.075459 1.4150412-2.3851289 1.8618144-3.8923647.4389897-1.4944896.661598-3.2104441.661598-5.1000653 0-1.8641288-.2226083-3.56255729-.6631547-5.04908053-.4467732-1.49767614-1.072567-2.78663359-1.8664845-3.8286338"/><path d="m108.904936 17.8405094c-.110526-.1242752-.267752-.1959725-.431206-.1959725-.16501 0-.320681.0716973-.431206.1959725-.582206.6580216-1.20333 1.1726486-1.847804 1.5295416-1.281165.7090063-3.116516.6612081-4.458392.0031866-.694289-.3377738-1.293619-.8285017-1.7839795-1.4546578-.5012578-.6389023-.8982165-1.4403183-1.1784227-2.3851289-.2833196-.9591501-.4280928-2.0648812-.4280928-3.291701 0-1.2029207.1447732-2.29112586.4280928-3.23752972.2802062-.93525095.6724948-1.73348047 1.1628556-2.37397602.4825776-.62774936 1.0725666-1.11529074 1.7497316-1.45306451 1.304516-.64846191 3.082268-.67873409 4.290268-.07010399.602444.30272177 1.156629.71059953 1.648547 1.21407364.112082.11471562.273979.16570034.424979.1736667.158784-.00477982.308227-.07488381.417196-.19597252l2.188722-2.48231854c.207041-.23421106.197701-.59429064-.021794-.81734879-.753443-.77273716-1.695247-1.46740397-2.798949-2.06966098-2.339721-1.27621127-5.618134-1.17105528-8.1555562-.09400307-1.3200825.56242519-2.4767114 1.38774034-3.4371959 2.45523291-.9573711 1.0658993-1.7154845 2.37875584-2.2572165 3.90511089-.5370619 1.51838869-.8094845 3.2518692-.8094845 5.1494567 0 1.9214866.2724226 3.6597469.8094845 5.1669827.5432887 1.5167954 1.3029588 2.8153125 2.2618866 3.8573127.9620412 1.0467801 2.1093299 1.8481961 3.4045052 2.3835357 1.2858348.532153 2.6899798.801416 4.1735158.801416 1.474195 0 2.830082-.3059083 4.027185-.9049787 1.187763-.5958839 2.268114-1.4610309 3.213031-2.5731351.193031-.2262447.189918-.5640185-.006227-.7886699z"/><path d="m136.119806 9.85088519 6.527248-8.47780295c.138546-.17844652.16501-.42221721.066938-.62774937-.096516-.20393888-.300444-.33458722-.523052-.33458722h-4.343196c-.177464 0-.345587.08444344-.45767.22783797l-6.908639 9.01632905v-8.64987638c0-.32821413-.259969-.59429064-.580649-.59429064h-3.938454c-.32068 0-.58065.26607651-.58065.59429064v22.54161931c0 .3282141.25997.5942906.58065.5942906h3.938454c.32068 0 .580649-.2660765.580649-.5942906v-6.3714968l2.515629-3.1722055 5.077959 9.8225249c.101185.1943793.29733.315468.513711.315468h4.344753c.207041 0 .396958-.1131223.499701-.2947554.105855-.1816331.108969-.4062845.006226-.5895108z"/><path d="m171.998496 13.0140091c-.46234-.5194069-1.013412-.9846424-1.64232-1.3813673-.611783-.3855719-1.290505-.7265322-1.994134-1.0053549l-2.904804-1.28099111c-.496587-.20712543-.976051-.40309794-1.439948-.58791755-.417196-.16570034-.786134-.35848632-1.099031-.57517137-.286433-.19915907-.504371-.4174374-.666268-.66598791-.140103-.21349851-.207042-.47160866-.207042-.78866988 0-.63571573.238176-1.09935803.74566-1.46103088.558856-.39672485 1.359-.59907046 2.378639-.59907046.927794 0 1.771526.15773398 2.504732.47160866.756557.32184104 1.492877.76955061 2.188722 1.33038253.247516.20075234.610227.16092052.809485-.0924098l2.020598-2.55082927c.191474-.24377069.168123-.59907046-.056042-.80938243-.969824-.91931823-2.10933-1.65859666-3.390495-2.19871604-2.363072-.99898186-5.177587-1.05633967-7.342958-.30750159-.996289.34255359-1.869598.83168824-2.593464 1.44987797-.73165.62456282-1.313856 1.36543453-1.731052 2.20349586-.420309.84921424-.633577 1.78127865-.633577 2.7691076 0 .90657205.152557 1.72710738.449887 2.44089346.297329.70422641.695845 1.33197581 1.190876 1.86253551.48102.5178136 1.032093.9687097 1.639206 1.3431288.586876.3584863 1.195546.6659879 1.782423.8954191l3.02467 1.3574682c.529278.2023456 1.018082.4030979 1.469526.6054435.418752.1895994.779907.3951316 1.07101.6086301.258412.1911927.45767.4142509.59466.6580215.127649.2310246.193031.52578.193031.8778932 0 .6803273-.26464 1.2124804-.809485 1.6251379-.58999.4493029-1.50533.6755476-2.719557.6755476-.986948 0-1.980123-.2198716-2.946835-.6564283-.982278-.4429297-1.877381-1.029254-2.658845-1.7414468-.115196-.1083426-.272423-.1784466-.424979-.1497676-.154114.0111529-.300444.0844434-.400073.2055321l-2.291464 2.7229027c-.203927.2405841-.185247.6038503.042031.8205353 1.148846 1.1025446 2.479825 1.9660983 3.954021 2.5651688 1.480423.6006637 3.046464.9033855 4.660763.9033855 1.338763 0 2.55766-.1895995 3.625557-.5656118 1.074123-.3807921 1.998804-.9049788 2.744464-1.5582205.758113-.6628013 1.346546-1.4419116 1.746618-2.3182115.407856-.8810796.61334-1.8354499.61334-2.8376183 0-.8954191-.132319-1.7048015-.392288-2.4010616-.259969-.6978534-.630464-1.3224162-1.105258-1.859349"/><path d="m205.017526.4110643h-17.780639c-.320681 0-.58065.26607651-.58065.59429064v3.3777377c0 .32821413.259969.59429064.58065.59429064h6.35601v18.56959092c0 .3282141.259969.5942907.580649.5942907h3.90732c.32068 0 .580649-.2660766.580649-.5942907v-18.56959092h6.356011c.32068 0 .580649-.26607651.580649-.59429064v-3.3777377c0-.32821413-.259969-.59429064-.580649-.59429064"/><path d="m227.49551 6.20372512c.157227.60385027.316011 1.20929382.477908 1.81792391.336247 1.26346509.661597 2.49187817.979164 3.69639217l.56197 1.9979637h-4.04898l.561969-1.9979637c.337804-1.1981409.669382-2.42814726.996289-3.68364599.158783-.60703682.314454-1.21885345.47168-1.83067009zm2.903248-5.38207449c-.077835-.2437707-.298887-.41106431-.551072-.41106431h-4.581372c-.252185 0-.473237.16729361-.551072.41106431l-7.139031 22.54161927c-.057598.1800398-.02802.3791988.082505.532153.10897.1545474.28332.245364.468568.245364h3.974257c.258413 0 .487248-.1768533.558856-.4301836l1.595618-5.6688635h6.46498l1.562928 5.665677c.071608.2549236.300443.4333701.560412.4333701h4.142381c.185248 0 .359598-.0908166.468568-.245364.110525-.1529542.140103-.3521132.082505-.532153z"/><path d="m266.05266 17.8405094c-.110526-.1242752-.267753-.1959725-.431206-.1959725-.165011 0-.320681.0716973-.431207.1959725-.582206.6580216-1.203329 1.1726486-1.847804 1.5295416-1.281165.7090063-3.114958.6612081-4.458391.0031866-.694289-.3377738-1.293619-.8285017-1.78398-1.4546578-.501258-.6389023-.898216-1.4403183-1.178423-2.3851289-.283319-.9591501-.428092-2.0648812-.428092-3.291701 0-1.2029207.144773-2.29112586.428092-3.23752972.280207-.93525095.672495-1.73348047 1.162856-2.37397602.482577-.62774936 1.072567-1.11529074 1.749732-1.45306451 1.304516-.64846191 3.082268-.67873409 4.290268-.07010399.602443.30272177 1.156629.71059953 1.648547 1.21407364.112082.11471562.253742.16570034.424979.1736667.158783-.00477982.308227-.07488381.417196-.19597252l2.188721-2.48231854c.207042-.23421106.197701-.59429064-.021793-.81734879-.753444-.77273716-1.695248-1.46740397-2.798949-2.06966098-2.339721-1.27621127-5.618134-1.17105528-8.155557-.09400307-1.320082.56242519-2.476711 1.38774034-3.437195 2.45523291-.957372 1.0658993-1.715485 2.37875584-2.257217 3.90511089-.537062 1.51838869-.809484 3.2518692-.809484 5.1494567 0 1.9214866.272422 3.6597469.809484 5.1669827.543289 1.5167954 1.302959 2.8153125 2.261887 3.8573127.962041 1.0467801 2.10933 1.8481961 3.404505 2.3835357 1.285835.532153 2.689979.801416 4.173515.801416 1.474196 0 2.830083-.3059083 4.027186-.9049787 1.187763-.5958839 2.268113-1.4610309 3.213031-2.5731351.193031-.2262447.189917-.5640185-.006227-.7886699z"/><path d="m300.587449 23.25668-7.319608-13.40579481 6.527248-8.47780295c.138546-.17844652.16501-.42221721.066938-.62774937-.096516-.20393888-.300443-.33458722-.523052-.33458722h-4.343196c-.177464 0-.345587.08444344-.45767.22783797l-6.908639 9.01632905v-8.64987638c0-.32821413-.259969-.59429064-.580649-.59429064h-3.940011c-.32068 0-.580649.26607651-.580649.59429064v22.54161931c0 .3282141.259969.5942906.580649.5942906h3.940011c.32068 0 .580649-.2660765.580649-.5942906v-6.3714968l2.515629-3.1722055 5.077959 9.8209317c.101185.1959725.29733.3170612.513711.3170612h4.344753c.207041 0 .396958-.1131223.499701-.2947554.104299-.1816331.107412-.4062845.006226-.5895108"/></g><g transform="translate(188.017391 43.789474)"><path d="m11.1769982 49.7765085c4.6065519 0 8.3412013-3.7104844 8.3412013-8.2870382s-3.7346494-8.2870382-8.3412013-8.2870382c-4.60655195 0-8.3412013 3.7104844-8.3412013 8.2870382s3.73464935 8.2870382 8.3412013 8.2870382"/><path d="m11.1769982 16.6287902c4.6065519 0 8.3412013-3.7104844 8.3412013-8.28703821 0-4.57655378-3.7346494-8.28558993-8.3412013-8.28558993-4.60655195 0-8.3412013 3.70903615-8.3412013 8.28558993 0 4.57655381 3.73464935 8.28703821 8.3412013 8.28703821"/><path d="m44.5438378 16.6287902c4.6065519 0 8.3426544-3.7104844 8.3426544-8.28703821 0-4.57655378-3.7361025-8.28558993-8.3426544-8.28558993-4.606552 0-8.3412013 3.70903615-8.3412013 8.28558993 0 4.57655381 3.7346493 8.28703821 8.3412013 8.28703821"/><path d="m44.5438378 49.7765085c4.6065519 0 8.3426544-3.7104844 8.3426544-8.2870382s-3.7361025-8.2870382-8.3426544-8.2870382c-4.606552 0-8.3412013 3.7104844-8.3412013 8.2870382s3.7346493 8.2870382 8.3412013 8.2870382"/></g></g></g></svg>