<svg height="218" viewBox="0 0 430 218" width="430" xmlns="http://www.w3.org/2000/svg" xmlns:xlink="http://www.w3.org/1999/xlink"><defs><path id="a" d="m90.9999631 62.3016012s.0220405 9.4845479-1.0105771 13.5954339-2.928816 6.9770345-5.0300448 9.07784c-2.1105605 2.1101357-4.9064222 4.0288691-9.1681583 5.0285333-4.2616472.9996643-13.5087249.9820702-13.5087249.9820702l-33.5939771.014484s-9.4861466.0221259-13.5975981-1.0103273c-4.1115404-1.0325421-6.97814513-2.9284387-9.07928509-5.0293331-2.11056052-2.1102246-4.02951045-4.9056413-5.02933384-9.1666102-.99982339-4.2609689-.9822265-13.5065748-.9822265-13.5065748v-33.5887189s-.02212942-9.4845478 1.01057705-13.5954338c1.0326176-4.110886 2.92881598-6.97694564 5.03004482-9.07775118 2.11056052-2.11022459 4.90642226-4.02895794 9.16806946-5.0286222 4.2617361-.99966425 13.5087249-.98207016 13.5087249-.98207016l33.5940659-.01448402s9.4861466-.02203705 13.5975981 1.0104162c4.1115404 1.03245324 6.9780563 2.92834981 9.0791962 5.02924421 2.1105606 2.11022459 4.0295994 4.90564125 5.0294228 9.16661015.9998233 4.2610578.9822265 13.5065748.9822265 13.5065748z"/><mask id="b" fill="#fff"><use fill="#fff" fill-rule="evenodd" xlink:href="#a"/></mask></defs><g fill="none" fill-rule="evenodd"><path d="m0 0h430v218h-430z"/><path d="m54 153.43459h6.9896631c1.2072018 0 2.3238466.102611 3.3499681.307835 1.0261215.205225 1.9134015.531164 2.6618665.977829.7484651.446665 1.3339492 1.04422 1.7564698 1.792685.4225206.748466.6337777 1.665925.6337777 2.752407 0 1.134769-.3380114 2.185019-1.0140444 3.15078-.6760329.965762-1.7142109 1.629713-3.1145649 1.991873v.144864c1.7383705.289728 3.0602366.899356 3.9656379 1.828901.9054013.929546 1.3580952 2.191053 1.3580952 3.784559 0 1.183058-.223329 2.209164-.6699936 3.078349-.4466647.869185-1.0744002 1.593495-1.8832253 2.172952-.8088252.579457-1.7625003 1.008007-2.8610539 1.285664-1.0985535.277656-2.2997013.416482-3.6034791.416482h-7.5691171zm6.5912885 9.814502c1.6659384 0 2.8610502-.301796 3.5853713-.905397.724321-.603601 1.0864761-1.460701 1.0864761-2.571327 0-1.086482-.3802628-1.871151-1.1407999-2.354032-.7605371-.48288-1.9013257-.724317-3.4223998-.724317h-2.4988952v6.555073zm.5432381 10.61125c1.7383705 0 3.0662725-.32594 3.9837458-.977829.9174734-.651889 1.3762031-1.653851 1.3762031-3.005917 0-2.414404-1.7866317-3.621587-5.3599489-3.621587h-2.9334856v7.605333zm27.6447805-20.425752h4.1648251v20.136025h11.1182728v3.549155h-15.2830979zm40.3203349 24.119771c-1.37621 0-2.637716-.283689-3.784558-.851073-1.146842-.567385-2.124661-1.38827-2.933486-2.46268-.808825-1.074409-1.442596-2.372132-1.901333-3.893206s-.688101-3.247347-.688101-5.178869c0-1.907379.229364-3.615544.688101-5.124546s1.092508-2.782581 1.901333-3.820774c.808825-1.038194 1.786644-1.834935 2.933486-2.390248s2.408348-.832965 3.784558-.832965 2.637717.277652 3.784559.832965 2.12466 1.352054 2.933486 2.390248c.808825 1.038193 1.442596 2.311772 1.901333 3.820774.458736 1.509002.688101 3.217167.688101 5.124546 0 1.931522-.229365 3.657795-.688101 5.178869-.458737 1.521074-1.092508 2.818797-1.901333 3.893206-.808826 1.07441-1.786644 1.895295-2.933486 2.46268-1.146842.567384-2.408349.851073-3.784559.851073zm0-3.657803c.748465 0 1.430524-.205222 2.046197-.61567.615673-.410449 1.140798-.995933 1.575391-1.75647.434592-.760537.772604-1.677997 1.014044-2.752406.24144-1.07441.362159-2.275557.362159-3.603479 0-2.655844-.452694-4.738236-1.358096-6.247238-.905401-1.509002-2.11862-2.263492-3.639695-2.263492-1.521074 0-2.734293.75449-3.639695 2.263492-.905401 1.509002-1.358095 3.591394-1.358095 6.247238 0 1.327922.114683 2.529069.344051 3.603479.229368 1.074409.561344 1.991869.995936 2.752406.434593.760537.959718 1.346021 1.575391 1.75647.615673.410448 1.309803.61567 2.082412.61567zm25.10967-8.546946c0-1.931523.277652-3.663831.832965-5.196977.555313-1.533147 1.321874-2.830869 2.299708-3.893207.977833-1.062337 2.136729-1.87115 3.476723-2.426463s2.794651-.832965 4.364013-.832965c1.448642 0 2.740328.301796 3.875098.905397s2.088445 1.291695 2.861054 2.064304l-2.354032 2.607543c-.579457-.579457-1.2253-1.044222-1.937549-1.394311-.712249-.350088-1.527098-.52513-2.444571-.52513-.989906 0-1.895293.199185-2.716191.597562-.820897.398376-1.521063.965753-2.10052 1.702146s-1.032151 1.635745-1.358095 2.698082c-.325945 1.062338-.488914 2.25745-.488914 3.585371 0 1.352066.162969 2.565286.488914 3.639695.325944 1.07441.784674 1.979798 1.376203 2.716191s1.303767 1.303769 2.136736 1.702146c.83297.398376 1.756465.597562 2.770514.597562.965762 0 1.828898-.205222 2.589435-.61567.760537-.410449 1.478812-.989897 2.154845-1.738362l2.317815 2.571327c-.965761 1.110625-2.052226 1.96169-3.259428 2.553219s-2.559247.887289-4.056178.887289c-1.521074 0-2.939515-.265581-4.255365-.79675-1.315849-.531168-2.462674-1.315838-3.440507-2.354031-.977834-1.038194-1.744395-2.317808-2.299708-3.838883-.555313-1.521074-.832965-3.259418-.832965-5.215085zm34.634443-11.915022h4.237257v10.756114h.108648l8.438298-10.756114h4.671847l-7.27939 9.235048 8.07614 14.450132h-4.671848l-5.903187-11.154488-3.440508 4.237257v6.917231h-4.237257zm35.358761 17.781993c.89333.796753 1.901328 1.442597 3.024026 1.937549 1.122697.494953 2.263486.742426 3.4224.742426 1.448642 0 2.547179-.277653 3.295644-.832965.748465-.555313 1.122692-1.291695 1.122692-2.209169 0-.48288-.096575-.893323-.289727-1.231339-.193152-.338017-.464769-.633777-.814857-.887289-.350089-.253512-.772603-.488913-1.267556-.706209-.494952-.217297-1.032149-.43459-1.611606-.651886l-3.223213-1.412419c-.627744-.24144-1.243408-.543236-1.847009-.905397-.603601-.36216-1.146833-.796747-1.629714-1.303771-.482881-.507025-.86918-1.098545-1.158908-1.774578s-.434591-1.44863-.434591-2.317816c0-.941617.205222-1.816825.61567-2.62565.410449-.808826.977825-1.515028 1.702146-2.118629s1.587458-1.074402 2.589435-1.412419c1.001977-.338016 2.10655-.507022 3.313752-.507022 1.448642 0 2.830868.271616 4.146717.814857 1.31585.543241 2.468711 1.273587 3.458616 2.19106l-2.172952 2.679975c-.796753-.627745-1.62971-1.12269-2.498895-1.484851-.869185-.36216-1.847004-.543238-2.933486-.543238-1.231346 0-2.203128.247473-2.915377.742425-.712249.494953-1.068369 1.177012-1.068369 2.046197 0 .458737.108647.851071.325943 1.177016.217297.325944.513057.615668.887289.869181.374233.253512.808819.476841 1.303771.669993.494953.193153 1.008006.398374 1.539175.61567l3.114565 1.339987c.748465.289729 1.43656.62774 2.064305 1.014045.627744.386304 1.170977.832962 1.629714 1.339987.458736.507025.814856 1.092509 1.068368 1.75647s.380267 1.430522.380267 2.299708c0 .965761-.199186 1.871149-.597562 2.71619-.398377.845041-.971789 1.587459-1.720254 2.227276s-1.665925 1.146834-2.752406 1.521067c-1.086482.374232-2.317809.561346-3.694019.561346-1.665939 0-3.259421-.301796-4.780495-.905397s-2.87312-1.460701-4.056178-2.571327zm38.00252-14.232837h-7.460469v-3.549156h19.12198v3.549156h-7.46047v20.136024h-4.201041zm38.835485 10.430171-.832965-2.89727c-.338017-1.25549-.6881-2.547176-1.050261-3.875098-.36216-1.327922-.712243-2.643752-1.05026-3.94753h-.144863c-.338017 1.327922-.682064 2.649788-1.032153 3.965638-.350088 1.31585-.706207 2.6015-1.068368 3.85699l-.832965 2.89727zm.941612 3.295644h-7.89506l-1.847009 6.410209h-4.273473l7.677765-23.68518h4.925358l7.677765 23.68518h-4.454552zm21.234572-5.359949c0-1.931523.277652-3.663831.832965-5.196977.555312-1.533147 1.321874-2.830869 2.299707-3.893207.977834-1.062337 2.13673-1.87115 3.476724-2.426463s2.79465-.832965 4.364013-.832965c1.448642 0 2.740328.301796 3.875098.905397 1.134769.603601 2.088444 1.291695 2.861054 2.064304l-2.354032 2.607543c-.579457-.579457-1.2253-1.044222-1.937549-1.394311-.712249-.350088-1.527098-.52513-2.444571-.52513-.989906 0-1.895294.199185-2.716191.597562-.820897.398376-1.521063.965753-2.10052 1.702146s-1.032151 1.635745-1.358095 2.698082c-.325945 1.062338-.488915 2.25745-.488915 3.585371 0 1.352066.16297 2.565286.488915 3.639695.325944 1.07441.784674 1.979798 1.376203 2.716191.591528.736393 1.303767 1.303769 2.136736 1.702146.832969.398376 1.756465.597562 2.770514.597562.965762 0 1.828898-.205222 2.589435-.61567.760537-.410449 1.478811-.989897 2.154844-1.738362l2.317816 2.571327c-.965761 1.110625-2.052227 1.96169-3.259428 2.553219-1.207202.591529-2.559248.887289-4.056178.887289-1.521074 0-2.939515-.265581-4.255365-.79675-1.31585-.531168-2.462674-1.315838-3.440508-2.354031-.977833-1.038194-1.744395-2.317808-2.299707-3.838883-.555313-1.521074-.832965-3.259418-.832965-5.215085zm34.634443-11.915022h4.237257v10.756114h.108648l8.438298-10.756114h4.671847l-7.27939 9.235048 8.076139 14.450132h-4.671847l-5.903187-11.154488-3.440508 4.237257v6.917231h-4.237257z" fill="#270f34"/><g fill-rule="evenodd" transform="translate(170 22)"><use fill="#270f34" xlink:href="#a"/><path d="m33.1782715 37.4982728c-4.1081494 0-7.4384626-3.3195611-7.4384626-7.4144473 0-4.0948861 3.3303132-7.4144473 7.4384626-7.4144473 4.1081495 0 7.4384626 3.3195612 7.4384626 7.4144473 0 4.0948862-3.3303131 7.4144473-7.4384626 7.4144473zm29.7538504 0c-4.1081494 0-7.4384626-3.3195611-7.4384626-7.4144473 0-4.0948861 3.3303132-7.4144473 7.4384626-7.4144473 4.1081495 0 7.4384626 3.3195612 7.4384626 7.4144473 0 4.0948862-3.3303131 7.4144473-7.4384626 7.4144473zm0 29.6577893c-4.1081494 0-7.4384626-3.3195612-7.4384626-7.4144473 0-4.0948862 3.3303132-7.4144473 7.4384626-7.4144473 4.1081495 0 7.4384626 3.3195611 7.4384626 7.4144473 0 4.0948861-3.3303131 7.4144473-7.4384626 7.4144473zm-29.7538504 0c-4.1081494 0-7.4384626-3.3195612-7.4384626-7.4144473 0-4.0948862 3.3303132-7.4144473 7.4384626-7.4144473 4.1081495 0 7.4384626 3.3195611 7.4384626 7.4144473 0 4.0948861-3.3303131 7.4144473-7.4384626 7.4144473z" fill="#2c96ff" mask="url(#b)"/><path d="m28.2333845 39.4698418c-4.1081495 0-7.4384626-3.3195612-7.4384626-7.4144473 0-4.0948862 3.3303131-7.4144473 7.4384626-7.4144473 4.1081494 0 7.4384626 3.3195611 7.4384626 7.4144473 0 4.0948861-3.3303132 7.4144473-7.4384626 7.4144473zm29.7538504 0c-4.1081495 0-7.4384626-3.3195612-7.4384626-7.4144473 0-4.0948862 3.3303131-7.4144473 7.4384626-7.4144473 4.1081494 0 7.4384626 3.3195611 7.4384626 7.4144473 0 4.0948861-3.3303132 7.4144473-7.4384626 7.4144473zm0 29.6577892c-4.1081495 0-7.4384626-3.3195611-7.4384626-7.4144473s3.3303131-7.4144473 7.4384626-7.4144473c4.1081494 0 7.4384626 3.3195611 7.4384626 7.4144473s-3.3303132 7.4144473-7.4384626 7.4144473zm-29.7538504 0c-4.1081495 0-7.4384626-3.3195611-7.4384626-7.4144473s3.3303131-7.4144473 7.4384626-7.4144473c4.1081494 0 7.4384626 3.3195611 7.4384626 7.4144473s-3.3303132 7.4144473-7.4384626 7.4144473z" fill="#e91e63" mask="url(#b)"/><path d="m30.705828 36.5124884c-4.1081494 0-7.4384626-3.3195612-7.4384626-7.4144473 0-4.0948862 3.3303132-7.4144473 7.4384626-7.4144473 4.1081495 0 7.4384626 3.3195611 7.4384626 7.4144473 0 4.0948861-3.3303131 7.4144473-7.4384626 7.4144473zm29.7538504 0c-4.1081495 0-7.4384626-3.3195612-7.4384626-7.4144473 0-4.0948862 3.3303131-7.4144473 7.4384626-7.4144473 4.1081494 0 7.4384626 3.3195611 7.4384626 7.4144473 0 4.0948861-3.3303132 7.4144473-7.4384626 7.4144473zm0 29.6577892c-4.1081495 0-7.4384626-3.3195611-7.4384626-7.4144473s3.3303131-7.4144473 7.4384626-7.4144473c4.1081494 0 7.4384626 3.3195611 7.4384626 7.4144473s-3.3303132 7.4144473-7.4384626 7.4144473zm-29.7538504 0c-4.1081494 0-7.4384626-3.3195611-7.4384626-7.4144473s3.3303132-7.4144473 7.4384626-7.4144473c4.1081495 0 7.4384626 3.3195611 7.4384626 7.4144473s-3.3303131 7.4144473-7.4384626 7.4144473z" fill="#fff" mask="url(#b)"/></g></g></svg>