<?xml version="1.0" encoding="utf-8"?>
<!-- Generator: Adobe Illustrator 19.2.0, SVG Export Plug-In . SVG Version: 6.00 Build 0)  -->
<svg version="1.1" id="Layer_1" xmlns="http://www.w3.org/2000/svg" xmlns:xlink="http://www.w3.org/1999/xlink" x="0px" y="0px"
	 viewBox="0 0 104 16.5" style="enable-background:new 0 0 104 16.5;" xml:space="preserve">
<g>
	<path d="M2,8.2C2,4.5,4.8,2,8.5,2c2.9,0,4.5,1.6,5.3,3.2l-2.7,1.3c-0.4-1-1.4-1.8-2.6-1.8c-2,0-3.4,1.5-3.4,3.5s1.4,3.5,3.4,3.5
		c1.2,0,2.2-0.8,2.6-1.8l2.7,1.3c-0.8,1.6-2.3,3.2-5.3,3.2C4.8,14.5,2,11.9,2,8.2z"/>
	<path d="M32.3,14.2V9.4h-5v4.8h-3.1v-12h3.1v4.5h5V2.2h3.1v12.1h-3.1V14.2z"/>
	<path d="M46,8.2C46,4.6,48.7,2,52.4,2s6.4,2.6,6.4,6.2s-2.7,6.2-6.4,6.2C48.7,14.5,46,11.9,46,8.2z M55.7,8.2c0-2-1.3-3.5-3.3-3.5
		s-3.3,1.5-3.3,3.5s1.3,3.5,3.3,3.5S55.7,10.2,55.7,8.2z"/>
	<path d="M76.2,14.2l-2-4h-1.6v4h-3.1v-12h6c2.7,0,4.2,1.8,4.2,4c0,2.1-1.3,3.2-2.4,3.6l2.5,4.4C79.8,14.2,76.2,14.2,76.2,14.2z
		 M76.5,6.2c0-0.8-0.7-1.3-1.5-1.3h-2.5v2.6H75C75.8,7.5,76.5,7,76.5,6.2z"/>
	<path d="M90.4,14.2v-12h5.1c3.8,0,6.5,2.3,6.5,6s-2.7,6-6.5,6H90.4z M98.8,8.2c0-1.9-1.1-3.3-3.3-3.3h-2v6.6h2
		C97.6,11.5,98.8,10,98.8,8.2z"/>
</g>
</svg>
