<?xml version="1.0" encoding="utf-8"?>
<!-- Generator: Adobe Illustrator 19.1.0, SVG Export Plug-In . SVG Version: 6.00 Build 0)  -->
<svg version="1.1" id="Layer_1" xmlns="http://www.w3.org/2000/svg" xmlns:xlink="http://www.w3.org/1999/xlink" x="0px" y="0px"
	 viewBox="0 0 16 16" style="enable-background:new 0 0 16 16;" xml:space="preserve">
<style type="text/css">
	.st0{fill:#FFFFFF;}
</style>
<path class="st0" d="M8.7,3.4l3.9,3.9l-7.8,7.8H0.9v-3.9L8.7,3.4z M4.3,14l0.9-0.9L3,10.9l-0.9,0.9v1h1.2V14H4.3z M9.1,5.3
	c0,0,0.1-0.1,0.1-0.2S9.1,4.9,9,4.9S8.9,4.9,8.8,5l-5.1,5.1c0,0-0.1,0.1-0.1,0.2c0,0.1,0.1,0.2,0.2,0.2c0.1,0,0.1,0,0.2-0.1L9.1,5.3
	L9.1,5.3z M14.8,3.4c0.2,0.2,0.3,0.5,0.3,0.9c0,0.3-0.1,0.6-0.3,0.8l-1.6,1.6L9.3,2.8l1.6-1.6c0.2-0.2,0.5-0.4,0.8-0.4
	c0.3,0,0.6,0.1,0.9,0.4L14.8,3.4L14.8,3.4z"/>
</svg>
