<?xml version="1.0" encoding="utf-8"?>
<!-- Generator: Adobe Illustrator 19.1.0, SVG Export Plug-In . SVG Version: 6.00 Build 0)  -->
<svg version="1.1" id="Layer_1" xmlns="http://www.w3.org/2000/svg" xmlns:xlink="http://www.w3.org/1999/xlink" x="0px" y="0px"
	 viewBox="0 0 16 16" style="enable-background:new 0 0 16 16;" xml:space="preserve">
<style type="text/css">
	.st0{fill:#FFFFFF;}
</style>
<path class="st0" d="M15.3,7.1v1.8h-1.9c-0.1,0.8-0.5,1.6-0.9,2.2l1.9,1.6l-1.3,1.6L11,12.6c-0.6,0.4-1.3,0.7-2.1,0.8v1.9H7.1v-1.9
	c-0.7-0.1-1.5-0.5-2.1-0.8l-2.1,1.8l-1.3-1.6l1.9-1.6c-0.5-0.6-0.7-1.4-0.9-2.2H0.7V7.1h1.9c0.1-0.8,0.5-1.6,0.9-2.2L1.6,3.2
	l1.3-1.6L5,3.4c0.6-0.4,1.4-0.7,2.1-0.8V0.7h1.8v1.9c0.7,0.1,1.5,0.5,2.1,0.8l2.1-1.8l1.3,1.6l-1.9,1.6c0.5,0.6,0.7,1.4,0.9,2.2
	L15.3,7.1L15.3,7.1z M8,5.3C6.4,5.3,5.3,6.4,5.3,8s1.2,2.7,2.7,2.7s2.7-1.2,2.7-2.7S9.6,5.3,8,5.3z"/>
</svg>
