<?xml version="1.0" encoding="utf-8"?>
<!-- Generator: Adobe Illustrator 19.1.0, SVG Export Plug-In . SVG Version: 6.00 Build 0)  -->
<svg version="1.1" id="Layer_1" xmlns="http://www.w3.org/2000/svg" xmlns:xlink="http://www.w3.org/1999/xlink" x="0px" y="0px"
	 viewBox="0 0 16 16" style="enable-background:new 0 0 16 16;" xml:space="preserve">
<style type="text/css">
	.st0{fill:#FFFFFF;}
</style>
<path class="st0" d="M14.5,12.8c0,0.7-0.2,1.4-0.6,1.7c-0.5,0.5-1.1,0.6-1.8,0.6H3.9c-0.7,0-1.4-0.2-1.8-0.6s-0.6-1-0.6-1.7
	c0-0.4,0-0.6,0-1c0-0.3,0.1-0.6,0.1-1c0-0.4,0.2-0.7,0.3-1c0.1-0.3,0.3-0.6,0.4-0.9c0.2-0.3,0.4-0.5,0.5-0.7C2.9,8,3.2,7.8,3.6,7.7
	c0.3-0.1,0.6-0.2,1-0.2c0.1,0,0.2,0.1,0.4,0.2C5.1,7.8,5.4,8,5.6,8.2c0.3,0.2,0.6,0.3,1,0.5c0.5,0.1,0.8,0.2,1.3,0.2
	c0.5,0,0.8-0.1,1.3-0.2c0.5-0.1,0.7-0.3,1-0.5c0.3-0.2,0.5-0.3,0.7-0.5c0.2-0.1,0.4-0.2,0.4-0.2c0.4,0,0.7,0.1,1,0.2
	c0.3,0.1,0.5,0.3,0.8,0.5c0.2,0.2,0.5,0.5,0.5,0.7c0.2,0.3,0.3,0.6,0.4,0.9c0.1,0.3,0.2,0.6,0.3,1c0.1,0.4,0.1,0.7,0.1,1
	C14.5,12.2,14.5,12.4,14.5,12.8z M10.5,1.9c0.7,0.7,1.1,1.5,1.1,2.5S11.3,6.3,10.5,7S9,8.1,8,8.1S6.2,7.7,5.5,7S4.4,5.5,4.4,4.5
	s0.4-1.8,1.1-2.5S7,0.9,8,0.9S9.8,1.3,10.5,1.9z"/>
</svg>
