<?xml version="1.0" encoding="UTF-8" standalone="no"?>
<svg width="21px" height="21px" viewBox="0 0 21 21" version="1.1" xmlns="http://www.w3.org/2000/svg" xmlns:xlink="http://www.w3.org/1999/xlink" xmlns:sketch="http://www.bohemiancoding.com/sketch/ns">
    <!-- Generator: Sketch 3.4.4 (17249) - http://www.bohemiancoding.com/sketch -->
    <title>icon-settings</title>
    <desc>Created with Sketch.</desc>
    <defs></defs>
    <g id="Page-1" stroke="none" stroke-width="1" fill="none" fill-rule="evenodd" sketch:type="MSPage">
        <g id="browser-light-cards" sketch:type="MSArtboardGroup" transform="translate(-1538.000000, -134.000000)">
            <g id="header" sketch:type="MSLayerGroup" transform="translate(335.000000, 105.000000)">
                <g id="icons-grey" transform="translate(1008.000000, 30.000000)" sketch:type="MSShapeGroup">
                    <g id="Settings-+-icon-settings" transform="translate(186.000000, 0.000000)">
                        <g id="icon-settings" transform="translate(10.000000, 0.000000)">
                            <path d="M19,9.5 L19,9.5 C19,8.55 18.2227273,7.77272727 17.2727273,7.77272727 L16.15,7.77272727 C15.9772727,7.16818182 15.7181818,6.56363636 15.3727273,5.95909091 L16.15,5.18181818 C16.8409091,4.49090909 16.8409091,3.45454545 16.15,2.76363636 L16.15,2.76363636 C15.4590909,2.07272727 14.4227273,2.07272727 13.7318182,2.76363636 L12.9545455,3.54090909 C12.4363636,3.19545455 11.8318182,2.93636364 11.1409091,2.76363636 L11.1409091,1.72727273 C11.1409091,0.777272727 10.3636364,0 9.41363636,0 L9.41363636,0 C8.46363636,0 7.68636364,0.777272727 7.68636364,1.72727273 L7.68636364,2.85 C7.16818182,3.02272727 6.56363636,3.19545455 5.95909091,3.54090909 L5.26818182,2.76363636 C4.57727273,2.07272727 3.54090909,2.07272727 2.85,2.76363636 L2.85,2.76363636 C2.15909091,3.45454545 2.15909091,4.49090909 2.85,5.18181818 L3.62727273,5.95909091 C3.19545455,6.56363636 3.02272727,7.16818182 2.85,7.77272727 L1.72727273,7.77272727 C0.777272727,7.77272727 0,8.55 0,9.5 L0,9.5 C0,10.45 0.777272727,11.2272727 1.72727273,11.2272727 L2.85,11.2272727 C3.02272727,11.8318182 3.28181818,12.4363636 3.62727273,13.0409091 L2.85,13.8181818 C2.15909091,14.5090909 2.15909091,15.5454545 2.85,16.2363636 L2.85,16.2363636 C3.54090909,16.9272727 4.57727273,16.9272727 5.26818182,16.2363636 L6.04545455,15.4590909 C6.56363636,15.8045455 7.16818182,16.0636364 7.85909091,16.2363636 L7.85909091,17.2727273 C7.85909091,18.2227273 8.63636364,19 9.58636364,19 L9.58636364,19 C10.5363636,19 11.3136364,18.2227273 11.3136364,17.2727273 L11.3136364,16.15 C11.9181818,15.9772727 12.5227273,15.7181818 13.1272727,15.3727273 L13.9045455,16.15 C14.5954545,16.8409091 15.6318182,16.8409091 16.3227273,16.15 L16.3227273,16.15 C17.0136364,15.4590909 17.0136364,14.4227273 16.3227273,13.7318182 L15.5454545,12.9545455 C15.8909091,12.4363636 16.15,11.8318182 16.3227273,11.1409091 L17.2727273,11.1409091 C18.2227273,11.2272727 19,10.45 19,9.5 L19,9.5 Z" id="Shape" stroke="#616161" fill="#7B7B7B"></path>
                            <circle id="Oval" fill="#EBEBEB" cx="9.40909091" cy="9.40909091" r="2.5"></circle>
                        </g>
                    </g>
                </g>
            </g>
        </g>
    </g>
</svg>