<?xml version="1.0" encoding="UTF-8"?>
<svg width="36px" height="46px" viewBox="0 0 36 46" version="1.1" xmlns="http://www.w3.org/2000/svg" xmlns:xlink="http://www.w3.org/1999/xlink">
    <!-- Generator: Sketch 46.2 (44496) - http://www.bohemiancoding.com/sketch -->
    <title>icon-nav-settings</title>
    <desc>Created with Sketch.</desc>
    <defs></defs>
    <g id="Symbols" stroke="none" stroke-width="1" fill="none" fill-rule="evenodd" stroke-linecap="round" stroke-linejoin="round">
        <g id="browser-macOS-40b-profile-d16" transform="translate(-360.000000, -61.000000)" stroke="#949494" stroke-width="1.19047619">
            <g id="navbar-384px" transform="translate(42.000000, 49.000000)">
                <g id="settings" transform="translate(318.000000, 12.000000)">
                    <path d="M16,23.1904762 C16,21.8755952 17.0660714,20.8095238 18.3809524,20.8095238 C19.6958333,20.8095238 20.7619048,21.8755952 20.7619048,23.1904762 C20.7619048,24.5053571 19.6958333,25.5714286 18.3809524,25.5714286 C17.0660714,25.5714286 16,24.5053571 16,23.1904762 L16,23.1904762 Z" id="Stroke-5617"></path>
                    <path d="M27.3095238,24.9761905 L27.3095238,21.4047619 L24.6755952,21.4047619 C24.5357143,20.9107143 24.3422619,20.439881 24.0964286,20.0005952 L25.9571429,18.139881 L23.4315476,15.6142857 L21.5708333,17.475 C21.1315476,17.2291667 20.6607143,17.0357143 20.1666667,16.8958333 L20.1666667,14.2619048 L16.5952381,14.2619048 L16.5952381,16.8958333 C16.1011905,17.0357143 15.6303571,17.2291667 15.1910714,17.475 L13.3303571,15.6142857 L10.8047619,18.139881 L12.6654762,20.0005952 C12.4196429,20.439881 12.2261905,20.9107143 12.0863095,21.4047619 L9.45238095,21.4047619 L9.45238095,24.9761905 L12.0863095,24.9761905 C12.2261905,25.4702381 12.4196429,25.9410714 12.6654762,26.3803571 L10.8047619,28.2410714 L13.3303571,30.7666667 L15.1910714,28.9059524 C15.6303571,29.1517857 16.1011905,29.3452381 16.5952381,29.485119 L16.5952381,32.1190476 L20.1666667,32.1190476 L20.1666667,29.485119 C20.6607143,29.3452381 21.1315476,29.1517857 21.5708333,28.9059524 L23.4315476,30.7666667 L25.9571429,28.2410714 L24.0964286,26.3803571 C24.3422619,25.9410714 24.5357143,25.4702381 24.6755952,24.9761905 L27.3095238,24.9761905 L27.3095238,24.9761905 Z" id="Stroke-5622"></path>
                </g>
            </g>
        </g>
    </g>
</svg>