<?xml version="1.0" encoding="UTF-8"?>
<svg width="29px" height="29px" viewBox="0 0 29 29" version="1.1" xmlns="http://www.w3.org/2000/svg" xmlns:xlink="http://www.w3.org/1999/xlink">
    <!-- Generator: Sketch 45.1 (43504) - http://www.bohemiancoding.com/sketch -->
    <title>icon-settings-sm-rev</title>
    <desc>Created with Sketch.</desc>
    <defs></defs>
    <g id="Symbols" stroke="none" stroke-width="1" fill="none" fill-rule="evenodd">
        <g id="Status-Bar/Status-Bar-Dark-v4" transform="translate(-1285.000000, -23.000000)" stroke="#FFFFFF" stroke-width="2">
            <g id="div-settings" transform="translate(1276.000000, 23.000000)">
                <path d="M33.9717818,12.0587383 L32.0059623,12.0587383 C31.5473196,12.0587383 31.1365462,11.7813088 30.9508949,11.3306053 C30.772714,10.901854 30.8668262,10.4151853 31.1907236,10.0910488 L32.5809036,8.70110313 C32.6705775,8.61142921 32.7210196,8.489994 32.7210196,8.36295834 C32.7210196,8.23592269 32.6705775,8.11448747 32.5809036,8.02481356 L29.8755062,5.31918182 C29.6886879,5.13236356 29.3860349,5.13236356 29.1992166,5.31918182 L27.8090366,6.70912747 C27.4846705,7.03325921 26.9980018,7.12807443 26.548231,6.94031878 C26.1187766,6.76330487 25.841347,6.35277052 25.841347,5.89412313 L25.841347,3.92830356 C25.841347,3.66395443 25.6272057,3.45004269 25.3630862,3.45004269 L21.5369992,3.45004269 C21.2728796,3.45004269 21.0587383,3.66395443 21.0587383,3.92830356 L21.0587383,5.89412313 C21.0587383,6.35276574 20.7813088,6.76330487 20.331074,6.94919052 C19.901854,7.12713704 19.4151853,7.03325921 19.0910536,6.70912747 L17.7008688,5.31918182 C17.5140505,5.13236356 17.2113975,5.13236356 17.0245792,5.31918182 L14.3191818,8.02481356 C14.2295079,8.11448747 14.1790657,8.23592269 14.1790657,8.36295834 C14.1790657,8.489994 14.2295079,8.61142921 14.3191818,8.70110313 L15.7091275,10.0910488 C16.0332592,10.4151805 16.1273714,10.9018492 15.9403188,11.3520888 C15.7635392,11.7813088 15.3527705,12.0587383 14.8941231,12.0587383 L12.9283036,12.0587383 C12.664184,12.0587383 12.4500427,12.2726501 12.4500427,12.5369992 L12.4500427,16.3630862 C12.4500427,16.6274353 12.664184,16.841347 12.9283036,16.841347 L14.8941231,16.841347 C15.3527657,16.841347 15.7635392,17.1187766 15.9491905,17.5694801 C16.1273714,17.9982314 16.0332592,18.4849001 15.7093618,18.8090366 L14.3191818,20.1989823 C14.2295079,20.2886562 14.1790657,20.4100914 14.1790657,20.537127 C14.1790657,20.6641627 14.2295079,20.7855979 14.3191818,20.8752718 L17.0245792,23.5809036 C17.2113975,23.7677218 17.5140505,23.7677218 17.7008688,23.5809036 L19.0910488,22.1909579 C19.4154149,21.8668262 19.9020836,21.772011 20.3518544,21.9597666 C20.7813088,22.1367805 21.0587383,22.5473149 21.0587383,23.0059623 L21.0587383,24.9717818 C21.0587383,25.236131 21.2728796,25.4500427 21.5369992,25.4500427 L25.3630862,25.4500427 C25.6272057,25.4500427 25.841347,25.236131 25.841347,24.9717818 L25.841347,23.0059623 C25.841347,22.5473196 26.1187766,22.1367805 26.5690114,21.9508949 C26.9982314,21.7729483 27.4849001,21.8663575 27.8090318,22.1909579 L29.1992166,23.5809036 C29.3860349,23.7677218 29.6886879,23.7677218 29.8755062,23.5809036 L32.5809036,20.8752718 C32.6705775,20.7855979 32.7210196,20.6641627 32.7210196,20.537127 C32.7210196,20.4100914 32.6705775,20.2886562 32.5809036,20.1989823 L31.1909579,18.8090366 C30.8668262,18.4849049 30.772714,17.9982362 30.9597666,17.5479966 C31.1365462,17.1187766 31.5473149,16.841347 32.0059623,16.841347 L33.9717818,16.841347 C34.2359014,16.841347 34.4500427,16.6274353 34.4500427,16.3630862 L34.4500427,12.5369992 C34.4500427,12.2726501 34.2359014,12.0587383 33.9717818,12.0587383 Z M23.4500427,17.7978688 C21.6011005,17.7978688 20.1022166,16.2989849 20.1022166,14.4500427 C20.1022166,12.6010718 21.6011005,11.1022166 23.4500427,11.1022166 C25.2989849,11.1022166 26.7978688,12.6010718 26.7978688,14.4500427 C26.7978688,16.2989849 25.2989849,17.7978688 23.4500427,17.7978688 Z" id="icon-cog"></path>
            </g>
        </g>
    </g>
</svg>