<?xml version="1.0" encoding="UTF-8"?>
<svg width="36px" height="46px" viewBox="0 0 36 46" version="1.1" xmlns="http://www.w3.org/2000/svg" xmlns:xlink="http://www.w3.org/1999/xlink">
    <!-- Generator: Sketch 46.2 (44496) - http://www.bohemiancoding.com/sketch -->
    <title>icon-nav-home</title>
    <desc>Created with Sketch.</desc>
    <defs></defs>
    <g id="Symbols" stroke="none" stroke-width="1" fill="none" fill-rule="evenodd" stroke-linecap="round" stroke-linejoin="round">
        <g id="browser-macOS-40b-profile-d16" transform="translate(-72.000000, -61.000000)" stroke="#949494" stroke-width="1.19047619">
            <g id="navbar-384px" transform="translate(42.000000, 49.000000)">
                <g id="home" transform="translate(30.000000, 12.000000)">
                    <path d="M10.1190476,16.452381 C10.1190476,15.4660714 10.9184524,14.6666667 11.9047619,14.6666667 C12.8910714,14.6666667 13.6904762,15.4660714 13.6904762,16.452381 C13.6904762,17.4386905 12.8910714,18.2380952 11.9047619,18.2380952 C10.9184524,18.2380952 10.1190476,17.4386905 10.1190476,16.452381 L10.1190476,16.452381 Z" id="Stroke-1790"></path>
                    <path d="M10.1190476,23 C10.1190476,22.0136905 10.9184524,21.2142857 11.9047619,21.2142857 C12.8910714,21.2142857 13.6904762,22.0136905 13.6904762,23 C13.6904762,23.9863095 12.8910714,24.7857143 11.9047619,24.7857143 C10.9184524,24.7857143 10.1190476,23.9863095 10.1190476,23 L10.1190476,23 Z" id="Stroke-1791"></path>
                    <path d="M10.1190476,29.547619 C10.1190476,28.5613095 10.9184524,27.7619048 11.9047619,27.7619048 C12.8910714,27.7619048 13.6904762,28.5613095 13.6904762,29.547619 C13.6904762,30.5339286 12.8910714,31.3333333 11.9047619,31.3333333 C10.9184524,31.3333333 10.1190476,30.5339286 10.1190476,29.547619 L10.1190476,29.547619 Z" id="Stroke-1792"></path>
                    <path d="M16.6666667,16.452381 L26.7857143,16.452381" id="Stroke-1793"></path>
                    <path d="M16.6666667,23 L26.7857143,23" id="Stroke-1794"></path>
                    <path d="M16.6666667,29.547619 L26.7857143,29.547619" id="Stroke-1795"></path>
                </g>
            </g>
        </g>
    </g>
</svg>