<?xml version="1.0" encoding="UTF-8"?>
<svg width="29px" height="29px" viewBox="0 0 29 29" version="1.1" xmlns="http://www.w3.org/2000/svg" xmlns:xlink="http://www.w3.org/1999/xlink">
    <!-- Generator: Sketch 45.1 (43504) - http://www.bohemiancoding.com/sketch -->
    <title>icon-account-sm</title>
    <desc>Created with Sketch.</desc>
    <defs></defs>
    <g id="Symbols" stroke="none" stroke-width="1" fill="none" fill-rule="evenodd">
        <g id="Status-Bar/Status-Bar-Light-v4" transform="translate(-1371.000000, -23.000000)" stroke="#080809" stroke-width="2">
            <g id="div-account" transform="translate(1361.000000, 23.000000)">
                <path d="M24,16.8250768 C21.23875,16.8250768 19,14.7072056 19,12.0950461 L19,9.73003073 C19,7.11787126 21.23875,5 24,5 C26.76125,5 29,7.11787126 29,9.73003073 L29,12.0950461 C29,14.7072056 26.76125,16.8250768 24,16.8250768 Z M32.75,25.1026306 L15.25,25.1026306 C14.56,25.1026306 14,24.5728671 14,23.9201229 C14,21.3079634 16.23875,19.1900922 19,19.1900922 L29,19.1900922 C31.76125,19.1900922 34,21.3079634 34,23.9201229 C34,24.5728671 33.44,25.1026306 32.75,25.1026306 Z" id="Combined-Shape"></path>
            </g>
        </g>
    </g>
</svg>