<?xml version="1.0" encoding="UTF-8"?>
<svg width="36px" height="46px" viewBox="0 0 36 46" version="1.1" xmlns="http://www.w3.org/2000/svg" xmlns:xlink="http://www.w3.org/1999/xlink">
    <!-- Generator: Sketch 46.2 (44496) - http://www.bohemiancoding.com/sketch -->
    <title>icon-nav-avatar</title>
    <desc>Created with Sketch.</desc>
    <defs></defs>
    <g id="Symbols" stroke="none" stroke-width="1" fill="none" fill-rule="evenodd" stroke-linecap="round" stroke-linejoin="round">
        <g id="browser-macOS-40b-profile-d16" transform="translate(-168.000000, -61.000000)" stroke="#949494" stroke-width="1.19047619">
            <g id="navbar-384px" transform="translate(42.000000, 49.000000)">
                <g id="profile" transform="translate(126.000000, 12.000000)">
                    <path d="M20.502381,25.9761905 L20.5952381,25.9761905 C24.2113095,25.9761905 27.1428571,28.9077381 27.1428571,32.5238095 L27.1428571,32.5238095 L9.28571429,32.5238095 C9.28571429,28.9077381 12.2166667,25.9761905 15.8333333,25.9761905 L15.9071429,25.9761905" id="Stroke-6053"></path>
                    <path d="M18.2139881,26.5714286 L18.2139881,26.5714286 C15.5842262,26.5714286 13.4520833,24.4392857 13.4520833,21.8095238 L13.4520833,19.4285714 C13.4520833,16.7988095 15.5842262,14.6666667 18.2139881,14.6666667 L18.2139881,14.6666667 C20.84375,14.6666667 22.9758929,16.7988095 22.9758929,19.4285714 L22.9758929,21.8095238 C22.9758929,24.4392857 20.84375,26.5714286 18.2139881,26.5714286 L18.2139881,26.5714286 Z" id="Stroke-6055"></path>
                </g>
            </g>
        </g>
    </g>
</svg>