<?xml version="1.0" encoding="UTF-8"?>
<svg width="29px" height="29px" viewBox="0 0 29 29" version="1.1" xmlns="http://www.w3.org/2000/svg" xmlns:xlink="http://www.w3.org/1999/xlink">
    <!-- Generator: Sketch 45.1 (43504) - http://www.bohemiancoding.com/sketch -->
    <title>icon-storage-sm-rev</title>
    <desc>Created with Sketch.</desc>
    <defs></defs>
    <g id="Symbols" stroke="none" stroke-width="1" fill="none" fill-rule="evenodd" stroke-linecap="square">
        <g id="Status-Bar/Status-Bar-Dark-v4" transform="translate(-1201.000000, -23.000000)" stroke="#FFFFFF" stroke-width="2">
            <g id="div-storage" transform="translate(1192.000000, 23.000000)">
                <g id="cloud-lock" transform="translate(9.933594, 5.472656)">
                    <rect id="Rectangle-path" x="17.0664062" y="14.5273438" width="9" height="6"></rect>
                    <path d="M19.0546875,14.15625 L19.0546875,10.6171875 C19.0546875,9.31953125 20.1164062,8.2578125 21.4140625,8.2578125 L21.4140625,8.2578125 C22.7117187,8.2578125 23.7734375,9.31953125 23.7734375,10.6171875 L23.7734375,14.15625" id="Shape"></path>
                    <path d="M19.3381627,3.38419106 C17.7210737,1.32381233 15.2100667,0 12.3867187,0 C7.64555469,0 3.78679687,3.73253125 3.56029687,8.41825 C1.51825781,8.93613281 0,10.7717266 0,12.9765625 C0,15.5824922 2.11282031,17.6976719 4.71875,17.6976719 C8.45269903,17.6976719 10.7129027,17.6976719 11.499361,17.6976719" id="Shape"></path>
                </g>
            </g>
        </g>
    </g>
</svg>