<svg height="42" viewBox="0 0 36 42" width="36" xmlns="http://www.w3.org/2000/svg"><g style="stroke:#949494;stroke-width:1.190476;fill:none;fill-rule:evenodd;stroke-linecap:round;stroke-linejoin:round" transform="translate(-11)"><path d="m27 23.1904762c0-1.314881 1.0660714-2.3809524 2.3809524-2.3809524 1.3148809 0 2.3809524 1.0660714 2.3809524 2.3809524 0 1.3148809-1.0660715 2.3809524-2.3809524 2.3809524-1.314881 0-2.3809524-1.0660715-2.3809524-2.3809524z"/><path d="m38.3095238 24.9761905v-3.5714286h-2.6339286c-.1398809-.4940476-.3333333-.9648809-.5791666-1.4041667l1.8607143-1.8607142-2.5255953-2.5255953-1.8607143 1.8607143c-.4392857-.2458333-.910119-.4392857-1.4041666-.5791667v-2.6339285h-3.5714286v2.6339285c-.4940476.139881-.964881.3333334-1.4041667.5791667l-1.8607143-1.8607143-2.5255952 2.5255953 1.8607143 1.8607142c-.2458333.4392858-.4392857.9101191-.5791667 1.4041667h-2.6339285v3.5714286h2.6339285c.139881.4940476.3333334.9648809.5791667 1.4041666l-1.8607143 1.8607143 2.5255952 2.5255953 1.8607143-1.8607143c.4392857.2458333.9101191.4392857 1.4041667.5791666v2.6339286h3.5714286v-2.6339286c.4940476-.1398809.9648809-.3333333 1.4041666-.5791666l1.8607143 1.8607143 2.5255953-2.5255953-1.8607143-1.8607143c.2458333-.4392857.4392857-.910119.5791666-1.4041666z"/></g></svg>