<?xml version="1.0" encoding="UTF-8"?>
<svg width="36px" height="42px" viewBox="0 0 36 42" version="1.1" xmlns="http://www.w3.org/2000/svg" xmlns:xlink="http://www.w3.org/1999/xlink">
    <!-- Generator: Sketch 47.1 (45422) - http://www.bohemiancoding.com/sketch -->
    <title>icon-nav-wallet</title>
    <desc>Created with Sketch.</desc>
    <defs></defs>
    <g id="Symbols" stroke="none" stroke-width="1" fill="none" fill-rule="evenodd" stroke-linecap="square">
        <g id="browser-macOS-40a-profile-verified-d18" transform="translate(-260.000000, -46.000000)" stroke="#949494" stroke-width="1.19">
            <g id="navbar-w352px-top0" transform="translate(58.000000, 34.000000)">
                <g id="wallet" transform="translate(196.000000, 12.000000)">
                    <path d="M30.0839844,15.6296447 L16.6296447,15.6296447 C15.729266,15.6296447 15,16.3589107 15,17.2592894 C15,18.1596682 15.729266,18.8889342 16.6296447,18.8889342 C25.5992045,18.8889342 30.0839844,18.7981892 30.0839844,18.6166992 C30.0839844,17.7117594 30.0839844,16.7160745 30.0839844,15.6296447 Z" id="Shape"></path>
                    <path d="M32.926092,18.8889342 L16.6296447,18.8889342 C15.729266,18.8889342 15,18.1596682 15,17.2592894 L15,29.4816249 C15,30.8317855 16.0943064,31.926092 17.4444671,31.926092 L32.926092,31.926092 L32.926092,18.8889342 Z" id="Shape"></path>
                    <circle id="Oval" cx="28.0371578" cy="25.4075131" r="1.62964472"></circle>
                </g>
            </g>
        </g>
    </g>
</svg>