<?xml version="1.0" encoding="UTF-8" standalone="no"?>
<svg width="21px" height="21px" viewBox="0 0 21 21" version="1.1" xmlns="http://www.w3.org/2000/svg" xmlns:xlink="http://www.w3.org/1999/xlink" xmlns:sketch="http://www.bohemiancoding.com/sketch/ns">
    <!-- Generator: Sketch 3.4.4 (17249) - http://www.bohemiancoding.com/sketch -->
    <title>icon-dollar-circle</title>
    <desc>Created with Sketch.</desc>
    <defs></defs>
    <g id="Page-1" stroke="none" stroke-width="1" fill="none" fill-rule="evenodd" sketch:type="MSPage">
        <g id="browser-light-cards" sketch:type="MSArtboardGroup" transform="translate(-1483.000000, -135.000000)">
            <g id="header" sketch:type="MSLayerGroup" transform="translate(335.000000, 105.000000)">
                <g id="icons-grey" transform="translate(1008.000000, 30.000000)" sketch:type="MSShapeGroup">
                    <g id="Funds-+-icon-dollar-circle" transform="translate(136.000000, 1.000000)">
                        <g id="icon-dollar-circle" transform="translate(5.000000, 0.000000)">
                            <circle id="Oval" stroke="#616161" fill="#7B7B7B" cx="9.5" cy="9.5" r="9.5"></circle>
                            <path d="M6.90909091,11.6590909 L6.90909091,11.6590909 C6.90909091,12.8681818 7.85909091,13.8181818 9.06818182,13.8181818 L9.93181818,13.8181818 C11.1409091,13.8181818 12.0909091,12.8681818 12.0909091,11.6590909 L12.0909091,11.6590909 C12.0909091,8.63636364 6.90909091,10.3636364 6.90909091,7.34090909 L6.90909091,7.34090909 C6.90909091,6.13181818 7.85909091,5.18181818 9.06818182,5.18181818 L9.93181818,5.18181818 C11.1409091,5.18181818 12.0909091,6.13181818 12.0909091,7.34090909" id="Shape" stroke="#EBEBEB"></path>
                            <path d="M9.5,4.31818182 L9.5,14.6818182" id="Shape" stroke="#EBEBEB"></path>
                        </g>
                    </g>
                </g>
            </g>
        </g>
    </g>
</svg>