<svg height="42" viewBox="0 0 36 42" width="36" xmlns="http://www.w3.org/2000/svg"><g fill="none" fill-rule="evenodd" transform="translate(9 14)"><path d="m18.3095238 10.9761905v-3.5714286h-2.6339286c-.1398809-.49404761-.3333333-.96488095-.5791666-1.40416666l1.8607143-1.86071429-2.5255953-2.52559524-1.8607143 1.86071429c-.4392857-.24583333-.910119-.43928571-1.4041666-.57916667v-2.63392857h-3.5714286v2.63392857c-.49404762.13988096-.96488096.33333334-1.40416667.57916667l-1.86071429-1.86071429-2.52559524 2.52559524 1.86071429 1.86071429c-.24583333.43928571-.43928571.91011905-.57916667 1.40416666h-2.63392857v3.5714286h2.63392857c.13988096.4940476.33333334.9648809.57916667 1.4041666l-1.86071429 1.8607143 2.52559524 2.5255953 1.86071429-1.8607143c.43928571.2458333.91011905.4392857 1.40416667.5791666v2.6339286h3.5714286v-2.6339286c.4940476-.1398809.9648809-.3333333 1.4041666-.5791666l1.8607143 1.8607143 2.5255953-2.5255953-1.8607143-1.8607143c.2458333-.4392857.4392857-.910119.5791666-1.4041666z" fill="#2c96ff" stroke="#2c96ff" stroke-linecap="round" stroke-linejoin="round" stroke-width="1.190476"/><path d="m7 9.19047619c0-1.31488095 1.06607143-2.38095238 2.38095238-2.38095238 1.31488092 0 2.38095242 1.06607143 2.38095242 2.38095238 0 1.31488091-1.0660715 2.38095241-2.38095242 2.38095241-1.31488095 0-2.38095238-1.0660715-2.38095238-2.38095241z" fill="#fafafa" fill-rule="evenodd"/><path d="m7.5952381 9.19047619c0 .98614001.79957425 1.78571431 1.78571428 1.78571431.98614002 0 1.78571432-.7995743 1.78571432-1.78571431 0-.98614003-.7995743-1.78571429-1.78571432-1.78571429-.98614003 0-1.78571428.79957426-1.78571428 1.78571429z" stroke="#fafafa" stroke-width="1.190476"/></g></svg>