<?xml version="1.0" encoding="UTF-8"?>
<svg width="250px" height="250px" viewBox="0 0 250 250" version="1.1" xmlns="http://www.w3.org/2000/svg" xmlns:xlink="http://www.w3.org/1999/xlink">
    <!-- Generator: Sketch 46.2 (44496) - http://www.bohemiancoding.com/sketch -->
    <title>identity-key-on-device</title>
    <desc>Created with Sketch.</desc>
    <defs>
        <path d="M144.344828,102.602317 L207,102.602317 L207,0 L0,0 L0,102.602317 L1.5862069,102.602317 L1.5862069,206 L144.344828,206 L144.344828,102.602317 Z" id="path-1"></path>
    </defs>
    <g id="Page-1" stroke="none" stroke-width="1" fill="none" fill-rule="evenodd">
        <g id="welcome-icon-3" transform="translate(5.000000, 18.000000)">
            <g id="Group-6">
                <mask id="mask-2" fill="white">
                    <use xlink:href="#path-1"></use>
                </mask>
                <g id="Combined-Shape"></g>
                <g id="laptop-1" mask="url(#mask-2)" stroke-linecap="round" stroke="#333333" stroke-width="4" stroke-linejoin="round">
                    <g transform="translate(18.241379, 25.451737)" id="Shape">
                        <path d="M18.162069,96.827262 L18.162069,12.1034078 C18.162069,5.41930082 23.5834466,0 30.2701149,0 L151.350575,0 C158.037243,0 163.458621,5.41930082 163.458621,12.1034078 L163.458621,96.827262"></path>
                        <path d="M84.7563218,18.1551116 L96.8643678,18.1551116"></path>
                        <path d="M115.026437,114.982374 L115.026437,124.059929 L66.5942529,124.059929 L66.5942529,114.982374 L0,114.982374 C0,128.350588 10.8427552,139.189189 24.216092,139.189189 L157.404598,139.189189 C170.777934,139.189189 181.62069,128.350588 181.62069,114.982374 L115.026437,114.982374 Z"></path>
                    </g>
                </g>
            </g>
            <g id="user" transform="translate(62.000000, 67.000000)" stroke="#333333" stroke-width="4">
                <ellipse id="Oval-2" cx="19.5" cy="11" rx="11.5" ry="11"></ellipse>
                <path d="M2.07172405,48 C0.747144481,45.3380663 0,42.3225142 0,39.1276897 C0,33.0266112 2.72473209,27.5793144 6.99228545,24 C9.98788093,27.3027249 14.2591522,29.3681484 19,29.3681484 C23.7408478,29.3681484 28.0121191,27.3027249 31.0077145,24 C35.2752679,27.5793144 38,33.0266112 38,39.1276897 C38,42.3225142 37.2528555,45.3380663 35.928276,48 L2.07172405,48 Z" id="Combined-Shape"></path>
            </g>
            <g id="key-26" transform="translate(116.000000, 68.000000)" stroke="#333333" stroke-width="4" stroke-linecap="square">
                <path d="M37.5567183,0 L16.9388866,20.5391377 C12.4533278,19.3587275 7.41691084,20.4604437 3.95437422,24.0016743 C-1.31812474,29.2741733 -1.31812474,37.7731268 3.95437422,43.0456258 C9.22687317,48.3181247 17.7258267,48.3181247 22.9983257,43.0456258 C26.5395563,39.5043951 27.6412725,34.5466722 26.4608623,30.0611134 L31.2611972,25.1820846 L31.2611972,18.8865634 L37.5567183,18.8865634 L37.5567183,12.5910423 L43.8522394,12.5910423 L47,9.44328171 L47,0 L37.5567183,0 Z" id="Shape"></path>
                <circle id="Oval" cx="10" cy="34" r="4"></circle>
            </g>
            <g id="security" transform="translate(157.000000, 114.000000)" stroke="#333333" stroke-width="4">
                <path d="M36,72 L36,0" id="Shape"></path>
                <path d="M4,36 L68,36" id="Shape"></path>
                <path d="M36,0 C25.7142857,7.71428571 10.2857143,12.8571429 0,12.8571429 C0,36.8562857 12.0008571,61.7142857 36,72 C59.9991429,61.7142857 72,36.8562857 72,12.8571429 C61.7142857,12.8571429 46.2857143,7.71428571 36,0 Z" id="Shape" stroke-linecap="square"></path>
            </g>
        </g>
    </g>
</svg>