<?xml version="1.0" encoding="UTF-8"?>
<svg width="430px" height="218px" viewBox="0 0 430 218" version="1.1" xmlns="http://www.w3.org/2000/svg" xmlns:xlink="http://www.w3.org/1999/xlink">
    <!-- Generator: Sketch 45.1 (43504) - http://www.bohemiancoding.com/sketch -->
    <title>blockstack-logo-vertical</title>
    <desc>Created with Sketch.</desc>
    <defs></defs>
    <g id="Symbols" stroke="none" stroke-width="1" fill="none" fill-rule="evenodd">
        <g id="Logo/blockstack-logo-vertical">
            <g id="blockstack-logo-vertical">
                <rect id="Rectangle" x="0" y="0" width="430" height="218"></rect>
                <g id="BLOCKSTACK" transform="translate(65.000000, 150.684211)" fill="#2A2D31">
                    <path d="M11.6171928,16.6533621 C11.6171928,17.746347 11.277832,18.523864 10.5819866,19.0289314 C9.8332134,19.5754239 8.69837835,19.85106 7.21328557,19.85106 L5.06659485,19.85106 L5.06659485,13.8014043 L7.21328557,13.8014043 C11.1610794,13.8014043 11.6171928,15.4281356 11.6171928,16.6533621 M9.67131649,9.02795994 C9.10779072,9.50912824 8.11150206,9.75130566 6.70891443,9.75130566 L5.06659485,9.75130566 L5.06659485,4.70222512 L6.8085433,4.70222512 C8.10527526,4.70222512 9.0704299,4.90297745 9.6806567,5.2997023 C10.2146052,5.64544243 10.4730175,6.21264744 10.4730175,7.0379626 C10.4730175,7.91744901 10.2099351,8.56750419 9.67131649,9.02795994 M12.7473577,11.4099023 C13.438533,11.0227371 13.9989454,10.5144832 14.4254814,9.89470018 C15.1197701,8.87659906 15.4731412,7.75334195 15.4731412,6.55520103 C15.4731412,5.42079101 15.2489763,4.44092843 14.8084299,3.64429218 C14.3678835,2.84287611 13.7483165,2.19600748 12.9668526,1.719619 C12.214966,1.26075653 11.3198629,0.922982757 10.3080072,0.715857332 C9.31950206,0.513511725 8.23448144,0.411542286 7.07940928,0.411542286 L0.580182474,0.411542286 C0.259502062,0.411542286 -0.000467010309,0.677618792 -0.000467010309,1.00583293 L-0.000467010309,23.5458589 C-0.000467010309,23.8740731 0.259502062,24.1401496 0.580182474,24.1401496 L7.61802784,24.1401496 C8.86961546,24.1401496 10.0449247,24.0015349 11.1112649,23.7258987 C12.1978423,23.4454828 13.1583268,23.0009597 13.9662546,22.4098556 C14.7913062,21.8060054 15.4404505,21.0396413 15.8965639,20.1298827 C16.3526773,19.2201241 16.5830691,18.1446652 16.5830691,16.9289982 C16.5830691,15.2592487 16.1036052,13.9081536 15.1540175,12.910765 C14.5360072,12.2623031 13.7296361,11.7604223 12.7473577,11.4099023" id="Fill-13"></path>
                    <path d="M47.1294351,19.5738306 L37.3704763,19.5738306 L37.3704763,1.00583293 C37.3704763,0.677618792 37.1105072,0.411542286 36.7898268,0.411542286 L32.9183113,0.411542286 C32.5976309,0.411542286 32.3376619,0.677618792 32.3376619,1.00583293 L32.3376619,23.5458589 C32.3376619,23.8740731 32.5976309,24.1401496 32.9183113,24.1401496 L47.1294351,24.1401496 C47.4501155,24.1401496 47.7100845,23.8740731 47.7100845,23.5458589 L47.7100845,20.1681212 C47.7100845,19.8399071 47.4501155,19.5738306 47.1294351,19.5738306" id="Fill-9"></path>
                    <path d="M74.475068,12.1722832 C74.475068,13.3911367 74.3676557,14.5016476 74.1528309,15.4703573 C73.9411196,16.4342871 73.6453464,17.2596023 73.2732948,17.9255902 C72.9152536,18.567679 72.4840474,19.0615935 71.9890165,19.397774 C71.0129649,20.0669484 69.7364701,20.0414561 68.7962227,19.397774 C68.3011918,19.0615935 67.8699856,18.567679 67.5119443,17.9271835 C67.1383361,17.2548225 66.8487897,16.4326939 66.6510887,15.4767304 C66.4471608,14.5016476 66.3428619,13.3895434 66.3428619,12.1722832 C66.3428619,9.76644174 66.7398206,7.8688542 67.5228412,6.53369185 C68.2591608,5.27819312 69.2025216,4.66796976 70.4105216,4.66796976 C71.6154082,4.66796976 72.5603258,5.27819312 73.2950887,6.53369185 C74.0781093,7.86726093 74.475068,9.7632552 74.475068,12.1722832 M77.1136763,3.29456887 C76.3119753,2.23982247 75.3234701,1.41610059 74.1824082,0.850488858 C71.9033979,-0.280734614 68.9129753,-0.277548069 66.6370784,0.850488858 C65.4929031,1.41769387 64.5075113,2.23982247 63.7058103,3.29456887 C62.9118928,4.33656908 62.2845423,5.62552653 61.8408825,7.12320267 C61.3987794,8.60653937 61.1746144,10.3049678 61.1746144,12.1722832 C61.1746144,14.0634977 61.3987794,15.7794521 61.8393258,17.2723485 C62.2829856,18.7795843 62.9087794,20.0892542 63.6995835,21.1647132 C64.5012845,22.2545116 65.488233,23.1021325 66.6339649,23.683677 C67.7734701,24.2620349 69.0452948,24.5536038 70.4105216,24.5536038 C71.7757485,24.5536038 73.0444598,24.2620349 74.1855216,23.683677 C75.3296969,23.1021325 76.3182021,22.2545116 77.1199031,21.1647132 C77.9091505,20.0892542 78.5349443,18.7795843 78.9817175,17.2723485 C79.4207072,15.7778589 79.6433155,14.0619044 79.6433155,12.1722832 C79.6433155,10.3081544 79.4207072,8.60972591 78.9801608,7.12320267 C78.5333876,5.62552653 77.9075938,4.33656908 77.1136763,3.29456887" id="Fill-11"></path>
                    <path d="M108.904936,17.8405094 C108.79441,17.7162342 108.637184,17.6445369 108.47373,17.6445369 C108.30872,17.6445369 108.153049,17.7162342 108.042524,17.8405094 C107.460318,18.498531 106.839194,19.013158 106.19472,19.370051 C104.913555,20.0790573 103.078204,20.0312591 101.736328,19.3732376 C101.042039,19.0354638 100.442709,18.5447359 99.9523485,17.9185798 C99.4510907,17.2796775 99.054132,16.4782615 98.7739258,15.5334509 C98.4906062,14.5743008 98.345833,13.4685697 98.345833,12.2417499 C98.345833,11.0388292 98.4906062,9.95062404 98.7739258,9.00422018 C99.054132,8.06896923 99.4464206,7.27073971 99.9367814,6.63024416 C100.419359,6.0024948 101.009348,5.51495342 101.686513,5.17717965 C102.991029,4.52871774 104.768781,4.49844556 105.976781,5.10707566 C106.579225,5.40979743 107.13341,5.81767519 107.625328,6.3211493 C107.73741,6.43586492 107.899307,6.48684964 108.050307,6.494816 C108.209091,6.49003618 108.358534,6.41993219 108.467503,6.29884348 L110.656225,3.81652494 C110.863266,3.58231388 110.853926,3.2222343 110.634431,2.99917615 C109.880988,2.22643899 108.939184,1.53177218 107.835482,0.929515174 C105.495761,-0.346696095 102.217348,-0.24154011 99.6799258,0.835512097 C98.3598433,1.39793729 97.2032144,2.22325244 96.2427299,3.29074501 C95.2853588,4.35664431 94.5272454,5.66950085 93.9855134,7.1958559 C93.4484515,8.71424459 93.1760289,10.4477251 93.1760289,12.3453126 C93.1760289,14.2667992 93.4484515,16.0050595 93.9855134,17.5122953 C94.5288021,19.0290907 95.2884722,20.3276078 96.2474,21.369608 C97.2094412,22.4163881 98.3567299,23.2178041 99.6519052,23.7531437 C100.93774,24.2852967 102.341885,24.5545597 103.825421,24.5545597 C105.299616,24.5545597 106.655503,24.2486514 107.852606,23.649581 C109.040369,23.0536971 110.12072,22.1885501 111.065637,21.0764459 C111.258668,20.8502012 111.255555,20.5124274 111.05941,20.287776 L108.904936,17.8405094 Z" id="Fill-29"></path>
                    <path d="M136.119806,9.85088519 L142.647054,1.37308224 C142.7856,1.19463572 142.812064,0.950865025 142.713992,0.745332874 C142.617476,0.541393994 142.413548,0.410745649 142.19094,0.410745649 L137.847744,0.410745649 C137.67028,0.410745649 137.502157,0.495189092 137.390074,0.638583616 L130.481435,9.65491267 L130.481435,1.00503629 C130.481435,0.676822156 130.221466,0.410745649 129.900786,0.410745649 L125.962332,0.410745649 C125.641652,0.410745649 125.381682,0.676822156 125.381682,1.00503629 L125.381682,23.5466556 C125.381682,23.8748697 125.641652,24.1409462 125.962332,24.1409462 L129.900786,24.1409462 C130.221466,24.1409462 130.481435,23.8748697 130.481435,23.5466556 L130.481435,17.1751588 L132.997064,14.0029533 L138.075023,23.8254782 C138.176208,24.0198575 138.372353,24.1409462 138.588734,24.1409462 L142.933487,24.1409462 C143.140528,24.1409462 143.330445,24.0278239 143.433188,23.8461908 C143.539043,23.6645577 143.542157,23.4399063 143.439414,23.25668 L136.119806,9.85088519 Z" id="Fill-27"></path>
                    <path d="M171.998496,13.0140091 C171.536156,12.4946022 170.985084,12.0293667 170.356176,11.6326418 C169.744393,11.2470699 169.065671,10.9061096 168.362042,10.6272869 L165.457238,9.34629579 C164.960651,9.13917036 164.481187,8.94319785 164.01729,8.75837824 C163.600094,8.5926779 163.231156,8.39989192 162.918259,8.18320687 C162.631826,7.9840478 162.413888,7.76576947 162.251991,7.51721896 C162.111888,7.30372045 162.044949,7.0456103 162.044949,6.72854908 C162.044949,6.09283335 162.283125,5.62919105 162.790609,5.2675182 C163.349465,4.87079335 164.149609,4.66844774 165.169248,4.66844774 C166.097042,4.66844774 166.940774,4.82618172 167.67398,5.1400564 C168.430537,5.46189744 169.166857,5.90960701 169.862702,6.47043893 C170.110218,6.67119127 170.472929,6.63135945 170.672187,6.37802913 L172.692785,3.82719986 C172.884259,3.58342917 172.860908,3.2281294 172.636743,3.01781743 C171.666919,2.0984992 170.527413,1.35922077 169.246248,0.81910139 C166.883176,-0.179880465 164.068661,-0.237238275 161.90329,0.511599798 C160.907001,0.854153385 160.033692,1.34328804 159.309826,1.96147777 C158.578176,2.58604059 157.99597,3.3269123 157.578774,4.16497363 C157.158465,5.01418787 156.945197,5.94625228 156.945197,6.93408123 C156.945197,7.84065328 157.097754,8.66118861 157.395084,9.37497469 C157.692413,10.0792011 158.090929,10.7069505 158.58596,11.2375102 C159.06698,11.7553238 159.618053,12.2062199 160.225166,12.580639 C160.812042,12.9391253 161.420712,13.2466269 162.007589,13.4760581 L165.032259,14.8335263 C165.561537,15.0358719 166.050341,15.2366242 166.501785,15.4389698 C166.920537,15.6285692 167.281692,15.8341014 167.572795,16.0475999 C167.831207,16.2387926 168.030465,16.4618508 168.167455,16.7056214 C168.295104,16.936646 168.360486,17.2314014 168.360486,17.5835146 C168.360486,18.2638419 168.095846,18.795995 167.551001,19.2086525 C166.961011,19.6579554 166.045671,19.8842001 164.831444,19.8842001 C163.844496,19.8842001 162.851321,19.6643285 161.884609,19.2277718 C160.902331,18.7848421 160.007228,18.1985178 159.225764,17.486325 C159.110568,17.3779824 158.953341,17.3078784 158.800785,17.3365574 C158.646671,17.3477103 158.500341,17.4210008 158.400712,17.5420895 L156.109248,20.2649922 C155.905321,20.5055763 155.924001,20.8688425 156.151279,21.0855275 C157.300125,22.1880721 158.631104,23.0516258 160.1053,23.6506963 C161.585723,24.25136 163.151764,24.5540818 164.766063,24.5540818 C166.104826,24.5540818 167.323723,24.3644823 168.39162,23.98847 C169.465743,23.6076779 170.390424,23.0834912 171.136084,22.4302495 C171.894197,21.7674482 172.48263,20.9883379 172.882702,20.112038 C173.290558,19.2309584 173.496042,18.2765881 173.496042,17.2744197 C173.496042,16.3790006 173.363723,15.5696182 173.103754,14.8733581 C172.843785,14.1755047 172.47329,13.5509419 171.998496,13.0140091" id="Fill-25"></path>
                    <path d="M205.017526,0.411064304 L187.236887,0.411064304 C186.916206,0.411064304 186.656237,0.677140811 186.656237,1.00535494 L186.656237,4.38309264 C186.656237,4.71130677 186.916206,4.97738328 187.236887,4.97738328 L193.592897,4.97738328 L193.592897,23.5469742 C193.592897,23.8751883 193.852866,24.1412649 194.173546,24.1412649 L198.080866,24.1412649 C198.401546,24.1412649 198.661515,23.8751883 198.661515,23.5469742 L198.661515,4.97738328 L205.017526,4.97738328 C205.338206,4.97738328 205.598175,4.71130677 205.598175,4.38309264 L205.598175,1.00535494 C205.598175,0.677140811 205.338206,0.411064304 205.017526,0.411064304" id="Fill-20"></path>
                    <path d="M227.49551,6.20372512 C227.652737,6.80757539 227.811521,7.41301894 227.973418,8.02164903 C228.309665,9.28511412 228.635015,10.5135272 228.952582,11.7180412 L229.514552,13.7160049 L225.465572,13.7160049 L226.027541,11.7180412 C226.365345,10.5199003 226.696923,9.28989394 227.02383,8.03439521 C227.182613,7.42735839 227.338284,6.81554176 227.49551,6.20372512 L227.49551,6.20372512 Z M230.398758,0.821650626 C230.320923,0.577879934 230.099871,0.410586322 229.847686,0.410586322 L225.266314,0.410586322 C225.014129,0.410586322 224.793077,0.577879934 224.715242,0.821650626 L217.576211,23.3632699 C217.518613,23.5433097 217.548191,23.7424687 217.658716,23.8954229 C217.767686,24.0499703 217.942036,24.1407869 218.127284,24.1407869 L222.101541,24.1407869 C222.359954,24.1407869 222.588789,23.9639336 222.660397,23.7106033 L224.256015,18.0417398 L230.720995,18.0417398 L232.283923,23.7074168 C232.355531,23.9623404 232.584366,24.1407869 232.844335,24.1407869 L236.986716,24.1407869 C237.171964,24.1407869 237.346314,24.0499703 237.455284,23.8954229 C237.565809,23.7424687 237.595387,23.5433097 237.537789,23.3632699 L230.398758,0.821650626 Z" id="Fill-18"></path>
                    <path d="M266.05266,17.8405094 C265.942134,17.7162342 265.784907,17.6445369 265.621454,17.6445369 C265.456443,17.6445369 265.300773,17.7162342 265.190247,17.8405094 C264.608041,18.498531 263.986918,19.013158 263.342443,19.370051 C262.061278,20.0790573 260.227485,20.0312591 258.884052,19.3732376 C258.189763,19.0354638 257.590433,18.5447359 257.100072,17.9185798 C256.598814,17.2796775 256.201856,16.4782615 255.921649,15.5334509 C255.63833,14.5743008 255.493557,13.4685697 255.493557,12.2417499 C255.493557,11.0388292 255.63833,9.95062404 255.921649,9.00422018 C256.201856,8.06896923 256.594144,7.27073971 257.084505,6.63024416 C257.567082,6.0024948 258.157072,5.51495342 258.834237,5.17717965 C260.138753,4.52871774 261.916505,4.49844556 263.124505,5.10707566 C263.726948,5.40979743 264.281134,5.81767519 264.773052,6.3211493 C264.885134,6.43586492 265.026794,6.48684964 265.198031,6.494816 C265.356814,6.49003618 265.506258,6.41993219 265.615227,6.29884348 L267.803948,3.81652494 C268.01099,3.58231388 268.001649,3.2222343 267.782155,2.99917615 C267.028711,2.22643899 266.086907,1.53177218 264.983206,0.929515174 C262.643485,-0.346696095 259.365072,-0.24154011 256.827649,0.835512097 C255.507567,1.39793729 254.350938,2.22325244 253.390454,3.29074501 C252.433082,4.35664431 251.674969,5.66950085 251.133237,7.1958559 C250.596175,8.71424459 250.323753,10.4477251 250.323753,12.3453126 C250.323753,14.2667992 250.596175,16.0050595 251.133237,17.5122953 C251.676526,19.0290907 252.436196,20.3276078 253.395124,21.369608 C254.357165,22.4163881 255.504454,23.2178041 256.799629,23.7531437 C258.085464,24.2852967 259.489608,24.5545597 260.973144,24.5545597 C262.44734,24.5545597 263.803227,24.2486514 265.00033,23.649581 C266.188093,23.0536971 267.268443,22.1885501 268.213361,21.0764459 C268.406392,20.8502012 268.403278,20.5124274 268.207134,20.287776 L266.05266,17.8405094 Z" id="Fill-22"></path>
                    <path d="M300.587449,23.25668 L293.267841,9.85088519 L299.795089,1.37308224 C299.933635,1.19463572 299.960099,0.950865025 299.862027,0.745332874 C299.765511,0.541393994 299.561584,0.410745649 299.338975,0.410745649 L294.995779,0.410745649 C294.818315,0.410745649 294.650192,0.495189092 294.538109,0.638583616 L287.62947,9.65491267 L287.62947,1.00503629 C287.62947,0.676822156 287.369501,0.410745649 287.048821,0.410745649 L283.10881,0.410745649 C282.78813,0.410745649 282.528161,0.676822156 282.528161,1.00503629 L282.528161,23.5466556 C282.528161,23.8748697 282.78813,24.1409462 283.10881,24.1409462 L287.048821,24.1409462 C287.369501,24.1409462 287.62947,23.8748697 287.62947,23.5466556 L287.62947,17.1751588 L290.145099,14.0029533 L295.223058,23.823885 C295.324243,24.0198575 295.520388,24.1409462 295.736769,24.1409462 L300.081522,24.1409462 C300.288563,24.1409462 300.47848,24.0278239 300.581223,23.8461908 C300.685522,23.6645577 300.688635,23.4399063 300.587449,23.25668" id="Fill-16"></path>
                </g>
                <g id="4dots" transform="translate(188.017391, 43.789474)" fill="#2A2D31">
                    <path d="M11.1769982,49.7765085 C15.7835501,49.7765085 19.5181995,46.0660241 19.5181995,41.4894703 C19.5181995,36.9129165 15.7835501,33.2024321 11.1769982,33.2024321 C6.57044625,33.2024321 2.8357969,36.9129165 2.8357969,41.4894703 C2.8357969,46.0660241 6.57044625,49.7765085 11.1769982,49.7765085" id="Fill-18"></path>
                    <path d="M11.1769982,16.6287902 C15.7835501,16.6287902 19.5181995,12.9183058 19.5181995,8.34175199 C19.5181995,3.76519821 15.7835501,0.0561620583 11.1769982,0.0561620583 C6.57044625,0.0561620583 2.8357969,3.76519821 2.8357969,8.34175199 C2.8357969,12.9183058 6.57044625,16.6287902 11.1769982,16.6287902" id="Fill-34"></path>
                    <path d="M44.5438378,16.6287902 C49.1503897,16.6287902 52.8864922,12.9183058 52.8864922,8.34175199 C52.8864922,3.76519821 49.1503897,0.0561620583 44.5438378,0.0561620583 C39.9372858,0.0561620583 36.2026365,3.76519821 36.2026365,8.34175199 C36.2026365,12.9183058 39.9372858,16.6287902 44.5438378,16.6287902" id="Fill-50"></path>
                    <path d="M44.5438378,49.7765085 C49.1503897,49.7765085 52.8864922,46.0660241 52.8864922,41.4894703 C52.8864922,36.9129165 49.1503897,33.2024321 44.5438378,33.2024321 C39.9372858,33.2024321 36.2026365,36.9129165 36.2026365,41.4894703 C36.2026365,46.0660241 39.9372858,49.7765085 44.5438378,49.7765085" id="Fill-64"></path>
                </g>
            </g>
        </g>
    </g>
</svg>